<?xml version="1.0" encoding="utf-8" standalone="no"?>
<!DOCTYPE svg PUBLIC "-//W3C//DTD SVG 1.1//EN"
  "http://www.w3.org/Graphics/SVG/1.1/DTD/svg11.dtd">
<svg xmlns:xlink="http://www.w3.org/1999/xlink" width="864pt" height="504pt" viewBox="0 0 864 504" xmlns="http://www.w3.org/2000/svg" version="1.1">
 <metadata>
  <rdf:RDF xmlns:dc="http://purl.org/dc/elements/1.1/" xmlns:cc="http://creativecommons.org/ns#" xmlns:rdf="http://www.w3.org/1999/02/22-rdf-syntax-ns#">
   <cc:Work>
    <dc:type rdf:resource="http://purl.org/dc/dcmitype/StillImage"/>
    <dc:date>2025-09-08T21:01:55.189083</dc:date>
    <dc:format>image/svg+xml</dc:format>
    <dc:creator>
     <cc:Agent>
      <dc:title>Matplotlib v3.8.4, https://matplotlib.org/</dc:title>
     </cc:Agent>
    </dc:creator>
   </cc:Work>
  </rdf:RDF>
 </metadata>
 <defs>
  <style type="text/css">*{stroke-linejoin: round; stroke-linecap: butt}</style>
 </defs>
 <g id="figure_1">
  <g id="patch_1">
   <path d="M 0 504 
L 864 504 
L 864 0 
L 0 0 
z
" style="fill: #ffffff"/>
  </g>
  <g id="axes_1">
   <g id="patch_2">
    <path d="M 51.32 458.44 
L 853.2 458.44 
L 853.2 28.32 
L 51.32 28.32 
z
" style="fill: #ffffff"/>
   </g>
   <g id="PolyCollection_1">
    <path d="M 87.769091 342.811425 
L 87.769091 382.357947 
L 110.549773 382.357947 
L 133.330455 382.357947 
L 156.111136 382.357947 
L 178.891818 382.357947 
L 201.6725 382.357947 
L 224.453182 382.357947 
L 247.233864 378.413518 
L 270.014545 382.357947 
L 292.795227 382.357947 
L 315.575909 379.120994 
L 338.356591 383.783243 
L 361.137273 382.357947 
L 383.917955 385.582879 
L 406.698636 382.357947 
L 429.479318 383.010687 
L 452.26 361.4669 
L 475.040682 298.851237 
L 497.821364 274.279314 
L 520.602045 126.246248 
L 543.382727 101.674449 
L 566.163409 81.172215 
L 588.944091 86.086555 
L 611.724773 86.282055 
L 634.505455 82.987055 
L 657.286136 79.318264 
L 680.066818 71.690299 
L 702.8475 68.641365 
L 725.628182 59.207431 
L 748.408864 59.891245 
L 771.189545 55.794864 
L 793.970227 56.994667 
L 816.750909 59.020029 
L 816.750909 51.6922 
L 816.750909 51.6922 
L 793.970227 48.801905 
L 771.189545 50.001707 
L 748.408864 54.098088 
L 725.628182 49.866245 
L 702.8475 55.179283 
L 680.066818 52.130348 
L 657.286136 54.333698 
L 634.505455 63.773326 
L 611.724773 62.116879 
L 588.944091 63.950931 
L 566.163409 62.311061 
L 543.382727 72.941322 
L 520.602045 89.333333 
L 497.821364 201.830095 
L 475.040682 249.354477 
L 452.26 314.5459 
L 429.479318 311.026189 
L 406.698636 342.811425 
L 383.917955 328.116626 
L 361.137273 342.811425 
L 338.356591 334.831919 
L 315.575909 341.13272 
L 292.795227 342.811425 
L 270.014545 342.811425 
L 247.233864 350.032958 
L 224.453182 342.811425 
L 201.6725 342.811425 
L 178.891818 342.811425 
L 156.111136 342.811425 
L 133.330455 342.811425 
L 110.549773 342.811425 
L 87.769091 342.811425 
z
" clip-path="url(#p9846e4669a)" style="fill: #1f77b4; fill-opacity: 0.2"/>
   </g>
   <g id="PolyCollection_2">
    <path d="M 87.769091 396.027261 
L 87.769091 414.346834 
L 110.549773 420.897131 
L 133.330455 420.897131 
L 156.111136 409.583775 
L 178.891818 416.217986 
L 201.6725 431.514518 
L 224.453182 411.347351 
L 247.233864 421.604036 
L 270.014545 419.446435 
L 292.795227 424.985472 
L 315.575909 415.592574 
L 338.356591 422.869587 
L 361.137273 419.669941 
L 383.917955 424.068747 
L 406.698636 429.969002 
L 429.479318 418.97743 
L 452.26 433.169229 
L 475.040682 365.087995 
L 497.821364 304.014021 
L 520.602045 168.596651 
L 543.382727 132.793446 
L 566.163409 74.499814 
L 588.944091 71.347732 
L 611.724773 74.616688 
L 634.505455 66.893941 
L 657.286136 70.471678 
L 680.066818 55.549519 
L 702.8475 56.994667 
L 725.628182 51.453138 
L 748.408864 51.453138 
L 771.189545 51.453138 
L 793.970227 51.453138 
L 816.750909 48.801905 
L 816.750909 48.801905 
L 816.750909 48.801905 
L 793.970227 47.789224 
L 771.189545 47.789224 
L 748.408864 47.789224 
L 725.628182 47.789224 
L 702.8475 48.801905 
L 680.066818 51.885605 
L 657.286136 50.071865 
L 634.505455 52.01105 
L 611.724773 52.481064 
L 588.944091 60.665677 
L 566.163409 60.790701 
L 543.382727 122.111392 
L 520.602045 125.633445 
L 497.821364 281.878398 
L 475.040682 306.009148 
L 452.26 385.397628 
L 429.479318 394.67377 
L 406.698636 393.513513 
L 383.917955 397.775214 
L 361.137273 390.704154 
L 338.356591 395.69727 
L 315.575909 406.251388 
L 292.795227 400.135595 
L 270.014545 395.843317 
L 247.233864 400.239926 
L 224.453182 400.665296 
L 201.6725 391.967996 
L 178.891818 387.601899 
L 156.111136 395.874663 
L 133.330455 392.754069 
L 110.549773 392.754069 
L 87.769091 396.027261 
z
" clip-path="url(#p9846e4669a)" style="fill: #ff7f0e; fill-opacity: 0.2"/>
   </g>
   <g id="PolyCollection_3">
    <path d="M 87.769091 417.175844 
L 87.769091 430.884956 
L 110.549773 430.884956 
L 133.330455 435.275817 
L 156.111136 431.978098 
L 178.891818 424.966125 
L 201.6725 425.668952 
L 224.453182 438.708962 
L 247.233864 431.662281 
L 270.014545 426.842825 
L 292.795227 436.644673 
L 315.575909 422.454081 
L 338.356591 418.898816 
L 361.137273 425.190829 
L 383.917955 421.901719 
L 406.698636 422.076859 
L 429.479318 424.604612 
L 452.26 430.939206 
L 475.040682 377.653323 
L 497.821364 223.458518 
L 520.602045 48.801905 
L 543.382727 48.801905 
L 566.163409 48.801905 
L 588.944091 48.801905 
L 611.724773 48.801905 
L 634.505455 48.801905 
L 657.286136 48.801905 
L 680.066818 48.801905 
L 702.8475 48.801905 
L 725.628182 48.801905 
L 748.408864 48.801905 
L 771.189545 48.801905 
L 793.970227 48.801905 
L 816.750909 48.801905 
L 816.750909 48.801905 
L 816.750909 48.801905 
L 793.970227 48.801905 
L 771.189545 48.801905 
L 748.408864 48.801905 
L 725.628182 48.801905 
L 702.8475 48.801905 
L 680.066818 48.801905 
L 657.286136 48.801905 
L 634.505455 48.801905 
L 611.724773 48.801905 
L 588.944091 48.801905 
L 566.163409 48.801905 
L 543.382727 48.801905 
L 520.602045 48.801905 
L 497.821364 185.470244 
L 475.040682 337.684734 
L 452.26 397.458965 
L 429.479318 415.263426 
L 406.698636 388.297236 
L 383.917955 403.219348 
L 361.137273 403.207342 
L 338.356591 384.92107 
L 315.575909 384.642909 
L 292.795227 395.030603 
L 270.014545 393.362585 
L 247.233864 388.543128 
L 224.453182 404.43618 
L 201.6725 409.283429 
L 178.891818 401.793495 
L 156.111136 422.636912 
L 133.330455 416.062087 
L 110.549773 417.175844 
L 87.769091 417.175844 
z
" clip-path="url(#p9846e4669a)" style="fill: #2ca02c; fill-opacity: 0.2"/>
   </g>
   <g id="matplotlib.axis_1">
    <g id="xtick_1">
     <g id="line2d_1">
      <path d="M 87.769091 458.44 
L 87.769091 28.32 
" clip-path="url(#p9846e4669a)" style="fill: none; stroke-dasharray: 2.96,1.28; stroke-dashoffset: 0; stroke: #b0b0b0; stroke-opacity: 0.7; stroke-width: 0.8"/>
     </g>
     <g id="line2d_2">
      <defs>
       <path id="m5e2266a7ae" d="M 0 0 
L 0 3.5 
" style="stroke: #000000; stroke-width: 0.8"/>
      </defs>
      <g>
       <use xlink:href="#m5e2266a7ae" x="87.769091" y="458.44" style="stroke: #000000; stroke-width: 0.8"/>
      </g>
     </g>
     <g id="text_1">
      <!-- 0 -->
      <g transform="translate(84.587841 473.038437) scale(0.1 -0.1)">
       <defs>
        <path id="DejaVuSans-30" d="M 2034 4250 
Q 1547 4250 1301 3770 
Q 1056 3291 1056 2328 
Q 1056 1369 1301 889 
Q 1547 409 2034 409 
Q 2525 409 2770 889 
Q 3016 1369 3016 2328 
Q 3016 3291 2770 3770 
Q 2525 4250 2034 4250 
z
M 2034 4750 
Q 2819 4750 3233 4129 
Q 3647 3509 3647 2328 
Q 3647 1150 3233 529 
Q 2819 -91 2034 -91 
Q 1250 -91 836 529 
Q 422 1150 422 2328 
Q 422 3509 836 4129 
Q 1250 4750 2034 4750 
z
" transform="scale(0.015625)"/>
       </defs>
       <use xlink:href="#DejaVuSans-30"/>
      </g>
     </g>
    </g>
    <g id="xtick_2">
     <g id="line2d_3">
      <path d="M 110.549773 458.44 
L 110.549773 28.32 
" clip-path="url(#p9846e4669a)" style="fill: none; stroke-dasharray: 2.96,1.28; stroke-dashoffset: 0; stroke: #b0b0b0; stroke-opacity: 0.7; stroke-width: 0.8"/>
     </g>
     <g id="line2d_4">
      <g>
       <use xlink:href="#m5e2266a7ae" x="110.549773" y="458.44" style="stroke: #000000; stroke-width: 0.8"/>
      </g>
     </g>
     <g id="text_2">
      <!-- 1 -->
      <g transform="translate(107.368523 473.038437) scale(0.1 -0.1)">
       <defs>
        <path id="DejaVuSans-31" d="M 794 531 
L 1825 531 
L 1825 4091 
L 703 3866 
L 703 4441 
L 1819 4666 
L 2450 4666 
L 2450 531 
L 3481 531 
L 3481 0 
L 794 0 
L 794 531 
z
" transform="scale(0.015625)"/>
       </defs>
       <use xlink:href="#DejaVuSans-31"/>
      </g>
     </g>
    </g>
    <g id="xtick_3">
     <g id="line2d_5">
      <path d="M 133.330455 458.44 
L 133.330455 28.32 
" clip-path="url(#p9846e4669a)" style="fill: none; stroke-dasharray: 2.96,1.28; stroke-dashoffset: 0; stroke: #b0b0b0; stroke-opacity: 0.7; stroke-width: 0.8"/>
     </g>
     <g id="line2d_6">
      <g>
       <use xlink:href="#m5e2266a7ae" x="133.330455" y="458.44" style="stroke: #000000; stroke-width: 0.8"/>
      </g>
     </g>
     <g id="text_3">
      <!-- 2 -->
      <g transform="translate(130.149205 473.038437) scale(0.1 -0.1)">
       <defs>
        <path id="DejaVuSans-32" d="M 1228 531 
L 3431 531 
L 3431 0 
L 469 0 
L 469 531 
Q 828 903 1448 1529 
Q 2069 2156 2228 2338 
Q 2531 2678 2651 2914 
Q 2772 3150 2772 3378 
Q 2772 3750 2511 3984 
Q 2250 4219 1831 4219 
Q 1534 4219 1204 4116 
Q 875 4013 500 3803 
L 500 4441 
Q 881 4594 1212 4672 
Q 1544 4750 1819 4750 
Q 2544 4750 2975 4387 
Q 3406 4025 3406 3419 
Q 3406 3131 3298 2873 
Q 3191 2616 2906 2266 
Q 2828 2175 2409 1742 
Q 1991 1309 1228 531 
z
" transform="scale(0.015625)"/>
       </defs>
       <use xlink:href="#DejaVuSans-32"/>
      </g>
     </g>
    </g>
    <g id="xtick_4">
     <g id="line2d_7">
      <path d="M 156.111136 458.44 
L 156.111136 28.32 
" clip-path="url(#p9846e4669a)" style="fill: none; stroke-dasharray: 2.96,1.28; stroke-dashoffset: 0; stroke: #b0b0b0; stroke-opacity: 0.7; stroke-width: 0.8"/>
     </g>
     <g id="line2d_8">
      <g>
       <use xlink:href="#m5e2266a7ae" x="156.111136" y="458.44" style="stroke: #000000; stroke-width: 0.8"/>
      </g>
     </g>
     <g id="text_4">
      <!-- 3 -->
      <g transform="translate(152.929886 473.038437) scale(0.1 -0.1)">
       <defs>
        <path id="DejaVuSans-33" d="M 2597 2516 
Q 3050 2419 3304 2112 
Q 3559 1806 3559 1356 
Q 3559 666 3084 287 
Q 2609 -91 1734 -91 
Q 1441 -91 1130 -33 
Q 819 25 488 141 
L 488 750 
Q 750 597 1062 519 
Q 1375 441 1716 441 
Q 2309 441 2620 675 
Q 2931 909 2931 1356 
Q 2931 1769 2642 2001 
Q 2353 2234 1838 2234 
L 1294 2234 
L 1294 2753 
L 1863 2753 
Q 2328 2753 2575 2939 
Q 2822 3125 2822 3475 
Q 2822 3834 2567 4026 
Q 2313 4219 1838 4219 
Q 1578 4219 1281 4162 
Q 984 4106 628 3988 
L 628 4550 
Q 988 4650 1302 4700 
Q 1616 4750 1894 4750 
Q 2613 4750 3031 4423 
Q 3450 4097 3450 3541 
Q 3450 3153 3228 2886 
Q 3006 2619 2597 2516 
z
" transform="scale(0.015625)"/>
       </defs>
       <use xlink:href="#DejaVuSans-33"/>
      </g>
     </g>
    </g>
    <g id="xtick_5">
     <g id="line2d_9">
      <path d="M 178.891818 458.44 
L 178.891818 28.32 
" clip-path="url(#p9846e4669a)" style="fill: none; stroke-dasharray: 2.96,1.28; stroke-dashoffset: 0; stroke: #b0b0b0; stroke-opacity: 0.7; stroke-width: 0.8"/>
     </g>
     <g id="line2d_10">
      <g>
       <use xlink:href="#m5e2266a7ae" x="178.891818" y="458.44" style="stroke: #000000; stroke-width: 0.8"/>
      </g>
     </g>
     <g id="text_5">
      <!-- 4 -->
      <g transform="translate(175.710568 473.038437) scale(0.1 -0.1)">
       <defs>
        <path id="DejaVuSans-34" d="M 2419 4116 
L 825 1625 
L 2419 1625 
L 2419 4116 
z
M 2253 4666 
L 3047 4666 
L 3047 1625 
L 3713 1625 
L 3713 1100 
L 3047 1100 
L 3047 0 
L 2419 0 
L 2419 1100 
L 313 1100 
L 313 1709 
L 2253 4666 
z
" transform="scale(0.015625)"/>
       </defs>
       <use xlink:href="#DejaVuSans-34"/>
      </g>
     </g>
    </g>
    <g id="xtick_6">
     <g id="line2d_11">
      <path d="M 201.6725 458.44 
L 201.6725 28.32 
" clip-path="url(#p9846e4669a)" style="fill: none; stroke-dasharray: 2.96,1.28; stroke-dashoffset: 0; stroke: #b0b0b0; stroke-opacity: 0.7; stroke-width: 0.8"/>
     </g>
     <g id="line2d_12">
      <g>
       <use xlink:href="#m5e2266a7ae" x="201.6725" y="458.44" style="stroke: #000000; stroke-width: 0.8"/>
      </g>
     </g>
     <g id="text_6">
      <!-- 5 -->
      <g transform="translate(198.49125 473.038437) scale(0.1 -0.1)">
       <defs>
        <path id="DejaVuSans-35" d="M 691 4666 
L 3169 4666 
L 3169 4134 
L 1269 4134 
L 1269 2991 
Q 1406 3038 1543 3061 
Q 1681 3084 1819 3084 
Q 2600 3084 3056 2656 
Q 3513 2228 3513 1497 
Q 3513 744 3044 326 
Q 2575 -91 1722 -91 
Q 1428 -91 1123 -41 
Q 819 9 494 109 
L 494 744 
Q 775 591 1075 516 
Q 1375 441 1709 441 
Q 2250 441 2565 725 
Q 2881 1009 2881 1497 
Q 2881 1984 2565 2268 
Q 2250 2553 1709 2553 
Q 1456 2553 1204 2497 
Q 953 2441 691 2322 
L 691 4666 
z
" transform="scale(0.015625)"/>
       </defs>
       <use xlink:href="#DejaVuSans-35"/>
      </g>
     </g>
    </g>
    <g id="xtick_7">
     <g id="line2d_13">
      <path d="M 224.453182 458.44 
L 224.453182 28.32 
" clip-path="url(#p9846e4669a)" style="fill: none; stroke-dasharray: 2.96,1.28; stroke-dashoffset: 0; stroke: #b0b0b0; stroke-opacity: 0.7; stroke-width: 0.8"/>
     </g>
     <g id="line2d_14">
      <g>
       <use xlink:href="#m5e2266a7ae" x="224.453182" y="458.44" style="stroke: #000000; stroke-width: 0.8"/>
      </g>
     </g>
     <g id="text_7">
      <!-- 6 -->
      <g transform="translate(221.271932 473.038437) scale(0.1 -0.1)">
       <defs>
        <path id="DejaVuSans-36" d="M 2113 2584 
Q 1688 2584 1439 2293 
Q 1191 2003 1191 1497 
Q 1191 994 1439 701 
Q 1688 409 2113 409 
Q 2538 409 2786 701 
Q 3034 994 3034 1497 
Q 3034 2003 2786 2293 
Q 2538 2584 2113 2584 
z
M 3366 4563 
L 3366 3988 
Q 3128 4100 2886 4159 
Q 2644 4219 2406 4219 
Q 1781 4219 1451 3797 
Q 1122 3375 1075 2522 
Q 1259 2794 1537 2939 
Q 1816 3084 2150 3084 
Q 2853 3084 3261 2657 
Q 3669 2231 3669 1497 
Q 3669 778 3244 343 
Q 2819 -91 2113 -91 
Q 1303 -91 875 529 
Q 447 1150 447 2328 
Q 447 3434 972 4092 
Q 1497 4750 2381 4750 
Q 2619 4750 2861 4703 
Q 3103 4656 3366 4563 
z
" transform="scale(0.015625)"/>
       </defs>
       <use xlink:href="#DejaVuSans-36"/>
      </g>
     </g>
    </g>
    <g id="xtick_8">
     <g id="line2d_15">
      <path d="M 247.233864 458.44 
L 247.233864 28.32 
" clip-path="url(#p9846e4669a)" style="fill: none; stroke-dasharray: 2.96,1.28; stroke-dashoffset: 0; stroke: #b0b0b0; stroke-opacity: 0.7; stroke-width: 0.8"/>
     </g>
     <g id="line2d_16">
      <g>
       <use xlink:href="#m5e2266a7ae" x="247.233864" y="458.44" style="stroke: #000000; stroke-width: 0.8"/>
      </g>
     </g>
     <g id="text_8">
      <!-- 7 -->
      <g transform="translate(244.052614 473.038437) scale(0.1 -0.1)">
       <defs>
        <path id="DejaVuSans-37" d="M 525 4666 
L 3525 4666 
L 3525 4397 
L 1831 0 
L 1172 0 
L 2766 4134 
L 525 4134 
L 525 4666 
z
" transform="scale(0.015625)"/>
       </defs>
       <use xlink:href="#DejaVuSans-37"/>
      </g>
     </g>
    </g>
    <g id="xtick_9">
     <g id="line2d_17">
      <path d="M 270.014545 458.44 
L 270.014545 28.32 
" clip-path="url(#p9846e4669a)" style="fill: none; stroke-dasharray: 2.96,1.28; stroke-dashoffset: 0; stroke: #b0b0b0; stroke-opacity: 0.7; stroke-width: 0.8"/>
     </g>
     <g id="line2d_18">
      <g>
       <use xlink:href="#m5e2266a7ae" x="270.014545" y="458.44" style="stroke: #000000; stroke-width: 0.8"/>
      </g>
     </g>
     <g id="text_9">
      <!-- 8 -->
      <g transform="translate(266.833295 473.038437) scale(0.1 -0.1)">
       <defs>
        <path id="DejaVuSans-38" d="M 2034 2216 
Q 1584 2216 1326 1975 
Q 1069 1734 1069 1313 
Q 1069 891 1326 650 
Q 1584 409 2034 409 
Q 2484 409 2743 651 
Q 3003 894 3003 1313 
Q 3003 1734 2745 1975 
Q 2488 2216 2034 2216 
z
M 1403 2484 
Q 997 2584 770 2862 
Q 544 3141 544 3541 
Q 544 4100 942 4425 
Q 1341 4750 2034 4750 
Q 2731 4750 3128 4425 
Q 3525 4100 3525 3541 
Q 3525 3141 3298 2862 
Q 3072 2584 2669 2484 
Q 3125 2378 3379 2068 
Q 3634 1759 3634 1313 
Q 3634 634 3220 271 
Q 2806 -91 2034 -91 
Q 1263 -91 848 271 
Q 434 634 434 1313 
Q 434 1759 690 2068 
Q 947 2378 1403 2484 
z
M 1172 3481 
Q 1172 3119 1398 2916 
Q 1625 2713 2034 2713 
Q 2441 2713 2670 2916 
Q 2900 3119 2900 3481 
Q 2900 3844 2670 4047 
Q 2441 4250 2034 4250 
Q 1625 4250 1398 4047 
Q 1172 3844 1172 3481 
z
" transform="scale(0.015625)"/>
       </defs>
       <use xlink:href="#DejaVuSans-38"/>
      </g>
     </g>
    </g>
    <g id="xtick_10">
     <g id="line2d_19">
      <path d="M 292.795227 458.44 
L 292.795227 28.32 
" clip-path="url(#p9846e4669a)" style="fill: none; stroke-dasharray: 2.96,1.28; stroke-dashoffset: 0; stroke: #b0b0b0; stroke-opacity: 0.7; stroke-width: 0.8"/>
     </g>
     <g id="line2d_20">
      <g>
       <use xlink:href="#m5e2266a7ae" x="292.795227" y="458.44" style="stroke: #000000; stroke-width: 0.8"/>
      </g>
     </g>
     <g id="text_10">
      <!-- 9 -->
      <g transform="translate(289.613977 473.038437) scale(0.1 -0.1)">
       <defs>
        <path id="DejaVuSans-39" d="M 703 97 
L 703 672 
Q 941 559 1184 500 
Q 1428 441 1663 441 
Q 2288 441 2617 861 
Q 2947 1281 2994 2138 
Q 2813 1869 2534 1725 
Q 2256 1581 1919 1581 
Q 1219 1581 811 2004 
Q 403 2428 403 3163 
Q 403 3881 828 4315 
Q 1253 4750 1959 4750 
Q 2769 4750 3195 4129 
Q 3622 3509 3622 2328 
Q 3622 1225 3098 567 
Q 2575 -91 1691 -91 
Q 1453 -91 1209 -44 
Q 966 3 703 97 
z
M 1959 2075 
Q 2384 2075 2632 2365 
Q 2881 2656 2881 3163 
Q 2881 3666 2632 3958 
Q 2384 4250 1959 4250 
Q 1534 4250 1286 3958 
Q 1038 3666 1038 3163 
Q 1038 2656 1286 2365 
Q 1534 2075 1959 2075 
z
" transform="scale(0.015625)"/>
       </defs>
       <use xlink:href="#DejaVuSans-39"/>
      </g>
     </g>
    </g>
    <g id="xtick_11">
     <g id="line2d_21">
      <path d="M 315.575909 458.44 
L 315.575909 28.32 
" clip-path="url(#p9846e4669a)" style="fill: none; stroke-dasharray: 2.96,1.28; stroke-dashoffset: 0; stroke: #b0b0b0; stroke-opacity: 0.7; stroke-width: 0.8"/>
     </g>
     <g id="line2d_22">
      <g>
       <use xlink:href="#m5e2266a7ae" x="315.575909" y="458.44" style="stroke: #000000; stroke-width: 0.8"/>
      </g>
     </g>
     <g id="text_11">
      <!-- 10 -->
      <g transform="translate(309.213409 473.038437) scale(0.1 -0.1)">
       <use xlink:href="#DejaVuSans-31"/>
       <use xlink:href="#DejaVuSans-30" x="63.623047"/>
      </g>
     </g>
    </g>
    <g id="xtick_12">
     <g id="line2d_23">
      <path d="M 338.356591 458.44 
L 338.356591 28.32 
" clip-path="url(#p9846e4669a)" style="fill: none; stroke-dasharray: 2.96,1.28; stroke-dashoffset: 0; stroke: #b0b0b0; stroke-opacity: 0.7; stroke-width: 0.8"/>
     </g>
     <g id="line2d_24">
      <g>
       <use xlink:href="#m5e2266a7ae" x="338.356591" y="458.44" style="stroke: #000000; stroke-width: 0.8"/>
      </g>
     </g>
     <g id="text_12">
      <!-- 11 -->
      <g transform="translate(331.994091 473.038437) scale(0.1 -0.1)">
       <use xlink:href="#DejaVuSans-31"/>
       <use xlink:href="#DejaVuSans-31" x="63.623047"/>
      </g>
     </g>
    </g>
    <g id="xtick_13">
     <g id="line2d_25">
      <path d="M 361.137273 458.44 
L 361.137273 28.32 
" clip-path="url(#p9846e4669a)" style="fill: none; stroke-dasharray: 2.96,1.28; stroke-dashoffset: 0; stroke: #b0b0b0; stroke-opacity: 0.7; stroke-width: 0.8"/>
     </g>
     <g id="line2d_26">
      <g>
       <use xlink:href="#m5e2266a7ae" x="361.137273" y="458.44" style="stroke: #000000; stroke-width: 0.8"/>
      </g>
     </g>
     <g id="text_13">
      <!-- 12 -->
      <g transform="translate(354.774773 473.038437) scale(0.1 -0.1)">
       <use xlink:href="#DejaVuSans-31"/>
       <use xlink:href="#DejaVuSans-32" x="63.623047"/>
      </g>
     </g>
    </g>
    <g id="xtick_14">
     <g id="line2d_27">
      <path d="M 383.917955 458.44 
L 383.917955 28.32 
" clip-path="url(#p9846e4669a)" style="fill: none; stroke-dasharray: 2.96,1.28; stroke-dashoffset: 0; stroke: #b0b0b0; stroke-opacity: 0.7; stroke-width: 0.8"/>
     </g>
     <g id="line2d_28">
      <g>
       <use xlink:href="#m5e2266a7ae" x="383.917955" y="458.44" style="stroke: #000000; stroke-width: 0.8"/>
      </g>
     </g>
     <g id="text_14">
      <!-- 13 -->
      <g transform="translate(377.555455 473.038437) scale(0.1 -0.1)">
       <use xlink:href="#DejaVuSans-31"/>
       <use xlink:href="#DejaVuSans-33" x="63.623047"/>
      </g>
     </g>
    </g>
    <g id="xtick_15">
     <g id="line2d_29">
      <path d="M 406.698636 458.44 
L 406.698636 28.32 
" clip-path="url(#p9846e4669a)" style="fill: none; stroke-dasharray: 2.96,1.28; stroke-dashoffset: 0; stroke: #b0b0b0; stroke-opacity: 0.7; stroke-width: 0.8"/>
     </g>
     <g id="line2d_30">
      <g>
       <use xlink:href="#m5e2266a7ae" x="406.698636" y="458.44" style="stroke: #000000; stroke-width: 0.8"/>
      </g>
     </g>
     <g id="text_15">
      <!-- 14 -->
      <g transform="translate(400.336136 473.038437) scale(0.1 -0.1)">
       <use xlink:href="#DejaVuSans-31"/>
       <use xlink:href="#DejaVuSans-34" x="63.623047"/>
      </g>
     </g>
    </g>
    <g id="xtick_16">
     <g id="line2d_31">
      <path d="M 429.479318 458.44 
L 429.479318 28.32 
" clip-path="url(#p9846e4669a)" style="fill: none; stroke-dasharray: 2.96,1.28; stroke-dashoffset: 0; stroke: #b0b0b0; stroke-opacity: 0.7; stroke-width: 0.8"/>
     </g>
     <g id="line2d_32">
      <g>
       <use xlink:href="#m5e2266a7ae" x="429.479318" y="458.44" style="stroke: #000000; stroke-width: 0.8"/>
      </g>
     </g>
     <g id="text_16">
      <!-- 15 -->
      <g transform="translate(423.116818 473.038437) scale(0.1 -0.1)">
       <use xlink:href="#DejaVuSans-31"/>
       <use xlink:href="#DejaVuSans-35" x="63.623047"/>
      </g>
     </g>
    </g>
    <g id="xtick_17">
     <g id="line2d_33">
      <path d="M 452.26 458.44 
L 452.26 28.32 
" clip-path="url(#p9846e4669a)" style="fill: none; stroke-dasharray: 2.96,1.28; stroke-dashoffset: 0; stroke: #b0b0b0; stroke-opacity: 0.7; stroke-width: 0.8"/>
     </g>
     <g id="line2d_34">
      <g>
       <use xlink:href="#m5e2266a7ae" x="452.26" y="458.44" style="stroke: #000000; stroke-width: 0.8"/>
      </g>
     </g>
     <g id="text_17">
      <!-- 16 -->
      <g transform="translate(445.8975 473.038437) scale(0.1 -0.1)">
       <use xlink:href="#DejaVuSans-31"/>
       <use xlink:href="#DejaVuSans-36" x="63.623047"/>
      </g>
     </g>
    </g>
    <g id="xtick_18">
     <g id="line2d_35">
      <path d="M 475.040682 458.44 
L 475.040682 28.32 
" clip-path="url(#p9846e4669a)" style="fill: none; stroke-dasharray: 2.96,1.28; stroke-dashoffset: 0; stroke: #b0b0b0; stroke-opacity: 0.7; stroke-width: 0.8"/>
     </g>
     <g id="line2d_36">
      <g>
       <use xlink:href="#m5e2266a7ae" x="475.040682" y="458.44" style="stroke: #000000; stroke-width: 0.8"/>
      </g>
     </g>
     <g id="text_18">
      <!-- 17 -->
      <g transform="translate(468.678182 473.038437) scale(0.1 -0.1)">
       <use xlink:href="#DejaVuSans-31"/>
       <use xlink:href="#DejaVuSans-37" x="63.623047"/>
      </g>
     </g>
    </g>
    <g id="xtick_19">
     <g id="line2d_37">
      <path d="M 497.821364 458.44 
L 497.821364 28.32 
" clip-path="url(#p9846e4669a)" style="fill: none; stroke-dasharray: 2.96,1.28; stroke-dashoffset: 0; stroke: #b0b0b0; stroke-opacity: 0.7; stroke-width: 0.8"/>
     </g>
     <g id="line2d_38">
      <g>
       <use xlink:href="#m5e2266a7ae" x="497.821364" y="458.44" style="stroke: #000000; stroke-width: 0.8"/>
      </g>
     </g>
     <g id="text_19">
      <!-- 18 -->
      <g transform="translate(491.458864 473.038437) scale(0.1 -0.1)">
       <use xlink:href="#DejaVuSans-31"/>
       <use xlink:href="#DejaVuSans-38" x="63.623047"/>
      </g>
     </g>
    </g>
    <g id="xtick_20">
     <g id="line2d_39">
      <path d="M 520.602045 458.44 
L 520.602045 28.32 
" clip-path="url(#p9846e4669a)" style="fill: none; stroke-dasharray: 2.96,1.28; stroke-dashoffset: 0; stroke: #b0b0b0; stroke-opacity: 0.7; stroke-width: 0.8"/>
     </g>
     <g id="line2d_40">
      <g>
       <use xlink:href="#m5e2266a7ae" x="520.602045" y="458.44" style="stroke: #000000; stroke-width: 0.8"/>
      </g>
     </g>
     <g id="text_20">
      <!-- 19 -->
      <g transform="translate(514.239545 473.038437) scale(0.1 -0.1)">
       <use xlink:href="#DejaVuSans-31"/>
       <use xlink:href="#DejaVuSans-39" x="63.623047"/>
      </g>
     </g>
    </g>
    <g id="xtick_21">
     <g id="line2d_41">
      <path d="M 543.382727 458.44 
L 543.382727 28.32 
" clip-path="url(#p9846e4669a)" style="fill: none; stroke-dasharray: 2.96,1.28; stroke-dashoffset: 0; stroke: #b0b0b0; stroke-opacity: 0.7; stroke-width: 0.8"/>
     </g>
     <g id="line2d_42">
      <g>
       <use xlink:href="#m5e2266a7ae" x="543.382727" y="458.44" style="stroke: #000000; stroke-width: 0.8"/>
      </g>
     </g>
     <g id="text_21">
      <!-- 20 -->
      <g transform="translate(537.020227 473.038437) scale(0.1 -0.1)">
       <use xlink:href="#DejaVuSans-32"/>
       <use xlink:href="#DejaVuSans-30" x="63.623047"/>
      </g>
     </g>
    </g>
    <g id="xtick_22">
     <g id="line2d_43">
      <path d="M 566.163409 458.44 
L 566.163409 28.32 
" clip-path="url(#p9846e4669a)" style="fill: none; stroke-dasharray: 2.96,1.28; stroke-dashoffset: 0; stroke: #b0b0b0; stroke-opacity: 0.7; stroke-width: 0.8"/>
     </g>
     <g id="line2d_44">
      <g>
       <use xlink:href="#m5e2266a7ae" x="566.163409" y="458.44" style="stroke: #000000; stroke-width: 0.8"/>
      </g>
     </g>
     <g id="text_22">
      <!-- 21 -->
      <g transform="translate(559.800909 473.038437) scale(0.1 -0.1)">
       <use xlink:href="#DejaVuSans-32"/>
       <use xlink:href="#DejaVuSans-31" x="63.623047"/>
      </g>
     </g>
    </g>
    <g id="xtick_23">
     <g id="line2d_45">
      <path d="M 588.944091 458.44 
L 588.944091 28.32 
" clip-path="url(#p9846e4669a)" style="fill: none; stroke-dasharray: 2.96,1.28; stroke-dashoffset: 0; stroke: #b0b0b0; stroke-opacity: 0.7; stroke-width: 0.8"/>
     </g>
     <g id="line2d_46">
      <g>
       <use xlink:href="#m5e2266a7ae" x="588.944091" y="458.44" style="stroke: #000000; stroke-width: 0.8"/>
      </g>
     </g>
     <g id="text_23">
      <!-- 22 -->
      <g transform="translate(582.581591 473.038437) scale(0.1 -0.1)">
       <use xlink:href="#DejaVuSans-32"/>
       <use xlink:href="#DejaVuSans-32" x="63.623047"/>
      </g>
     </g>
    </g>
    <g id="xtick_24">
     <g id="line2d_47">
      <path d="M 611.724773 458.44 
L 611.724773 28.32 
" clip-path="url(#p9846e4669a)" style="fill: none; stroke-dasharray: 2.96,1.28; stroke-dashoffset: 0; stroke: #b0b0b0; stroke-opacity: 0.7; stroke-width: 0.8"/>
     </g>
     <g id="line2d_48">
      <g>
       <use xlink:href="#m5e2266a7ae" x="611.724773" y="458.44" style="stroke: #000000; stroke-width: 0.8"/>
      </g>
     </g>
     <g id="text_24">
      <!-- 23 -->
      <g transform="translate(605.362273 473.038437) scale(0.1 -0.1)">
       <use xlink:href="#DejaVuSans-32"/>
       <use xlink:href="#DejaVuSans-33" x="63.623047"/>
      </g>
     </g>
    </g>
    <g id="xtick_25">
     <g id="line2d_49">
      <path d="M 634.505455 458.44 
L 634.505455 28.32 
" clip-path="url(#p9846e4669a)" style="fill: none; stroke-dasharray: 2.96,1.28; stroke-dashoffset: 0; stroke: #b0b0b0; stroke-opacity: 0.7; stroke-width: 0.8"/>
     </g>
     <g id="line2d_50">
      <g>
       <use xlink:href="#m5e2266a7ae" x="634.505455" y="458.44" style="stroke: #000000; stroke-width: 0.8"/>
      </g>
     </g>
     <g id="text_25">
      <!-- 24 -->
      <g transform="translate(628.142955 473.038437) scale(0.1 -0.1)">
       <use xlink:href="#DejaVuSans-32"/>
       <use xlink:href="#DejaVuSans-34" x="63.623047"/>
      </g>
     </g>
    </g>
    <g id="xtick_26">
     <g id="line2d_51">
      <path d="M 657.286136 458.44 
L 657.286136 28.32 
" clip-path="url(#p9846e4669a)" style="fill: none; stroke-dasharray: 2.96,1.28; stroke-dashoffset: 0; stroke: #b0b0b0; stroke-opacity: 0.7; stroke-width: 0.8"/>
     </g>
     <g id="line2d_52">
      <g>
       <use xlink:href="#m5e2266a7ae" x="657.286136" y="458.44" style="stroke: #000000; stroke-width: 0.8"/>
      </g>
     </g>
     <g id="text_26">
      <!-- 25 -->
      <g transform="translate(650.923636 473.038437) scale(0.1 -0.1)">
       <use xlink:href="#DejaVuSans-32"/>
       <use xlink:href="#DejaVuSans-35" x="63.623047"/>
      </g>
     </g>
    </g>
    <g id="xtick_27">
     <g id="line2d_53">
      <path d="M 680.066818 458.44 
L 680.066818 28.32 
" clip-path="url(#p9846e4669a)" style="fill: none; stroke-dasharray: 2.96,1.28; stroke-dashoffset: 0; stroke: #b0b0b0; stroke-opacity: 0.7; stroke-width: 0.8"/>
     </g>
     <g id="line2d_54">
      <g>
       <use xlink:href="#m5e2266a7ae" x="680.066818" y="458.44" style="stroke: #000000; stroke-width: 0.8"/>
      </g>
     </g>
     <g id="text_27">
      <!-- 26 -->
      <g transform="translate(673.704318 473.038437) scale(0.1 -0.1)">
       <use xlink:href="#DejaVuSans-32"/>
       <use xlink:href="#DejaVuSans-36" x="63.623047"/>
      </g>
     </g>
    </g>
    <g id="xtick_28">
     <g id="line2d_55">
      <path d="M 702.8475 458.44 
L 702.8475 28.32 
" clip-path="url(#p9846e4669a)" style="fill: none; stroke-dasharray: 2.96,1.28; stroke-dashoffset: 0; stroke: #b0b0b0; stroke-opacity: 0.7; stroke-width: 0.8"/>
     </g>
     <g id="line2d_56">
      <g>
       <use xlink:href="#m5e2266a7ae" x="702.8475" y="458.44" style="stroke: #000000; stroke-width: 0.8"/>
      </g>
     </g>
     <g id="text_28">
      <!-- 27 -->
      <g transform="translate(696.485 473.038437) scale(0.1 -0.1)">
       <use xlink:href="#DejaVuSans-32"/>
       <use xlink:href="#DejaVuSans-37" x="63.623047"/>
      </g>
     </g>
    </g>
    <g id="xtick_29">
     <g id="line2d_57">
      <path d="M 725.628182 458.44 
L 725.628182 28.32 
" clip-path="url(#p9846e4669a)" style="fill: none; stroke-dasharray: 2.96,1.28; stroke-dashoffset: 0; stroke: #b0b0b0; stroke-opacity: 0.7; stroke-width: 0.8"/>
     </g>
     <g id="line2d_58">
      <g>
       <use xlink:href="#m5e2266a7ae" x="725.628182" y="458.44" style="stroke: #000000; stroke-width: 0.8"/>
      </g>
     </g>
     <g id="text_29">
      <!-- 28 -->
      <g transform="translate(719.265682 473.038437) scale(0.1 -0.1)">
       <use xlink:href="#DejaVuSans-32"/>
       <use xlink:href="#DejaVuSans-38" x="63.623047"/>
      </g>
     </g>
    </g>
    <g id="xtick_30">
     <g id="line2d_59">
      <path d="M 748.408864 458.44 
L 748.408864 28.32 
" clip-path="url(#p9846e4669a)" style="fill: none; stroke-dasharray: 2.96,1.28; stroke-dashoffset: 0; stroke: #b0b0b0; stroke-opacity: 0.7; stroke-width: 0.8"/>
     </g>
     <g id="line2d_60">
      <g>
       <use xlink:href="#m5e2266a7ae" x="748.408864" y="458.44" style="stroke: #000000; stroke-width: 0.8"/>
      </g>
     </g>
     <g id="text_30">
      <!-- 29 -->
      <g transform="translate(742.046364 473.038437) scale(0.1 -0.1)">
       <use xlink:href="#DejaVuSans-32"/>
       <use xlink:href="#DejaVuSans-39" x="63.623047"/>
      </g>
     </g>
    </g>
    <g id="xtick_31">
     <g id="line2d_61">
      <path d="M 771.189545 458.44 
L 771.189545 28.32 
" clip-path="url(#p9846e4669a)" style="fill: none; stroke-dasharray: 2.96,1.28; stroke-dashoffset: 0; stroke: #b0b0b0; stroke-opacity: 0.7; stroke-width: 0.8"/>
     </g>
     <g id="line2d_62">
      <g>
       <use xlink:href="#m5e2266a7ae" x="771.189545" y="458.44" style="stroke: #000000; stroke-width: 0.8"/>
      </g>
     </g>
     <g id="text_31">
      <!-- 30 -->
      <g transform="translate(764.827045 473.038437) scale(0.1 -0.1)">
       <use xlink:href="#DejaVuSans-33"/>
       <use xlink:href="#DejaVuSans-30" x="63.623047"/>
      </g>
     </g>
    </g>
    <g id="xtick_32">
     <g id="line2d_63">
      <path d="M 793.970227 458.44 
L 793.970227 28.32 
" clip-path="url(#p9846e4669a)" style="fill: none; stroke-dasharray: 2.96,1.28; stroke-dashoffset: 0; stroke: #b0b0b0; stroke-opacity: 0.7; stroke-width: 0.8"/>
     </g>
     <g id="line2d_64">
      <g>
       <use xlink:href="#m5e2266a7ae" x="793.970227" y="458.44" style="stroke: #000000; stroke-width: 0.8"/>
      </g>
     </g>
     <g id="text_32">
      <!-- 31 -->
      <g transform="translate(787.607727 473.038437) scale(0.1 -0.1)">
       <use xlink:href="#DejaVuSans-33"/>
       <use xlink:href="#DejaVuSans-31" x="63.623047"/>
      </g>
     </g>
    </g>
    <g id="xtick_33">
     <g id="line2d_65">
      <path d="M 816.750909 458.44 
L 816.750909 28.32 
" clip-path="url(#p9846e4669a)" style="fill: none; stroke-dasharray: 2.96,1.28; stroke-dashoffset: 0; stroke: #b0b0b0; stroke-opacity: 0.7; stroke-width: 0.8"/>
     </g>
     <g id="line2d_66">
      <g>
       <use xlink:href="#m5e2266a7ae" x="816.750909" y="458.44" style="stroke: #000000; stroke-width: 0.8"/>
      </g>
     </g>
     <g id="text_33">
      <!-- 32 -->
      <g transform="translate(810.388409 473.038437) scale(0.1 -0.1)">
       <use xlink:href="#DejaVuSans-33"/>
       <use xlink:href="#DejaVuSans-32" x="63.623047"/>
      </g>
     </g>
    </g>
    <g id="text_34">
     <!-- Layer Index (0=Embeddings) -->
     <g transform="translate(349.886094 489.755937) scale(0.14 -0.14)">
      <defs>
       <path id="DejaVuSans-4c" d="M 628 4666 
L 1259 4666 
L 1259 531 
L 3531 531 
L 3531 0 
L 628 0 
L 628 4666 
z
" transform="scale(0.015625)"/>
       <path id="DejaVuSans-61" d="M 2194 1759 
Q 1497 1759 1228 1600 
Q 959 1441 959 1056 
Q 959 750 1161 570 
Q 1363 391 1709 391 
Q 2188 391 2477 730 
Q 2766 1069 2766 1631 
L 2766 1759 
L 2194 1759 
z
M 3341 1997 
L 3341 0 
L 2766 0 
L 2766 531 
Q 2569 213 2275 61 
Q 1981 -91 1556 -91 
Q 1019 -91 701 211 
Q 384 513 384 1019 
Q 384 1609 779 1909 
Q 1175 2209 1959 2209 
L 2766 2209 
L 2766 2266 
Q 2766 2663 2505 2880 
Q 2244 3097 1772 3097 
Q 1472 3097 1187 3025 
Q 903 2953 641 2809 
L 641 3341 
Q 956 3463 1253 3523 
Q 1550 3584 1831 3584 
Q 2591 3584 2966 3190 
Q 3341 2797 3341 1997 
z
" transform="scale(0.015625)"/>
       <path id="DejaVuSans-79" d="M 2059 -325 
Q 1816 -950 1584 -1140 
Q 1353 -1331 966 -1331 
L 506 -1331 
L 506 -850 
L 844 -850 
Q 1081 -850 1212 -737 
Q 1344 -625 1503 -206 
L 1606 56 
L 191 3500 
L 800 3500 
L 1894 763 
L 2988 3500 
L 3597 3500 
L 2059 -325 
z
" transform="scale(0.015625)"/>
       <path id="DejaVuSans-65" d="M 3597 1894 
L 3597 1613 
L 953 1613 
Q 991 1019 1311 708 
Q 1631 397 2203 397 
Q 2534 397 2845 478 
Q 3156 559 3463 722 
L 3463 178 
Q 3153 47 2828 -22 
Q 2503 -91 2169 -91 
Q 1331 -91 842 396 
Q 353 884 353 1716 
Q 353 2575 817 3079 
Q 1281 3584 2069 3584 
Q 2775 3584 3186 3129 
Q 3597 2675 3597 1894 
z
M 3022 2063 
Q 3016 2534 2758 2815 
Q 2500 3097 2075 3097 
Q 1594 3097 1305 2825 
Q 1016 2553 972 2059 
L 3022 2063 
z
" transform="scale(0.015625)"/>
       <path id="DejaVuSans-72" d="M 2631 2963 
Q 2534 3019 2420 3045 
Q 2306 3072 2169 3072 
Q 1681 3072 1420 2755 
Q 1159 2438 1159 1844 
L 1159 0 
L 581 0 
L 581 3500 
L 1159 3500 
L 1159 2956 
Q 1341 3275 1631 3429 
Q 1922 3584 2338 3584 
Q 2397 3584 2469 3576 
Q 2541 3569 2628 3553 
L 2631 2963 
z
" transform="scale(0.015625)"/>
       <path id="DejaVuSans-20" transform="scale(0.015625)"/>
       <path id="DejaVuSans-49" d="M 628 4666 
L 1259 4666 
L 1259 0 
L 628 0 
L 628 4666 
z
" transform="scale(0.015625)"/>
       <path id="DejaVuSans-6e" d="M 3513 2113 
L 3513 0 
L 2938 0 
L 2938 2094 
Q 2938 2591 2744 2837 
Q 2550 3084 2163 3084 
Q 1697 3084 1428 2787 
Q 1159 2491 1159 1978 
L 1159 0 
L 581 0 
L 581 3500 
L 1159 3500 
L 1159 2956 
Q 1366 3272 1645 3428 
Q 1925 3584 2291 3584 
Q 2894 3584 3203 3211 
Q 3513 2838 3513 2113 
z
" transform="scale(0.015625)"/>
       <path id="DejaVuSans-64" d="M 2906 2969 
L 2906 4863 
L 3481 4863 
L 3481 0 
L 2906 0 
L 2906 525 
Q 2725 213 2448 61 
Q 2172 -91 1784 -91 
Q 1150 -91 751 415 
Q 353 922 353 1747 
Q 353 2572 751 3078 
Q 1150 3584 1784 3584 
Q 2172 3584 2448 3432 
Q 2725 3281 2906 2969 
z
M 947 1747 
Q 947 1113 1208 752 
Q 1469 391 1925 391 
Q 2381 391 2643 752 
Q 2906 1113 2906 1747 
Q 2906 2381 2643 2742 
Q 2381 3103 1925 3103 
Q 1469 3103 1208 2742 
Q 947 2381 947 1747 
z
" transform="scale(0.015625)"/>
       <path id="DejaVuSans-78" d="M 3513 3500 
L 2247 1797 
L 3578 0 
L 2900 0 
L 1881 1375 
L 863 0 
L 184 0 
L 1544 1831 
L 300 3500 
L 978 3500 
L 1906 2253 
L 2834 3500 
L 3513 3500 
z
" transform="scale(0.015625)"/>
       <path id="DejaVuSans-28" d="M 1984 4856 
Q 1566 4138 1362 3434 
Q 1159 2731 1159 2009 
Q 1159 1288 1364 580 
Q 1569 -128 1984 -844 
L 1484 -844 
Q 1016 -109 783 600 
Q 550 1309 550 2009 
Q 550 2706 781 3412 
Q 1013 4119 1484 4856 
L 1984 4856 
z
" transform="scale(0.015625)"/>
       <path id="DejaVuSans-3d" d="M 678 2906 
L 4684 2906 
L 4684 2381 
L 678 2381 
L 678 2906 
z
M 678 1631 
L 4684 1631 
L 4684 1100 
L 678 1100 
L 678 1631 
z
" transform="scale(0.015625)"/>
       <path id="DejaVuSans-45" d="M 628 4666 
L 3578 4666 
L 3578 4134 
L 1259 4134 
L 1259 2753 
L 3481 2753 
L 3481 2222 
L 1259 2222 
L 1259 531 
L 3634 531 
L 3634 0 
L 628 0 
L 628 4666 
z
" transform="scale(0.015625)"/>
       <path id="DejaVuSans-6d" d="M 3328 2828 
Q 3544 3216 3844 3400 
Q 4144 3584 4550 3584 
Q 5097 3584 5394 3201 
Q 5691 2819 5691 2113 
L 5691 0 
L 5113 0 
L 5113 2094 
Q 5113 2597 4934 2840 
Q 4756 3084 4391 3084 
Q 3944 3084 3684 2787 
Q 3425 2491 3425 1978 
L 3425 0 
L 2847 0 
L 2847 2094 
Q 2847 2600 2669 2842 
Q 2491 3084 2119 3084 
Q 1678 3084 1418 2786 
Q 1159 2488 1159 1978 
L 1159 0 
L 581 0 
L 581 3500 
L 1159 3500 
L 1159 2956 
Q 1356 3278 1631 3431 
Q 1906 3584 2284 3584 
Q 2666 3584 2933 3390 
Q 3200 3197 3328 2828 
z
" transform="scale(0.015625)"/>
       <path id="DejaVuSans-62" d="M 3116 1747 
Q 3116 2381 2855 2742 
Q 2594 3103 2138 3103 
Q 1681 3103 1420 2742 
Q 1159 2381 1159 1747 
Q 1159 1113 1420 752 
Q 1681 391 2138 391 
Q 2594 391 2855 752 
Q 3116 1113 3116 1747 
z
M 1159 2969 
Q 1341 3281 1617 3432 
Q 1894 3584 2278 3584 
Q 2916 3584 3314 3078 
Q 3713 2572 3713 1747 
Q 3713 922 3314 415 
Q 2916 -91 2278 -91 
Q 1894 -91 1617 61 
Q 1341 213 1159 525 
L 1159 0 
L 581 0 
L 581 4863 
L 1159 4863 
L 1159 2969 
z
" transform="scale(0.015625)"/>
       <path id="DejaVuSans-69" d="M 603 3500 
L 1178 3500 
L 1178 0 
L 603 0 
L 603 3500 
z
M 603 4863 
L 1178 4863 
L 1178 4134 
L 603 4134 
L 603 4863 
z
" transform="scale(0.015625)"/>
       <path id="DejaVuSans-67" d="M 2906 1791 
Q 2906 2416 2648 2759 
Q 2391 3103 1925 3103 
Q 1463 3103 1205 2759 
Q 947 2416 947 1791 
Q 947 1169 1205 825 
Q 1463 481 1925 481 
Q 2391 481 2648 825 
Q 2906 1169 2906 1791 
z
M 3481 434 
Q 3481 -459 3084 -895 
Q 2688 -1331 1869 -1331 
Q 1566 -1331 1297 -1286 
Q 1028 -1241 775 -1147 
L 775 -588 
Q 1028 -725 1275 -790 
Q 1522 -856 1778 -856 
Q 2344 -856 2625 -561 
Q 2906 -266 2906 331 
L 2906 616 
Q 2728 306 2450 153 
Q 2172 0 1784 0 
Q 1141 0 747 490 
Q 353 981 353 1791 
Q 353 2603 747 3093 
Q 1141 3584 1784 3584 
Q 2172 3584 2450 3431 
Q 2728 3278 2906 2969 
L 2906 3500 
L 3481 3500 
L 3481 434 
z
" transform="scale(0.015625)"/>
       <path id="DejaVuSans-73" d="M 2834 3397 
L 2834 2853 
Q 2591 2978 2328 3040 
Q 2066 3103 1784 3103 
Q 1356 3103 1142 2972 
Q 928 2841 928 2578 
Q 928 2378 1081 2264 
Q 1234 2150 1697 2047 
L 1894 2003 
Q 2506 1872 2764 1633 
Q 3022 1394 3022 966 
Q 3022 478 2636 193 
Q 2250 -91 1575 -91 
Q 1294 -91 989 -36 
Q 684 19 347 128 
L 347 722 
Q 666 556 975 473 
Q 1284 391 1588 391 
Q 1994 391 2212 530 
Q 2431 669 2431 922 
Q 2431 1156 2273 1281 
Q 2116 1406 1581 1522 
L 1381 1569 
Q 847 1681 609 1914 
Q 372 2147 372 2553 
Q 372 3047 722 3315 
Q 1072 3584 1716 3584 
Q 2034 3584 2315 3537 
Q 2597 3491 2834 3397 
z
" transform="scale(0.015625)"/>
       <path id="DejaVuSans-29" d="M 513 4856 
L 1013 4856 
Q 1481 4119 1714 3412 
Q 1947 2706 1947 2009 
Q 1947 1309 1714 600 
Q 1481 -109 1013 -844 
L 513 -844 
Q 928 -128 1133 580 
Q 1338 1288 1338 2009 
Q 1338 2731 1133 3434 
Q 928 4138 513 4856 
z
" transform="scale(0.015625)"/>
      </defs>
      <use xlink:href="#DejaVuSans-4c"/>
      <use xlink:href="#DejaVuSans-61" x="55.712891"/>
      <use xlink:href="#DejaVuSans-79" x="116.992188"/>
      <use xlink:href="#DejaVuSans-65" x="176.171875"/>
      <use xlink:href="#DejaVuSans-72" x="237.695312"/>
      <use xlink:href="#DejaVuSans-20" x="278.808594"/>
      <use xlink:href="#DejaVuSans-49" x="310.595703"/>
      <use xlink:href="#DejaVuSans-6e" x="340.087891"/>
      <use xlink:href="#DejaVuSans-64" x="403.466797"/>
      <use xlink:href="#DejaVuSans-65" x="466.943359"/>
      <use xlink:href="#DejaVuSans-78" x="526.716797"/>
      <use xlink:href="#DejaVuSans-20" x="585.896484"/>
      <use xlink:href="#DejaVuSans-28" x="617.683594"/>
      <use xlink:href="#DejaVuSans-30" x="656.697266"/>
      <use xlink:href="#DejaVuSans-3d" x="720.320312"/>
      <use xlink:href="#DejaVuSans-45" x="804.109375"/>
      <use xlink:href="#DejaVuSans-6d" x="867.292969"/>
      <use xlink:href="#DejaVuSans-62" x="964.705078"/>
      <use xlink:href="#DejaVuSans-65" x="1028.181641"/>
      <use xlink:href="#DejaVuSans-64" x="1089.705078"/>
      <use xlink:href="#DejaVuSans-64" x="1153.181641"/>
      <use xlink:href="#DejaVuSans-69" x="1216.658203"/>
      <use xlink:href="#DejaVuSans-6e" x="1244.441406"/>
      <use xlink:href="#DejaVuSans-67" x="1307.820312"/>
      <use xlink:href="#DejaVuSans-73" x="1371.296875"/>
      <use xlink:href="#DejaVuSans-29" x="1423.396484"/>
     </g>
    </g>
   </g>
   <g id="matplotlib.axis_2">
    <g id="ytick_1">
     <g id="line2d_67">
      <path d="M 51.32 458.44 
L 853.2 458.44 
" clip-path="url(#p9846e4669a)" style="fill: none; stroke-dasharray: 2.96,1.28; stroke-dashoffset: 0; stroke: #b0b0b0; stroke-opacity: 0.7; stroke-width: 0.8"/>
     </g>
     <g id="line2d_68">
      <defs>
       <path id="mef75e02d13" d="M 0 0 
L -3.5 0 
" style="stroke: #000000; stroke-width: 0.8"/>
      </defs>
      <g>
       <use xlink:href="#mef75e02d13" x="51.32" y="458.44" style="stroke: #000000; stroke-width: 0.8"/>
      </g>
     </g>
     <g id="text_35">
      <!-- 0.0 -->
      <g transform="translate(28.416875 462.239219) scale(0.1 -0.1)">
       <defs>
        <path id="DejaVuSans-2e" d="M 684 794 
L 1344 794 
L 1344 0 
L 684 0 
L 684 794 
z
" transform="scale(0.015625)"/>
       </defs>
       <use xlink:href="#DejaVuSans-30"/>
       <use xlink:href="#DejaVuSans-2e" x="63.623047"/>
       <use xlink:href="#DejaVuSans-30" x="95.410156"/>
      </g>
     </g>
    </g>
    <g id="ytick_2">
     <g id="line2d_69">
      <path d="M 51.32 376.512381 
L 853.2 376.512381 
" clip-path="url(#p9846e4669a)" style="fill: none; stroke-dasharray: 2.96,1.28; stroke-dashoffset: 0; stroke: #b0b0b0; stroke-opacity: 0.7; stroke-width: 0.8"/>
     </g>
     <g id="line2d_70">
      <g>
       <use xlink:href="#mef75e02d13" x="51.32" y="376.512381" style="stroke: #000000; stroke-width: 0.8"/>
      </g>
     </g>
     <g id="text_36">
      <!-- 0.2 -->
      <g transform="translate(28.416875 380.3116) scale(0.1 -0.1)">
       <use xlink:href="#DejaVuSans-30"/>
       <use xlink:href="#DejaVuSans-2e" x="63.623047"/>
       <use xlink:href="#DejaVuSans-32" x="95.410156"/>
      </g>
     </g>
    </g>
    <g id="ytick_3">
     <g id="line2d_71">
      <path d="M 51.32 294.584762 
L 853.2 294.584762 
" clip-path="url(#p9846e4669a)" style="fill: none; stroke-dasharray: 2.96,1.28; stroke-dashoffset: 0; stroke: #b0b0b0; stroke-opacity: 0.7; stroke-width: 0.8"/>
     </g>
     <g id="line2d_72">
      <g>
       <use xlink:href="#mef75e02d13" x="51.32" y="294.584762" style="stroke: #000000; stroke-width: 0.8"/>
      </g>
     </g>
     <g id="text_37">
      <!-- 0.4 -->
      <g transform="translate(28.416875 298.383981) scale(0.1 -0.1)">
       <use xlink:href="#DejaVuSans-30"/>
       <use xlink:href="#DejaVuSans-2e" x="63.623047"/>
       <use xlink:href="#DejaVuSans-34" x="95.410156"/>
      </g>
     </g>
    </g>
    <g id="ytick_4">
     <g id="line2d_73">
      <path d="M 51.32 212.657143 
L 853.2 212.657143 
" clip-path="url(#p9846e4669a)" style="fill: none; stroke-dasharray: 2.96,1.28; stroke-dashoffset: 0; stroke: #b0b0b0; stroke-opacity: 0.7; stroke-width: 0.8"/>
     </g>
     <g id="line2d_74">
      <g>
       <use xlink:href="#mef75e02d13" x="51.32" y="212.657143" style="stroke: #000000; stroke-width: 0.8"/>
      </g>
     </g>
     <g id="text_38">
      <!-- 0.6 -->
      <g transform="translate(28.416875 216.456362) scale(0.1 -0.1)">
       <use xlink:href="#DejaVuSans-30"/>
       <use xlink:href="#DejaVuSans-2e" x="63.623047"/>
       <use xlink:href="#DejaVuSans-36" x="95.410156"/>
      </g>
     </g>
    </g>
    <g id="ytick_5">
     <g id="line2d_75">
      <path d="M 51.32 130.729524 
L 853.2 130.729524 
" clip-path="url(#p9846e4669a)" style="fill: none; stroke-dasharray: 2.96,1.28; stroke-dashoffset: 0; stroke: #b0b0b0; stroke-opacity: 0.7; stroke-width: 0.8"/>
     </g>
     <g id="line2d_76">
      <g>
       <use xlink:href="#mef75e02d13" x="51.32" y="130.729524" style="stroke: #000000; stroke-width: 0.8"/>
      </g>
     </g>
     <g id="text_39">
      <!-- 0.8 -->
      <g transform="translate(28.416875 134.528743) scale(0.1 -0.1)">
       <use xlink:href="#DejaVuSans-30"/>
       <use xlink:href="#DejaVuSans-2e" x="63.623047"/>
       <use xlink:href="#DejaVuSans-38" x="95.410156"/>
      </g>
     </g>
    </g>
    <g id="ytick_6">
     <g id="line2d_77">
      <path d="M 51.32 48.801905 
L 853.2 48.801905 
" clip-path="url(#p9846e4669a)" style="fill: none; stroke-dasharray: 2.96,1.28; stroke-dashoffset: 0; stroke: #b0b0b0; stroke-opacity: 0.7; stroke-width: 0.8"/>
     </g>
     <g id="line2d_78">
      <g>
       <use xlink:href="#mef75e02d13" x="51.32" y="48.801905" style="stroke: #000000; stroke-width: 0.8"/>
      </g>
     </g>
     <g id="text_40">
      <!-- 1.0 -->
      <g transform="translate(28.416875 52.601124) scale(0.1 -0.1)">
       <use xlink:href="#DejaVuSans-31"/>
       <use xlink:href="#DejaVuSans-2e" x="63.623047"/>
       <use xlink:href="#DejaVuSans-30" x="95.410156"/>
      </g>
     </g>
    </g>
    <g id="text_41">
     <!-- Average Digit Prediction Accuracy -->
     <g transform="translate(21.505313 361.998281) rotate(-90) scale(0.14 -0.14)">
      <defs>
       <path id="DejaVuSans-41" d="M 2188 4044 
L 1331 1722 
L 3047 1722 
L 2188 4044 
z
M 1831 4666 
L 2547 4666 
L 4325 0 
L 3669 0 
L 3244 1197 
L 1141 1197 
L 716 0 
L 50 0 
L 1831 4666 
z
" transform="scale(0.015625)"/>
       <path id="DejaVuSans-76" d="M 191 3500 
L 800 3500 
L 1894 563 
L 2988 3500 
L 3597 3500 
L 2284 0 
L 1503 0 
L 191 3500 
z
" transform="scale(0.015625)"/>
       <path id="DejaVuSans-44" d="M 1259 4147 
L 1259 519 
L 2022 519 
Q 2988 519 3436 956 
Q 3884 1394 3884 2338 
Q 3884 3275 3436 3711 
Q 2988 4147 2022 4147 
L 1259 4147 
z
M 628 4666 
L 1925 4666 
Q 3281 4666 3915 4102 
Q 4550 3538 4550 2338 
Q 4550 1131 3912 565 
Q 3275 0 1925 0 
L 628 0 
L 628 4666 
z
" transform="scale(0.015625)"/>
       <path id="DejaVuSans-74" d="M 1172 4494 
L 1172 3500 
L 2356 3500 
L 2356 3053 
L 1172 3053 
L 1172 1153 
Q 1172 725 1289 603 
Q 1406 481 1766 481 
L 2356 481 
L 2356 0 
L 1766 0 
Q 1100 0 847 248 
Q 594 497 594 1153 
L 594 3053 
L 172 3053 
L 172 3500 
L 594 3500 
L 594 4494 
L 1172 4494 
z
" transform="scale(0.015625)"/>
       <path id="DejaVuSans-50" d="M 1259 4147 
L 1259 2394 
L 2053 2394 
Q 2494 2394 2734 2622 
Q 2975 2850 2975 3272 
Q 2975 3691 2734 3919 
Q 2494 4147 2053 4147 
L 1259 4147 
z
M 628 4666 
L 2053 4666 
Q 2838 4666 3239 4311 
Q 3641 3956 3641 3272 
Q 3641 2581 3239 2228 
Q 2838 1875 2053 1875 
L 1259 1875 
L 1259 0 
L 628 0 
L 628 4666 
z
" transform="scale(0.015625)"/>
       <path id="DejaVuSans-63" d="M 3122 3366 
L 3122 2828 
Q 2878 2963 2633 3030 
Q 2388 3097 2138 3097 
Q 1578 3097 1268 2742 
Q 959 2388 959 1747 
Q 959 1106 1268 751 
Q 1578 397 2138 397 
Q 2388 397 2633 464 
Q 2878 531 3122 666 
L 3122 134 
Q 2881 22 2623 -34 
Q 2366 -91 2075 -91 
Q 1284 -91 818 406 
Q 353 903 353 1747 
Q 353 2603 823 3093 
Q 1294 3584 2113 3584 
Q 2378 3584 2631 3529 
Q 2884 3475 3122 3366 
z
" transform="scale(0.015625)"/>
       <path id="DejaVuSans-6f" d="M 1959 3097 
Q 1497 3097 1228 2736 
Q 959 2375 959 1747 
Q 959 1119 1226 758 
Q 1494 397 1959 397 
Q 2419 397 2687 759 
Q 2956 1122 2956 1747 
Q 2956 2369 2687 2733 
Q 2419 3097 1959 3097 
z
M 1959 3584 
Q 2709 3584 3137 3096 
Q 3566 2609 3566 1747 
Q 3566 888 3137 398 
Q 2709 -91 1959 -91 
Q 1206 -91 779 398 
Q 353 888 353 1747 
Q 353 2609 779 3096 
Q 1206 3584 1959 3584 
z
" transform="scale(0.015625)"/>
       <path id="DejaVuSans-75" d="M 544 1381 
L 544 3500 
L 1119 3500 
L 1119 1403 
Q 1119 906 1312 657 
Q 1506 409 1894 409 
Q 2359 409 2629 706 
Q 2900 1003 2900 1516 
L 2900 3500 
L 3475 3500 
L 3475 0 
L 2900 0 
L 2900 538 
Q 2691 219 2414 64 
Q 2138 -91 1772 -91 
Q 1169 -91 856 284 
Q 544 659 544 1381 
z
M 1991 3584 
L 1991 3584 
z
" transform="scale(0.015625)"/>
      </defs>
      <use xlink:href="#DejaVuSans-41"/>
      <use xlink:href="#DejaVuSans-76" x="62.533203"/>
      <use xlink:href="#DejaVuSans-65" x="121.712891"/>
      <use xlink:href="#DejaVuSans-72" x="183.236328"/>
      <use xlink:href="#DejaVuSans-61" x="224.349609"/>
      <use xlink:href="#DejaVuSans-67" x="285.628906"/>
      <use xlink:href="#DejaVuSans-65" x="349.105469"/>
      <use xlink:href="#DejaVuSans-20" x="410.628906"/>
      <use xlink:href="#DejaVuSans-44" x="442.416016"/>
      <use xlink:href="#DejaVuSans-69" x="519.417969"/>
      <use xlink:href="#DejaVuSans-67" x="547.201172"/>
      <use xlink:href="#DejaVuSans-69" x="610.677734"/>
      <use xlink:href="#DejaVuSans-74" x="638.460938"/>
      <use xlink:href="#DejaVuSans-20" x="677.669922"/>
      <use xlink:href="#DejaVuSans-50" x="709.457031"/>
      <use xlink:href="#DejaVuSans-72" x="768.009766"/>
      <use xlink:href="#DejaVuSans-65" x="806.873047"/>
      <use xlink:href="#DejaVuSans-64" x="868.396484"/>
      <use xlink:href="#DejaVuSans-69" x="931.873047"/>
      <use xlink:href="#DejaVuSans-63" x="959.65625"/>
      <use xlink:href="#DejaVuSans-74" x="1014.636719"/>
      <use xlink:href="#DejaVuSans-69" x="1053.845703"/>
      <use xlink:href="#DejaVuSans-6f" x="1081.628906"/>
      <use xlink:href="#DejaVuSans-6e" x="1142.810547"/>
      <use xlink:href="#DejaVuSans-20" x="1206.189453"/>
      <use xlink:href="#DejaVuSans-41" x="1237.976562"/>
      <use xlink:href="#DejaVuSans-63" x="1304.634766"/>
      <use xlink:href="#DejaVuSans-63" x="1359.615234"/>
      <use xlink:href="#DejaVuSans-75" x="1414.595703"/>
      <use xlink:href="#DejaVuSans-72" x="1477.974609"/>
      <use xlink:href="#DejaVuSans-61" x="1519.087891"/>
      <use xlink:href="#DejaVuSans-63" x="1580.367188"/>
      <use xlink:href="#DejaVuSans-79" x="1635.347656"/>
     </g>
    </g>
   </g>
   <g id="line2d_79">
    <path d="M 87.769091 362.584686 
L 110.549773 362.584686 
L 133.330455 362.584686 
L 156.111136 362.584686 
L 178.891818 362.584686 
L 201.6725 362.584686 
L 224.453182 362.584686 
L 247.233864 364.223238 
L 270.014545 362.584686 
L 292.795227 362.584686 
L 315.575909 360.126857 
L 338.356591 359.307581 
L 361.137273 362.584686 
L 383.917955 356.849752 
L 406.698636 362.584686 
L 429.479318 347.018438 
L 452.26 338.0064 
L 475.040682 274.102857 
L 497.821364 238.054705 
L 520.602045 107.78979 
L 543.382727 87.307886 
L 566.163409 71.741638 
L 588.944091 75.018743 
L 611.724773 74.199467 
L 634.505455 73.38019 
L 657.286136 66.825981 
L 680.066818 61.910324 
L 702.8475 61.910324 
L 725.628182 54.536838 
L 748.408864 56.994667 
L 771.189545 52.898286 
L 793.970227 52.898286 
L 816.750909 55.356114 
" clip-path="url(#p9846e4669a)" style="fill: none; stroke: #1f77b4; stroke-width: 2.5; stroke-linecap: square"/>
    <defs>
     <path id="m3ac01f76a2" d="M 0 3 
C 0.795609 3 1.55874 2.683901 2.12132 2.12132 
C 2.683901 1.55874 3 0.795609 3 0 
C 3 -0.795609 2.683901 -1.55874 2.12132 -2.12132 
C 1.55874 -2.683901 0.795609 -3 0 -3 
C -0.795609 -3 -1.55874 -2.683901 -2.12132 -2.12132 
C -2.683901 -1.55874 -3 -0.795609 -3 0 
C -3 0.795609 -2.683901 1.55874 -2.12132 2.12132 
C -1.55874 2.683901 -0.795609 3 0 3 
z
" style="stroke: #1f77b4"/>
    </defs>
    <g clip-path="url(#p9846e4669a)">
     <use xlink:href="#m3ac01f76a2" x="87.769091" y="362.584686" style="fill: #1f77b4; stroke: #1f77b4"/>
     <use xlink:href="#m3ac01f76a2" x="110.549773" y="362.584686" style="fill: #1f77b4; stroke: #1f77b4"/>
     <use xlink:href="#m3ac01f76a2" x="133.330455" y="362.584686" style="fill: #1f77b4; stroke: #1f77b4"/>
     <use xlink:href="#m3ac01f76a2" x="156.111136" y="362.584686" style="fill: #1f77b4; stroke: #1f77b4"/>
     <use xlink:href="#m3ac01f76a2" x="178.891818" y="362.584686" style="fill: #1f77b4; stroke: #1f77b4"/>
     <use xlink:href="#m3ac01f76a2" x="201.6725" y="362.584686" style="fill: #1f77b4; stroke: #1f77b4"/>
     <use xlink:href="#m3ac01f76a2" x="224.453182" y="362.584686" style="fill: #1f77b4; stroke: #1f77b4"/>
     <use xlink:href="#m3ac01f76a2" x="247.233864" y="364.223238" style="fill: #1f77b4; stroke: #1f77b4"/>
     <use xlink:href="#m3ac01f76a2" x="270.014545" y="362.584686" style="fill: #1f77b4; stroke: #1f77b4"/>
     <use xlink:href="#m3ac01f76a2" x="292.795227" y="362.584686" style="fill: #1f77b4; stroke: #1f77b4"/>
     <use xlink:href="#m3ac01f76a2" x="315.575909" y="360.126857" style="fill: #1f77b4; stroke: #1f77b4"/>
     <use xlink:href="#m3ac01f76a2" x="338.356591" y="359.307581" style="fill: #1f77b4; stroke: #1f77b4"/>
     <use xlink:href="#m3ac01f76a2" x="361.137273" y="362.584686" style="fill: #1f77b4; stroke: #1f77b4"/>
     <use xlink:href="#m3ac01f76a2" x="383.917955" y="356.849752" style="fill: #1f77b4; stroke: #1f77b4"/>
     <use xlink:href="#m3ac01f76a2" x="406.698636" y="362.584686" style="fill: #1f77b4; stroke: #1f77b4"/>
     <use xlink:href="#m3ac01f76a2" x="429.479318" y="347.018438" style="fill: #1f77b4; stroke: #1f77b4"/>
     <use xlink:href="#m3ac01f76a2" x="452.26" y="338.0064" style="fill: #1f77b4; stroke: #1f77b4"/>
     <use xlink:href="#m3ac01f76a2" x="475.040682" y="274.102857" style="fill: #1f77b4; stroke: #1f77b4"/>
     <use xlink:href="#m3ac01f76a2" x="497.821364" y="238.054705" style="fill: #1f77b4; stroke: #1f77b4"/>
     <use xlink:href="#m3ac01f76a2" x="520.602045" y="107.78979" style="fill: #1f77b4; stroke: #1f77b4"/>
     <use xlink:href="#m3ac01f76a2" x="543.382727" y="87.307886" style="fill: #1f77b4; stroke: #1f77b4"/>
     <use xlink:href="#m3ac01f76a2" x="566.163409" y="71.741638" style="fill: #1f77b4; stroke: #1f77b4"/>
     <use xlink:href="#m3ac01f76a2" x="588.944091" y="75.018743" style="fill: #1f77b4; stroke: #1f77b4"/>
     <use xlink:href="#m3ac01f76a2" x="611.724773" y="74.199467" style="fill: #1f77b4; stroke: #1f77b4"/>
     <use xlink:href="#m3ac01f76a2" x="634.505455" y="73.38019" style="fill: #1f77b4; stroke: #1f77b4"/>
     <use xlink:href="#m3ac01f76a2" x="657.286136" y="66.825981" style="fill: #1f77b4; stroke: #1f77b4"/>
     <use xlink:href="#m3ac01f76a2" x="680.066818" y="61.910324" style="fill: #1f77b4; stroke: #1f77b4"/>
     <use xlink:href="#m3ac01f76a2" x="702.8475" y="61.910324" style="fill: #1f77b4; stroke: #1f77b4"/>
     <use xlink:href="#m3ac01f76a2" x="725.628182" y="54.536838" style="fill: #1f77b4; stroke: #1f77b4"/>
     <use xlink:href="#m3ac01f76a2" x="748.408864" y="56.994667" style="fill: #1f77b4; stroke: #1f77b4"/>
     <use xlink:href="#m3ac01f76a2" x="771.189545" y="52.898286" style="fill: #1f77b4; stroke: #1f77b4"/>
     <use xlink:href="#m3ac01f76a2" x="793.970227" y="52.898286" style="fill: #1f77b4; stroke: #1f77b4"/>
     <use xlink:href="#m3ac01f76a2" x="816.750909" y="55.356114" style="fill: #1f77b4; stroke: #1f77b4"/>
    </g>
   </g>
   <g id="line2d_80">
    <path d="M 87.769091 405.187048 
L 110.549773 406.8256 
L 133.330455 406.8256 
L 156.111136 402.729219 
L 178.891818 401.909943 
L 201.6725 411.741257 
L 224.453182 406.006324 
L 247.233864 410.921981 
L 270.014545 407.644876 
L 292.795227 412.560533 
L 315.575909 410.921981 
L 338.356591 409.283429 
L 361.137273 405.187048 
L 383.917955 410.921981 
L 406.698636 411.741257 
L 429.479318 406.8256 
L 452.26 409.283429 
L 475.040682 335.548571 
L 497.821364 292.94621 
L 520.602045 147.115048 
L 543.382727 127.452419 
L 566.163409 67.645257 
L 588.944091 66.006705 
L 611.724773 63.548876 
L 634.505455 59.452495 
L 657.286136 60.271771 
L 680.066818 53.717562 
L 702.8475 52.898286 
L 725.628182 49.621181 
L 748.408864 49.621181 
L 771.189545 49.621181 
L 793.970227 49.621181 
L 816.750909 48.801905 
" clip-path="url(#p9846e4669a)" style="fill: none; stroke: #ff7f0e; stroke-width: 2.5; stroke-linecap: square"/>
    <defs>
     <path id="m23dc5b1444" d="M 0 3 
C 0.795609 3 1.55874 2.683901 2.12132 2.12132 
C 2.683901 1.55874 3 0.795609 3 0 
C 3 -0.795609 2.683901 -1.55874 2.12132 -2.12132 
C 1.55874 -2.683901 0.795609 -3 0 -3 
C -0.795609 -3 -1.55874 -2.683901 -2.12132 -2.12132 
C -2.683901 -1.55874 -3 -0.795609 -3 0 
C -3 0.795609 -2.683901 1.55874 -2.12132 2.12132 
C -1.55874 2.683901 -0.795609 3 0 3 
z
" style="stroke: #ff7f0e"/>
    </defs>
    <g clip-path="url(#p9846e4669a)">
     <use xlink:href="#m23dc5b1444" x="87.769091" y="405.187048" style="fill: #ff7f0e; stroke: #ff7f0e"/>
     <use xlink:href="#m23dc5b1444" x="110.549773" y="406.8256" style="fill: #ff7f0e; stroke: #ff7f0e"/>
     <use xlink:href="#m23dc5b1444" x="133.330455" y="406.8256" style="fill: #ff7f0e; stroke: #ff7f0e"/>
     <use xlink:href="#m23dc5b1444" x="156.111136" y="402.729219" style="fill: #ff7f0e; stroke: #ff7f0e"/>
     <use xlink:href="#m23dc5b1444" x="178.891818" y="401.909943" style="fill: #ff7f0e; stroke: #ff7f0e"/>
     <use xlink:href="#m23dc5b1444" x="201.6725" y="411.741257" style="fill: #ff7f0e; stroke: #ff7f0e"/>
     <use xlink:href="#m23dc5b1444" x="224.453182" y="406.006324" style="fill: #ff7f0e; stroke: #ff7f0e"/>
     <use xlink:href="#m23dc5b1444" x="247.233864" y="410.921981" style="fill: #ff7f0e; stroke: #ff7f0e"/>
     <use xlink:href="#m23dc5b1444" x="270.014545" y="407.644876" style="fill: #ff7f0e; stroke: #ff7f0e"/>
     <use xlink:href="#m23dc5b1444" x="292.795227" y="412.560533" style="fill: #ff7f0e; stroke: #ff7f0e"/>
     <use xlink:href="#m23dc5b1444" x="315.575909" y="410.921981" style="fill: #ff7f0e; stroke: #ff7f0e"/>
     <use xlink:href="#m23dc5b1444" x="338.356591" y="409.283429" style="fill: #ff7f0e; stroke: #ff7f0e"/>
     <use xlink:href="#m23dc5b1444" x="361.137273" y="405.187048" style="fill: #ff7f0e; stroke: #ff7f0e"/>
     <use xlink:href="#m23dc5b1444" x="383.917955" y="410.921981" style="fill: #ff7f0e; stroke: #ff7f0e"/>
     <use xlink:href="#m23dc5b1444" x="406.698636" y="411.741257" style="fill: #ff7f0e; stroke: #ff7f0e"/>
     <use xlink:href="#m23dc5b1444" x="429.479318" y="406.8256" style="fill: #ff7f0e; stroke: #ff7f0e"/>
     <use xlink:href="#m23dc5b1444" x="452.26" y="409.283429" style="fill: #ff7f0e; stroke: #ff7f0e"/>
     <use xlink:href="#m23dc5b1444" x="475.040682" y="335.548571" style="fill: #ff7f0e; stroke: #ff7f0e"/>
     <use xlink:href="#m23dc5b1444" x="497.821364" y="292.94621" style="fill: #ff7f0e; stroke: #ff7f0e"/>
     <use xlink:href="#m23dc5b1444" x="520.602045" y="147.115048" style="fill: #ff7f0e; stroke: #ff7f0e"/>
     <use xlink:href="#m23dc5b1444" x="543.382727" y="127.452419" style="fill: #ff7f0e; stroke: #ff7f0e"/>
     <use xlink:href="#m23dc5b1444" x="566.163409" y="67.645257" style="fill: #ff7f0e; stroke: #ff7f0e"/>
     <use xlink:href="#m23dc5b1444" x="588.944091" y="66.006705" style="fill: #ff7f0e; stroke: #ff7f0e"/>
     <use xlink:href="#m23dc5b1444" x="611.724773" y="63.548876" style="fill: #ff7f0e; stroke: #ff7f0e"/>
     <use xlink:href="#m23dc5b1444" x="634.505455" y="59.452495" style="fill: #ff7f0e; stroke: #ff7f0e"/>
     <use xlink:href="#m23dc5b1444" x="657.286136" y="60.271771" style="fill: #ff7f0e; stroke: #ff7f0e"/>
     <use xlink:href="#m23dc5b1444" x="680.066818" y="53.717562" style="fill: #ff7f0e; stroke: #ff7f0e"/>
     <use xlink:href="#m23dc5b1444" x="702.8475" y="52.898286" style="fill: #ff7f0e; stroke: #ff7f0e"/>
     <use xlink:href="#m23dc5b1444" x="725.628182" y="49.621181" style="fill: #ff7f0e; stroke: #ff7f0e"/>
     <use xlink:href="#m23dc5b1444" x="748.408864" y="49.621181" style="fill: #ff7f0e; stroke: #ff7f0e"/>
     <use xlink:href="#m23dc5b1444" x="771.189545" y="49.621181" style="fill: #ff7f0e; stroke: #ff7f0e"/>
     <use xlink:href="#m23dc5b1444" x="793.970227" y="49.621181" style="fill: #ff7f0e; stroke: #ff7f0e"/>
     <use xlink:href="#m23dc5b1444" x="816.750909" y="48.801905" style="fill: #ff7f0e; stroke: #ff7f0e"/>
    </g>
   </g>
   <g id="line2d_81">
    <path d="M 87.769091 424.0304 
L 110.549773 424.0304 
L 133.330455 425.668952 
L 156.111136 427.307505 
L 178.891818 413.37981 
L 201.6725 417.47619 
L 224.453182 421.572571 
L 247.233864 410.102705 
L 270.014545 410.102705 
L 292.795227 415.837638 
L 315.575909 403.548495 
L 338.356591 401.909943 
L 361.137273 414.199086 
L 383.917955 412.560533 
L 406.698636 405.187048 
L 429.479318 419.934019 
L 452.26 414.199086 
L 475.040682 357.669029 
L 497.821364 204.464381 
L 520.602045 48.801905 
L 543.382727 48.801905 
L 566.163409 48.801905 
L 588.944091 48.801905 
L 611.724773 48.801905 
L 634.505455 48.801905 
L 657.286136 48.801905 
L 680.066818 48.801905 
L 702.8475 48.801905 
L 725.628182 48.801905 
L 748.408864 48.801905 
L 771.189545 48.801905 
L 793.970227 48.801905 
L 816.750909 48.801905 
" clip-path="url(#p9846e4669a)" style="fill: none; stroke: #2ca02c; stroke-width: 2.5; stroke-linecap: square"/>
    <defs>
     <path id="m5e89577324" d="M 0 3 
C 0.795609 3 1.55874 2.683901 2.12132 2.12132 
C 2.683901 1.55874 3 0.795609 3 0 
C 3 -0.795609 2.683901 -1.55874 2.12132 -2.12132 
C 1.55874 -2.683901 0.795609 -3 0 -3 
C -0.795609 -3 -1.55874 -2.683901 -2.12132 -2.12132 
C -2.683901 -1.55874 -3 -0.795609 -3 0 
C -3 0.795609 -2.683901 1.55874 -2.12132 2.12132 
C -1.55874 2.683901 -0.795609 3 0 3 
z
" style="stroke: #2ca02c"/>
    </defs>
    <g clip-path="url(#p9846e4669a)">
     <use xlink:href="#m5e89577324" x="87.769091" y="424.0304" style="fill: #2ca02c; stroke: #2ca02c"/>
     <use xlink:href="#m5e89577324" x="110.549773" y="424.0304" style="fill: #2ca02c; stroke: #2ca02c"/>
     <use xlink:href="#m5e89577324" x="133.330455" y="425.668952" style="fill: #2ca02c; stroke: #2ca02c"/>
     <use xlink:href="#m5e89577324" x="156.111136" y="427.307505" style="fill: #2ca02c; stroke: #2ca02c"/>
     <use xlink:href="#m5e89577324" x="178.891818" y="413.37981" style="fill: #2ca02c; stroke: #2ca02c"/>
     <use xlink:href="#m5e89577324" x="201.6725" y="417.47619" style="fill: #2ca02c; stroke: #2ca02c"/>
     <use xlink:href="#m5e89577324" x="224.453182" y="421.572571" style="fill: #2ca02c; stroke: #2ca02c"/>
     <use xlink:href="#m5e89577324" x="247.233864" y="410.102705" style="fill: #2ca02c; stroke: #2ca02c"/>
     <use xlink:href="#m5e89577324" x="270.014545" y="410.102705" style="fill: #2ca02c; stroke: #2ca02c"/>
     <use xlink:href="#m5e89577324" x="292.795227" y="415.837638" style="fill: #2ca02c; stroke: #2ca02c"/>
     <use xlink:href="#m5e89577324" x="315.575909" y="403.548495" style="fill: #2ca02c; stroke: #2ca02c"/>
     <use xlink:href="#m5e89577324" x="338.356591" y="401.909943" style="fill: #2ca02c; stroke: #2ca02c"/>
     <use xlink:href="#m5e89577324" x="361.137273" y="414.199086" style="fill: #2ca02c; stroke: #2ca02c"/>
     <use xlink:href="#m5e89577324" x="383.917955" y="412.560533" style="fill: #2ca02c; stroke: #2ca02c"/>
     <use xlink:href="#m5e89577324" x="406.698636" y="405.187048" style="fill: #2ca02c; stroke: #2ca02c"/>
     <use xlink:href="#m5e89577324" x="429.479318" y="419.934019" style="fill: #2ca02c; stroke: #2ca02c"/>
     <use xlink:href="#m5e89577324" x="452.26" y="414.199086" style="fill: #2ca02c; stroke: #2ca02c"/>
     <use xlink:href="#m5e89577324" x="475.040682" y="357.669029" style="fill: #2ca02c; stroke: #2ca02c"/>
     <use xlink:href="#m5e89577324" x="497.821364" y="204.464381" style="fill: #2ca02c; stroke: #2ca02c"/>
     <use xlink:href="#m5e89577324" x="520.602045" y="48.801905" style="fill: #2ca02c; stroke: #2ca02c"/>
     <use xlink:href="#m5e89577324" x="543.382727" y="48.801905" style="fill: #2ca02c; stroke: #2ca02c"/>
     <use xlink:href="#m5e89577324" x="566.163409" y="48.801905" style="fill: #2ca02c; stroke: #2ca02c"/>
     <use xlink:href="#m5e89577324" x="588.944091" y="48.801905" style="fill: #2ca02c; stroke: #2ca02c"/>
     <use xlink:href="#m5e89577324" x="611.724773" y="48.801905" style="fill: #2ca02c; stroke: #2ca02c"/>
     <use xlink:href="#m5e89577324" x="634.505455" y="48.801905" style="fill: #2ca02c; stroke: #2ca02c"/>
     <use xlink:href="#m5e89577324" x="657.286136" y="48.801905" style="fill: #2ca02c; stroke: #2ca02c"/>
     <use xlink:href="#m5e89577324" x="680.066818" y="48.801905" style="fill: #2ca02c; stroke: #2ca02c"/>
     <use xlink:href="#m5e89577324" x="702.8475" y="48.801905" style="fill: #2ca02c; stroke: #2ca02c"/>
     <use xlink:href="#m5e89577324" x="725.628182" y="48.801905" style="fill: #2ca02c; stroke: #2ca02c"/>
     <use xlink:href="#m5e89577324" x="748.408864" y="48.801905" style="fill: #2ca02c; stroke: #2ca02c"/>
     <use xlink:href="#m5e89577324" x="771.189545" y="48.801905" style="fill: #2ca02c; stroke: #2ca02c"/>
     <use xlink:href="#m5e89577324" x="793.970227" y="48.801905" style="fill: #2ca02c; stroke: #2ca02c"/>
     <use xlink:href="#m5e89577324" x="816.750909" y="48.801905" style="fill: #2ca02c; stroke: #2ca02c"/>
    </g>
   </g>
   <g id="patch_3">
    <path d="M 51.32 458.44 
L 51.32 28.32 
" style="fill: none; stroke: #000000; stroke-width: 0.8; stroke-linejoin: miter; stroke-linecap: square"/>
   </g>
   <g id="patch_4">
    <path d="M 853.2 458.44 
L 853.2 28.32 
" style="fill: none; stroke: #000000; stroke-width: 0.8; stroke-linejoin: miter; stroke-linecap: square"/>
   </g>
   <g id="patch_5">
    <path d="M 51.32 458.44 
L 853.2 458.44 
" style="fill: none; stroke: #000000; stroke-width: 0.8; stroke-linejoin: miter; stroke-linecap: square"/>
   </g>
   <g id="patch_6">
    <path d="M 51.32 28.32 
L 853.2 28.32 
" style="fill: none; stroke: #000000; stroke-width: 0.8; stroke-linejoin: miter; stroke-linecap: square"/>
   </g>
   <g id="text_42">
    <!-- llama: Aggregated 3-Digit Addition Accuracy (Linear Probe) -->
    <g transform="translate(215.335 22.32) scale(0.16 -0.16)">
     <defs>
      <path id="DejaVuSans-6c" d="M 603 4863 
L 1178 4863 
L 1178 0 
L 603 0 
L 603 4863 
z
" transform="scale(0.015625)"/>
      <path id="DejaVuSans-3a" d="M 750 794 
L 1409 794 
L 1409 0 
L 750 0 
L 750 794 
z
M 750 3309 
L 1409 3309 
L 1409 2516 
L 750 2516 
L 750 3309 
z
" transform="scale(0.015625)"/>
      <path id="DejaVuSans-2d" d="M 313 2009 
L 1997 2009 
L 1997 1497 
L 313 1497 
L 313 2009 
z
" transform="scale(0.015625)"/>
     </defs>
     <use xlink:href="#DejaVuSans-6c"/>
     <use xlink:href="#DejaVuSans-6c" x="27.783203"/>
     <use xlink:href="#DejaVuSans-61" x="55.566406"/>
     <use xlink:href="#DejaVuSans-6d" x="116.845703"/>
     <use xlink:href="#DejaVuSans-61" x="214.257812"/>
     <use xlink:href="#DejaVuSans-3a" x="275.537109"/>
     <use xlink:href="#DejaVuSans-20" x="309.228516"/>
     <use xlink:href="#DejaVuSans-41" x="341.015625"/>
     <use xlink:href="#DejaVuSans-67" x="409.423828"/>
     <use xlink:href="#DejaVuSans-67" x="472.900391"/>
     <use xlink:href="#DejaVuSans-72" x="536.376953"/>
     <use xlink:href="#DejaVuSans-65" x="575.240234"/>
     <use xlink:href="#DejaVuSans-67" x="636.763672"/>
     <use xlink:href="#DejaVuSans-61" x="700.240234"/>
     <use xlink:href="#DejaVuSans-74" x="761.519531"/>
     <use xlink:href="#DejaVuSans-65" x="800.728516"/>
     <use xlink:href="#DejaVuSans-64" x="862.251953"/>
     <use xlink:href="#DejaVuSans-20" x="925.728516"/>
     <use xlink:href="#DejaVuSans-33" x="957.515625"/>
     <use xlink:href="#DejaVuSans-2d" x="1021.138672"/>
     <use xlink:href="#DejaVuSans-44" x="1057.222656"/>
     <use xlink:href="#DejaVuSans-69" x="1134.224609"/>
     <use xlink:href="#DejaVuSans-67" x="1162.007812"/>
     <use xlink:href="#DejaVuSans-69" x="1225.484375"/>
     <use xlink:href="#DejaVuSans-74" x="1253.267578"/>
     <use xlink:href="#DejaVuSans-20" x="1292.476562"/>
     <use xlink:href="#DejaVuSans-41" x="1324.263672"/>
     <use xlink:href="#DejaVuSans-64" x="1390.921875"/>
     <use xlink:href="#DejaVuSans-64" x="1454.398438"/>
     <use xlink:href="#DejaVuSans-69" x="1517.875"/>
     <use xlink:href="#DejaVuSans-74" x="1545.658203"/>
     <use xlink:href="#DejaVuSans-69" x="1584.867188"/>
     <use xlink:href="#DejaVuSans-6f" x="1612.650391"/>
     <use xlink:href="#DejaVuSans-6e" x="1673.832031"/>
     <use xlink:href="#DejaVuSans-20" x="1737.210938"/>
     <use xlink:href="#DejaVuSans-41" x="1768.998047"/>
     <use xlink:href="#DejaVuSans-63" x="1835.65625"/>
     <use xlink:href="#DejaVuSans-63" x="1890.636719"/>
     <use xlink:href="#DejaVuSans-75" x="1945.617188"/>
     <use xlink:href="#DejaVuSans-72" x="2008.996094"/>
     <use xlink:href="#DejaVuSans-61" x="2050.109375"/>
     <use xlink:href="#DejaVuSans-63" x="2111.388672"/>
     <use xlink:href="#DejaVuSans-79" x="2166.369141"/>
     <use xlink:href="#DejaVuSans-20" x="2225.548828"/>
     <use xlink:href="#DejaVuSans-28" x="2257.335938"/>
     <use xlink:href="#DejaVuSans-4c" x="2296.349609"/>
     <use xlink:href="#DejaVuSans-69" x="2352.0625"/>
     <use xlink:href="#DejaVuSans-6e" x="2379.845703"/>
     <use xlink:href="#DejaVuSans-65" x="2443.224609"/>
     <use xlink:href="#DejaVuSans-61" x="2504.748047"/>
     <use xlink:href="#DejaVuSans-72" x="2566.027344"/>
     <use xlink:href="#DejaVuSans-20" x="2607.140625"/>
     <use xlink:href="#DejaVuSans-50" x="2638.927734"/>
     <use xlink:href="#DejaVuSans-72" x="2697.480469"/>
     <use xlink:href="#DejaVuSans-6f" x="2736.34375"/>
     <use xlink:href="#DejaVuSans-62" x="2797.525391"/>
     <use xlink:href="#DejaVuSans-65" x="2861.001953"/>
     <use xlink:href="#DejaVuSans-29" x="2922.525391"/>
    </g>
   </g>
   <g id="legend_1">
    <g id="patch_7">
     <path d="M 689.956875 452.44 
L 844.8 452.44 
Q 847.2 452.44 847.2 450.04 
L 847.2 398.39875 
Q 847.2 395.99875 844.8 395.99875 
L 689.956875 395.99875 
Q 687.556875 395.99875 687.556875 398.39875 
L 687.556875 450.04 
Q 687.556875 452.44 689.956875 452.44 
z
" style="fill: #ffffff; opacity: 0.8; stroke: #cccccc; stroke-linejoin: miter"/>
    </g>
    <g id="line2d_82">
     <path d="M 692.356875 405.716875 
L 704.356875 405.716875 
L 716.356875 405.716875 
" style="fill: none; stroke: #1f77b4; stroke-width: 2.5; stroke-linecap: square"/>
     <g>
      <use xlink:href="#m3ac01f76a2" x="704.356875" y="405.716875" style="fill: #1f77b4; stroke: #1f77b4"/>
     </g>
    </g>
    <g id="text_43">
     <!-- Avg. Hundreds Acc. -->
     <g transform="translate(725.956875 409.916875) scale(0.12 -0.12)">
      <defs>
       <path id="DejaVuSans-48" d="M 628 4666 
L 1259 4666 
L 1259 2753 
L 3553 2753 
L 3553 4666 
L 4184 4666 
L 4184 0 
L 3553 0 
L 3553 2222 
L 1259 2222 
L 1259 0 
L 628 0 
L 628 4666 
z
" transform="scale(0.015625)"/>
      </defs>
      <use xlink:href="#DejaVuSans-41"/>
      <use xlink:href="#DejaVuSans-76" x="62.533203"/>
      <use xlink:href="#DejaVuSans-67" x="121.712891"/>
      <use xlink:href="#DejaVuSans-2e" x="185.189453"/>
      <use xlink:href="#DejaVuSans-20" x="216.976562"/>
      <use xlink:href="#DejaVuSans-48" x="248.763672"/>
      <use xlink:href="#DejaVuSans-75" x="323.958984"/>
      <use xlink:href="#DejaVuSans-6e" x="387.337891"/>
      <use xlink:href="#DejaVuSans-64" x="450.716797"/>
      <use xlink:href="#DejaVuSans-72" x="514.193359"/>
      <use xlink:href="#DejaVuSans-65" x="553.056641"/>
      <use xlink:href="#DejaVuSans-64" x="614.580078"/>
      <use xlink:href="#DejaVuSans-73" x="678.056641"/>
      <use xlink:href="#DejaVuSans-20" x="730.15625"/>
      <use xlink:href="#DejaVuSans-41" x="761.943359"/>
      <use xlink:href="#DejaVuSans-63" x="828.601562"/>
      <use xlink:href="#DejaVuSans-63" x="883.582031"/>
      <use xlink:href="#DejaVuSans-2e" x="938.5625"/>
     </g>
    </g>
    <g id="line2d_83">
     <path d="M 692.356875 423.330625 
L 704.356875 423.330625 
L 716.356875 423.330625 
" style="fill: none; stroke: #ff7f0e; stroke-width: 2.5; stroke-linecap: square"/>
     <g>
      <use xlink:href="#m23dc5b1444" x="704.356875" y="423.330625" style="fill: #ff7f0e; stroke: #ff7f0e"/>
     </g>
    </g>
    <g id="text_44">
     <!-- Avg. Tens Acc. -->
     <g transform="translate(725.956875 427.530625) scale(0.12 -0.12)">
      <defs>
       <path id="DejaVuSans-54" d="M -19 4666 
L 3928 4666 
L 3928 4134 
L 2272 4134 
L 2272 0 
L 1638 0 
L 1638 4134 
L -19 4134 
L -19 4666 
z
" transform="scale(0.015625)"/>
      </defs>
      <use xlink:href="#DejaVuSans-41"/>
      <use xlink:href="#DejaVuSans-76" x="62.533203"/>
      <use xlink:href="#DejaVuSans-67" x="121.712891"/>
      <use xlink:href="#DejaVuSans-2e" x="185.189453"/>
      <use xlink:href="#DejaVuSans-20" x="216.976562"/>
      <use xlink:href="#DejaVuSans-54" x="248.763672"/>
      <use xlink:href="#DejaVuSans-65" x="292.847656"/>
      <use xlink:href="#DejaVuSans-6e" x="354.371094"/>
      <use xlink:href="#DejaVuSans-73" x="417.75"/>
      <use xlink:href="#DejaVuSans-20" x="469.849609"/>
      <use xlink:href="#DejaVuSans-41" x="501.636719"/>
      <use xlink:href="#DejaVuSans-63" x="568.294922"/>
      <use xlink:href="#DejaVuSans-63" x="623.275391"/>
      <use xlink:href="#DejaVuSans-2e" x="678.255859"/>
     </g>
    </g>
    <g id="line2d_84">
     <path d="M 692.356875 440.944375 
L 704.356875 440.944375 
L 716.356875 440.944375 
" style="fill: none; stroke: #2ca02c; stroke-width: 2.5; stroke-linecap: square"/>
     <g>
      <use xlink:href="#m5e89577324" x="704.356875" y="440.944375" style="fill: #2ca02c; stroke: #2ca02c"/>
     </g>
    </g>
    <g id="text_45">
     <!-- Avg. Ones Acc. -->
     <g transform="translate(725.956875 445.144375) scale(0.12 -0.12)">
      <defs>
       <path id="DejaVuSans-4f" d="M 2522 4238 
Q 1834 4238 1429 3725 
Q 1025 3213 1025 2328 
Q 1025 1447 1429 934 
Q 1834 422 2522 422 
Q 3209 422 3611 934 
Q 4013 1447 4013 2328 
Q 4013 3213 3611 3725 
Q 3209 4238 2522 4238 
z
M 2522 4750 
Q 3503 4750 4090 4092 
Q 4678 3434 4678 2328 
Q 4678 1225 4090 567 
Q 3503 -91 2522 -91 
Q 1538 -91 948 565 
Q 359 1222 359 2328 
Q 359 3434 948 4092 
Q 1538 4750 2522 4750 
z
" transform="scale(0.015625)"/>
      </defs>
      <use xlink:href="#DejaVuSans-41"/>
      <use xlink:href="#DejaVuSans-76" x="62.533203"/>
      <use xlink:href="#DejaVuSans-67" x="121.712891"/>
      <use xlink:href="#DejaVuSans-2e" x="185.189453"/>
      <use xlink:href="#DejaVuSans-20" x="216.976562"/>
      <use xlink:href="#DejaVuSans-4f" x="248.763672"/>
      <use xlink:href="#DejaVuSans-6e" x="327.474609"/>
      <use xlink:href="#DejaVuSans-65" x="390.853516"/>
      <use xlink:href="#DejaVuSans-73" x="452.376953"/>
      <use xlink:href="#DejaVuSans-20" x="504.476562"/>
      <use xlink:href="#DejaVuSans-41" x="536.263672"/>
      <use xlink:href="#DejaVuSans-63" x="602.921875"/>
      <use xlink:href="#DejaVuSans-63" x="657.902344"/>
      <use xlink:href="#DejaVuSans-2e" x="712.882812"/>
     </g>
    </g>
   </g>
  </g>
 </g>
 <defs>
  <clipPath id="p9846e4669a">
   <rect x="51.32" y="28.32" width="801.88" height="430.12"/>
  </clipPath>
 </defs>
</svg>
