<?xml version="1.0" encoding="utf-8" standalone="no"?>
<!DOCTYPE svg PUBLIC "-//W3C//DTD SVG 1.1//EN"
  "http://www.w3.org/Graphics/SVG/1.1/DTD/svg11.dtd">
<svg xmlns:xlink="http://www.w3.org/1999/xlink" width="864pt" height="504pt" viewBox="0 0 864 504" xmlns="http://www.w3.org/2000/svg" version="1.1">
 <metadata>
  <rdf:RDF xmlns:dc="http://purl.org/dc/elements/1.1/" xmlns:cc="http://creativecommons.org/ns#" xmlns:rdf="http://www.w3.org/1999/02/22-rdf-syntax-ns#">
   <cc:Work>
    <dc:type rdf:resource="http://purl.org/dc/dcmitype/StillImage"/>
    <dc:date>2025-05-19T11:55:34.732106</dc:date>
    <dc:format>image/svg+xml</dc:format>
    <dc:creator>
     <cc:Agent>
      <dc:title>Matplotlib v3.10.1, https://matplotlib.org/</dc:title>
     </cc:Agent>
    </dc:creator>
   </cc:Work>
  </rdf:RDF>
 </metadata>
 <defs>
  <style type="text/css">*{stroke-linejoin: round; stroke-linecap: butt}</style>
 </defs>
 <g id="figure_1">
  <g id="patch_1">
   <path d="M 0 504 
L 864 504 
L 864 0 
L 0 0 
z
" style="fill: #ffffff"/>
  </g>
  <g id="axes_1">
   <g id="patch_2">
    <path d="M 51.32 458.44 
L 853.2 458.44 
L 853.2 45.024 
L 51.32 45.024 
z
" style="fill: #ffffff"/>
   </g>
   <g id="FillBetweenPolyCollection_1">
    <defs>
     <path id="me0d18171dd" d="M 87.769091 -149.107637 
L 87.769091 -101.07909 
L 110.549773 -117.617305 
L 133.330455 -118.174599 
L 156.111136 -118.687356 
L 178.891818 -118.687356 
L 201.6725 -118.687356 
L 224.453182 -118.687356 
L 247.233864 -117.617305 
L 270.014545 -118.687356 
L 292.795227 -118.687356 
L 315.575909 -116.211517 
L 338.356591 -118.687356 
L 361.137273 -118.687356 
L 383.917955 -114.925647 
L 406.698636 -117.78238 
L 429.479318 -112.634997 
L 452.26 -124.305905 
L 475.040682 -136.648176 
L 497.821364 -251.88521 
L 520.602045 -290.384937 
L 543.382727 -290.442653 
L 566.163409 -335.947033 
L 588.944091 -358.64989 
L 611.724773 -388.937676 
L 634.505455 -399.916571 
L 657.286136 -401.98899 
L 680.066818 -403.980064 
L 702.8475 -403.394876 
L 725.628182 -413.538922 
L 748.408864 -418.718161 
L 771.189545 -417.476217 
L 793.970227 -414.502498 
L 816.750909 -413.377637 
L 816.750909 -425.828458 
L 816.750909 -425.828458 
L 793.970227 -423.128679 
L 771.189545 -426.454632 
L 748.408864 -428.362525 
L 725.628182 -422.517337 
L 702.8475 -415.337284 
L 680.066818 -421.051769 
L 657.286136 -418.318088 
L 634.505455 -415.665752 
L 611.724773 -409.320548 
L 588.944091 -381.336365 
L 566.163409 -366.241188 
L 543.382727 -326.699991 
L 520.602045 -323.607871 
L 497.821364 -308.560383 
L 475.040682 -187.559702 
L 452.26 -171.553448 
L 429.479318 -167.475174 
L 406.698636 -162.327791 
L 383.917955 -173.059115 
L 361.137273 -156.698062 
L 338.356591 -156.698062 
L 315.575909 -168.623409 
L 292.795227 -156.698062 
L 270.014545 -156.698062 
L 247.233864 -149.893522 
L 224.453182 -156.698062 
L 201.6725 -156.698062 
L 178.891818 -156.698062 
L 156.111136 -156.698062 
L 133.330455 -160.360655 
L 110.549773 -149.893522 
L 87.769091 -149.107637 
z
" style="stroke: #0000ff; stroke-opacity: 0.2"/>
    </defs>
    <g clip-path="url(#p08b024fef2)">
     <use xlink:href="#me0d18171dd" x="0" y="504" style="fill: #0000ff; fill-opacity: 0.2; stroke: #0000ff; stroke-opacity: 0.2"/>
    </g>
   </g>
   <g id="FillBetweenPolyCollection_2">
    <defs>
     <path id="mb2c4c9da66" d="M 87.769091 -108.694973 
L 87.769091 -81.644867 
L 110.549773 -94.054722 
L 133.330455 -81.644867 
L 156.111136 -81.926017 
L 178.891818 -81.644867 
L 201.6725 -75.298089 
L 224.453182 -65.562348 
L 247.233864 -81.644867 
L 270.014545 -66.449552 
L 292.795227 -64.996205 
L 315.575909 -64.830886 
L 338.356591 -75.164633 
L 361.137273 -93.136011 
L 383.917955 -76.568761 
L 406.698636 -66.016825 
L 429.479318 -73.810399 
L 452.26 -87.763978 
L 475.040682 -74.341707 
L 497.821364 -77.808963 
L 520.602045 -83.456724 
L 543.382727 -78.931138 
L 566.163409 -115.072129 
L 588.944091 -118.394642 
L 611.724773 -125.540895 
L 634.505455 -117.627651 
L 657.286136 -124.962723 
L 680.066818 -112.87617 
L 702.8475 -119.043056 
L 725.628182 -119.071259 
L 748.408864 -146.231165 
L 771.189545 -141.49716 
L 793.970227 -153.070047 
L 816.750909 -135.812425 
L 816.750909 -204.144634 
L 816.750909 -204.144634 
L 793.970227 -188.46193 
L 771.189545 -195.310063 
L 748.408864 -189.001139 
L 725.628182 -157.889076 
L 702.8475 -184.690887 
L 680.066818 -179.833346 
L 657.286136 -153.572531 
L 634.505455 -168.782193 
L 611.724773 -151.41944 
L 588.944091 -147.541266 
L 566.163409 -133.539681 
L 543.382727 -112.98362 
L 520.602045 -121.057379 
L 497.821364 -103.081369 
L 475.040682 -93.949279 
L 452.26 -110.450453 
L 429.479318 -105.505014 
L 406.698636 -102.274162 
L 383.917955 -110.621243 
L 361.137273 -105.078419 
L 338.356591 -97.851108 
L 315.575909 -100.310264 
L 292.795227 -87.545601 
L 270.014545 -101.841435 
L 247.233864 -108.694973 
L 224.453182 -107.453393 
L 201.6725 -105.592243 
L 178.891818 -108.694973 
L 156.111136 -109.988741 
L 133.330455 -108.694973 
L 110.549773 -105.734627 
L 87.769091 -108.694973 
z
" style="stroke: #008000; stroke-opacity: 0.2"/>
    </defs>
    <g clip-path="url(#p08b024fef2)">
     <use xlink:href="#mb2c4c9da66" x="0" y="504" style="fill: #008000; fill-opacity: 0.2; stroke: #008000; stroke-opacity: 0.2"/>
    </g>
   </g>
   <g id="FillBetweenPolyCollection_3">
    <defs>
     <path id="m4e4410a516" d="M 87.769091 -85.221635 
L 87.769091 -72.044925 
L 110.549773 -72.044925 
L 133.330455 -72.044925 
L 156.111136 -73.219942 
L 178.891818 -72.044925 
L 201.6725 -72.044925 
L 224.453182 -72.044925 
L 247.233864 -69.413549 
L 270.014545 -71.675275 
L 292.795227 -73.219942 
L 315.575909 -76.599371 
L 338.356591 -71.040787 
L 361.137273 -78.707542 
L 383.917955 -72.688043 
L 406.698636 -61.516723 
L 429.479318 -83.484231 
L 452.26 -75.528975 
L 475.040682 -81.147057 
L 497.821364 -70.683863 
L 520.602045 -77.517917 
L 543.382727 -69.987643 
L 566.163409 -85.955958 
L 588.944091 -71.992782 
L 611.724773 -69.840708 
L 634.505455 -77.715299 
L 657.286136 -74.150225 
L 680.066818 -74.2937 
L 702.8475 -66.89313 
L 725.628182 -72.361767 
L 748.408864 -63.553791 
L 771.189545 -71.570781 
L 793.970227 -79.546936 
L 816.750909 -71.518049 
L 816.750909 -104.647528 
L 816.750909 -104.647528 
L 793.970227 -96.618641 
L 771.189545 -96.720206 
L 748.408864 -103.162277 
L 725.628182 -94.354301 
L 702.8475 -101.397857 
L 680.066818 -92.422369 
L 657.286136 -95.715679 
L 634.505455 -101.600114 
L 611.724773 -93.725524 
L 588.944091 -104.172795 
L 566.163409 -94.934373 
L 543.382727 -107.752852 
L 520.602045 -98.64766 
L 497.821364 -103.906796 
L 475.040682 -107.617865 
L 452.26 -95.911847 
L 429.479318 -100.555936 
L 406.698636 -94.174919 
L 383.917955 -92.453108 
L 361.137273 -91.158363 
L 338.356591 -111.424463 
L 315.575909 -88.541779 
L 292.795227 -95.071044 
L 270.014545 -112.364893 
L 247.233864 -79.978421 
L 224.453182 -85.221635 
L 201.6725 -85.221635 
L 178.891818 -85.221635 
L 156.111136 -95.071044 
L 133.330455 -85.221635 
L 110.549773 -85.221635 
L 87.769091 -85.221635 
z
" style="stroke: #ff0000; stroke-opacity: 0.2"/>
    </defs>
    <g clip-path="url(#p08b024fef2)">
     <use xlink:href="#m4e4410a516" x="0" y="504" style="fill: #ff0000; fill-opacity: 0.2; stroke: #ff0000; stroke-opacity: 0.2"/>
    </g>
   </g>
   <g id="matplotlib.axis_1">
    <g id="xtick_1">
     <g id="line2d_1">
      <path d="M 87.769091 458.44 
L 87.769091 45.024 
" clip-path="url(#p08b024fef2)" style="fill: none; stroke-dasharray: 2.96,1.28; stroke-dashoffset: 0; stroke: #b0b0b0; stroke-opacity: 0.7; stroke-width: 0.8"/>
     </g>
     <g id="line2d_2">
      <defs>
       <path id="m78c604ac0e" d="M 0 0 
L 0 3.5 
" style="stroke: #000000; stroke-width: 0.8"/>
      </defs>
      <g>
       <use xlink:href="#m78c604ac0e" x="87.769091" y="458.44" style="stroke: #000000; stroke-width: 0.8"/>
      </g>
     </g>
     <g id="text_1">
      <!-- 0 -->
      <g transform="translate(84.587841 473.038437) scale(0.1 -0.1)">
       <defs>
        <path id="DejaVuSans-30" d="M 2034 4250 
Q 1547 4250 1301 3770 
Q 1056 3291 1056 2328 
Q 1056 1369 1301 889 
Q 1547 409 2034 409 
Q 2525 409 2770 889 
Q 3016 1369 3016 2328 
Q 3016 3291 2770 3770 
Q 2525 4250 2034 4250 
z
M 2034 4750 
Q 2819 4750 3233 4129 
Q 3647 3509 3647 2328 
Q 3647 1150 3233 529 
Q 2819 -91 2034 -91 
Q 1250 -91 836 529 
Q 422 1150 422 2328 
Q 422 3509 836 4129 
Q 1250 4750 2034 4750 
z
" transform="scale(0.015625)"/>
       </defs>
       <use xlink:href="#DejaVuSans-30"/>
      </g>
     </g>
    </g>
    <g id="xtick_2">
     <g id="line2d_3">
      <path d="M 110.549773 458.44 
L 110.549773 45.024 
" clip-path="url(#p08b024fef2)" style="fill: none; stroke-dasharray: 2.96,1.28; stroke-dashoffset: 0; stroke: #b0b0b0; stroke-opacity: 0.7; stroke-width: 0.8"/>
     </g>
     <g id="line2d_4">
      <g>
       <use xlink:href="#m78c604ac0e" x="110.549773" y="458.44" style="stroke: #000000; stroke-width: 0.8"/>
      </g>
     </g>
     <g id="text_2">
      <!-- 1 -->
      <g transform="translate(107.368523 473.038437) scale(0.1 -0.1)">
       <defs>
        <path id="DejaVuSans-31" d="M 794 531 
L 1825 531 
L 1825 4091 
L 703 3866 
L 703 4441 
L 1819 4666 
L 2450 4666 
L 2450 531 
L 3481 531 
L 3481 0 
L 794 0 
L 794 531 
z
" transform="scale(0.015625)"/>
       </defs>
       <use xlink:href="#DejaVuSans-31"/>
      </g>
     </g>
    </g>
    <g id="xtick_3">
     <g id="line2d_5">
      <path d="M 133.330455 458.44 
L 133.330455 45.024 
" clip-path="url(#p08b024fef2)" style="fill: none; stroke-dasharray: 2.96,1.28; stroke-dashoffset: 0; stroke: #b0b0b0; stroke-opacity: 0.7; stroke-width: 0.8"/>
     </g>
     <g id="line2d_6">
      <g>
       <use xlink:href="#m78c604ac0e" x="133.330455" y="458.44" style="stroke: #000000; stroke-width: 0.8"/>
      </g>
     </g>
     <g id="text_3">
      <!-- 2 -->
      <g transform="translate(130.149205 473.038437) scale(0.1 -0.1)">
       <defs>
        <path id="DejaVuSans-32" d="M 1228 531 
L 3431 531 
L 3431 0 
L 469 0 
L 469 531 
Q 828 903 1448 1529 
Q 2069 2156 2228 2338 
Q 2531 2678 2651 2914 
Q 2772 3150 2772 3378 
Q 2772 3750 2511 3984 
Q 2250 4219 1831 4219 
Q 1534 4219 1204 4116 
Q 875 4013 500 3803 
L 500 4441 
Q 881 4594 1212 4672 
Q 1544 4750 1819 4750 
Q 2544 4750 2975 4387 
Q 3406 4025 3406 3419 
Q 3406 3131 3298 2873 
Q 3191 2616 2906 2266 
Q 2828 2175 2409 1742 
Q 1991 1309 1228 531 
z
" transform="scale(0.015625)"/>
       </defs>
       <use xlink:href="#DejaVuSans-32"/>
      </g>
     </g>
    </g>
    <g id="xtick_4">
     <g id="line2d_7">
      <path d="M 156.111136 458.44 
L 156.111136 45.024 
" clip-path="url(#p08b024fef2)" style="fill: none; stroke-dasharray: 2.96,1.28; stroke-dashoffset: 0; stroke: #b0b0b0; stroke-opacity: 0.7; stroke-width: 0.8"/>
     </g>
     <g id="line2d_8">
      <g>
       <use xlink:href="#m78c604ac0e" x="156.111136" y="458.44" style="stroke: #000000; stroke-width: 0.8"/>
      </g>
     </g>
     <g id="text_4">
      <!-- 3 -->
      <g transform="translate(152.929886 473.038437) scale(0.1 -0.1)">
       <defs>
        <path id="DejaVuSans-33" d="M 2597 2516 
Q 3050 2419 3304 2112 
Q 3559 1806 3559 1356 
Q 3559 666 3084 287 
Q 2609 -91 1734 -91 
Q 1441 -91 1130 -33 
Q 819 25 488 141 
L 488 750 
Q 750 597 1062 519 
Q 1375 441 1716 441 
Q 2309 441 2620 675 
Q 2931 909 2931 1356 
Q 2931 1769 2642 2001 
Q 2353 2234 1838 2234 
L 1294 2234 
L 1294 2753 
L 1863 2753 
Q 2328 2753 2575 2939 
Q 2822 3125 2822 3475 
Q 2822 3834 2567 4026 
Q 2313 4219 1838 4219 
Q 1578 4219 1281 4162 
Q 984 4106 628 3988 
L 628 4550 
Q 988 4650 1302 4700 
Q 1616 4750 1894 4750 
Q 2613 4750 3031 4423 
Q 3450 4097 3450 3541 
Q 3450 3153 3228 2886 
Q 3006 2619 2597 2516 
z
" transform="scale(0.015625)"/>
       </defs>
       <use xlink:href="#DejaVuSans-33"/>
      </g>
     </g>
    </g>
    <g id="xtick_5">
     <g id="line2d_9">
      <path d="M 178.891818 458.44 
L 178.891818 45.024 
" clip-path="url(#p08b024fef2)" style="fill: none; stroke-dasharray: 2.96,1.28; stroke-dashoffset: 0; stroke: #b0b0b0; stroke-opacity: 0.7; stroke-width: 0.8"/>
     </g>
     <g id="line2d_10">
      <g>
       <use xlink:href="#m78c604ac0e" x="178.891818" y="458.44" style="stroke: #000000; stroke-width: 0.8"/>
      </g>
     </g>
     <g id="text_5">
      <!-- 4 -->
      <g transform="translate(175.710568 473.038437) scale(0.1 -0.1)">
       <defs>
        <path id="DejaVuSans-34" d="M 2419 4116 
L 825 1625 
L 2419 1625 
L 2419 4116 
z
M 2253 4666 
L 3047 4666 
L 3047 1625 
L 3713 1625 
L 3713 1100 
L 3047 1100 
L 3047 0 
L 2419 0 
L 2419 1100 
L 313 1100 
L 313 1709 
L 2253 4666 
z
" transform="scale(0.015625)"/>
       </defs>
       <use xlink:href="#DejaVuSans-34"/>
      </g>
     </g>
    </g>
    <g id="xtick_6">
     <g id="line2d_11">
      <path d="M 201.6725 458.44 
L 201.6725 45.024 
" clip-path="url(#p08b024fef2)" style="fill: none; stroke-dasharray: 2.96,1.28; stroke-dashoffset: 0; stroke: #b0b0b0; stroke-opacity: 0.7; stroke-width: 0.8"/>
     </g>
     <g id="line2d_12">
      <g>
       <use xlink:href="#m78c604ac0e" x="201.6725" y="458.44" style="stroke: #000000; stroke-width: 0.8"/>
      </g>
     </g>
     <g id="text_6">
      <!-- 5 -->
      <g transform="translate(198.49125 473.038437) scale(0.1 -0.1)">
       <defs>
        <path id="DejaVuSans-35" d="M 691 4666 
L 3169 4666 
L 3169 4134 
L 1269 4134 
L 1269 2991 
Q 1406 3038 1543 3061 
Q 1681 3084 1819 3084 
Q 2600 3084 3056 2656 
Q 3513 2228 3513 1497 
Q 3513 744 3044 326 
Q 2575 -91 1722 -91 
Q 1428 -91 1123 -41 
Q 819 9 494 109 
L 494 744 
Q 775 591 1075 516 
Q 1375 441 1709 441 
Q 2250 441 2565 725 
Q 2881 1009 2881 1497 
Q 2881 1984 2565 2268 
Q 2250 2553 1709 2553 
Q 1456 2553 1204 2497 
Q 953 2441 691 2322 
L 691 4666 
z
" transform="scale(0.015625)"/>
       </defs>
       <use xlink:href="#DejaVuSans-35"/>
      </g>
     </g>
    </g>
    <g id="xtick_7">
     <g id="line2d_13">
      <path d="M 224.453182 458.44 
L 224.453182 45.024 
" clip-path="url(#p08b024fef2)" style="fill: none; stroke-dasharray: 2.96,1.28; stroke-dashoffset: 0; stroke: #b0b0b0; stroke-opacity: 0.7; stroke-width: 0.8"/>
     </g>
     <g id="line2d_14">
      <g>
       <use xlink:href="#m78c604ac0e" x="224.453182" y="458.44" style="stroke: #000000; stroke-width: 0.8"/>
      </g>
     </g>
     <g id="text_7">
      <!-- 6 -->
      <g transform="translate(221.271932 473.038437) scale(0.1 -0.1)">
       <defs>
        <path id="DejaVuSans-36" d="M 2113 2584 
Q 1688 2584 1439 2293 
Q 1191 2003 1191 1497 
Q 1191 994 1439 701 
Q 1688 409 2113 409 
Q 2538 409 2786 701 
Q 3034 994 3034 1497 
Q 3034 2003 2786 2293 
Q 2538 2584 2113 2584 
z
M 3366 4563 
L 3366 3988 
Q 3128 4100 2886 4159 
Q 2644 4219 2406 4219 
Q 1781 4219 1451 3797 
Q 1122 3375 1075 2522 
Q 1259 2794 1537 2939 
Q 1816 3084 2150 3084 
Q 2853 3084 3261 2657 
Q 3669 2231 3669 1497 
Q 3669 778 3244 343 
Q 2819 -91 2113 -91 
Q 1303 -91 875 529 
Q 447 1150 447 2328 
Q 447 3434 972 4092 
Q 1497 4750 2381 4750 
Q 2619 4750 2861 4703 
Q 3103 4656 3366 4563 
z
" transform="scale(0.015625)"/>
       </defs>
       <use xlink:href="#DejaVuSans-36"/>
      </g>
     </g>
    </g>
    <g id="xtick_8">
     <g id="line2d_15">
      <path d="M 247.233864 458.44 
L 247.233864 45.024 
" clip-path="url(#p08b024fef2)" style="fill: none; stroke-dasharray: 2.96,1.28; stroke-dashoffset: 0; stroke: #b0b0b0; stroke-opacity: 0.7; stroke-width: 0.8"/>
     </g>
     <g id="line2d_16">
      <g>
       <use xlink:href="#m78c604ac0e" x="247.233864" y="458.44" style="stroke: #000000; stroke-width: 0.8"/>
      </g>
     </g>
     <g id="text_8">
      <!-- 7 -->
      <g transform="translate(244.052614 473.038437) scale(0.1 -0.1)">
       <defs>
        <path id="DejaVuSans-37" d="M 525 4666 
L 3525 4666 
L 3525 4397 
L 1831 0 
L 1172 0 
L 2766 4134 
L 525 4134 
L 525 4666 
z
" transform="scale(0.015625)"/>
       </defs>
       <use xlink:href="#DejaVuSans-37"/>
      </g>
     </g>
    </g>
    <g id="xtick_9">
     <g id="line2d_17">
      <path d="M 270.014545 458.44 
L 270.014545 45.024 
" clip-path="url(#p08b024fef2)" style="fill: none; stroke-dasharray: 2.96,1.28; stroke-dashoffset: 0; stroke: #b0b0b0; stroke-opacity: 0.7; stroke-width: 0.8"/>
     </g>
     <g id="line2d_18">
      <g>
       <use xlink:href="#m78c604ac0e" x="270.014545" y="458.44" style="stroke: #000000; stroke-width: 0.8"/>
      </g>
     </g>
     <g id="text_9">
      <!-- 8 -->
      <g transform="translate(266.833295 473.038437) scale(0.1 -0.1)">
       <defs>
        <path id="DejaVuSans-38" d="M 2034 2216 
Q 1584 2216 1326 1975 
Q 1069 1734 1069 1313 
Q 1069 891 1326 650 
Q 1584 409 2034 409 
Q 2484 409 2743 651 
Q 3003 894 3003 1313 
Q 3003 1734 2745 1975 
Q 2488 2216 2034 2216 
z
M 1403 2484 
Q 997 2584 770 2862 
Q 544 3141 544 3541 
Q 544 4100 942 4425 
Q 1341 4750 2034 4750 
Q 2731 4750 3128 4425 
Q 3525 4100 3525 3541 
Q 3525 3141 3298 2862 
Q 3072 2584 2669 2484 
Q 3125 2378 3379 2068 
Q 3634 1759 3634 1313 
Q 3634 634 3220 271 
Q 2806 -91 2034 -91 
Q 1263 -91 848 271 
Q 434 634 434 1313 
Q 434 1759 690 2068 
Q 947 2378 1403 2484 
z
M 1172 3481 
Q 1172 3119 1398 2916 
Q 1625 2713 2034 2713 
Q 2441 2713 2670 2916 
Q 2900 3119 2900 3481 
Q 2900 3844 2670 4047 
Q 2441 4250 2034 4250 
Q 1625 4250 1398 4047 
Q 1172 3844 1172 3481 
z
" transform="scale(0.015625)"/>
       </defs>
       <use xlink:href="#DejaVuSans-38"/>
      </g>
     </g>
    </g>
    <g id="xtick_10">
     <g id="line2d_19">
      <path d="M 292.795227 458.44 
L 292.795227 45.024 
" clip-path="url(#p08b024fef2)" style="fill: none; stroke-dasharray: 2.96,1.28; stroke-dashoffset: 0; stroke: #b0b0b0; stroke-opacity: 0.7; stroke-width: 0.8"/>
     </g>
     <g id="line2d_20">
      <g>
       <use xlink:href="#m78c604ac0e" x="292.795227" y="458.44" style="stroke: #000000; stroke-width: 0.8"/>
      </g>
     </g>
     <g id="text_10">
      <!-- 9 -->
      <g transform="translate(289.613977 473.038437) scale(0.1 -0.1)">
       <defs>
        <path id="DejaVuSans-39" d="M 703 97 
L 703 672 
Q 941 559 1184 500 
Q 1428 441 1663 441 
Q 2288 441 2617 861 
Q 2947 1281 2994 2138 
Q 2813 1869 2534 1725 
Q 2256 1581 1919 1581 
Q 1219 1581 811 2004 
Q 403 2428 403 3163 
Q 403 3881 828 4315 
Q 1253 4750 1959 4750 
Q 2769 4750 3195 4129 
Q 3622 3509 3622 2328 
Q 3622 1225 3098 567 
Q 2575 -91 1691 -91 
Q 1453 -91 1209 -44 
Q 966 3 703 97 
z
M 1959 2075 
Q 2384 2075 2632 2365 
Q 2881 2656 2881 3163 
Q 2881 3666 2632 3958 
Q 2384 4250 1959 4250 
Q 1534 4250 1286 3958 
Q 1038 3666 1038 3163 
Q 1038 2656 1286 2365 
Q 1534 2075 1959 2075 
z
" transform="scale(0.015625)"/>
       </defs>
       <use xlink:href="#DejaVuSans-39"/>
      </g>
     </g>
    </g>
    <g id="xtick_11">
     <g id="line2d_21">
      <path d="M 315.575909 458.44 
L 315.575909 45.024 
" clip-path="url(#p08b024fef2)" style="fill: none; stroke-dasharray: 2.96,1.28; stroke-dashoffset: 0; stroke: #b0b0b0; stroke-opacity: 0.7; stroke-width: 0.8"/>
     </g>
     <g id="line2d_22">
      <g>
       <use xlink:href="#m78c604ac0e" x="315.575909" y="458.44" style="stroke: #000000; stroke-width: 0.8"/>
      </g>
     </g>
     <g id="text_11">
      <!-- 10 -->
      <g transform="translate(309.213409 473.038437) scale(0.1 -0.1)">
       <use xlink:href="#DejaVuSans-31"/>
       <use xlink:href="#DejaVuSans-30" transform="translate(63.623047 0)"/>
      </g>
     </g>
    </g>
    <g id="xtick_12">
     <g id="line2d_23">
      <path d="M 338.356591 458.44 
L 338.356591 45.024 
" clip-path="url(#p08b024fef2)" style="fill: none; stroke-dasharray: 2.96,1.28; stroke-dashoffset: 0; stroke: #b0b0b0; stroke-opacity: 0.7; stroke-width: 0.8"/>
     </g>
     <g id="line2d_24">
      <g>
       <use xlink:href="#m78c604ac0e" x="338.356591" y="458.44" style="stroke: #000000; stroke-width: 0.8"/>
      </g>
     </g>
     <g id="text_12">
      <!-- 11 -->
      <g transform="translate(331.994091 473.038437) scale(0.1 -0.1)">
       <use xlink:href="#DejaVuSans-31"/>
       <use xlink:href="#DejaVuSans-31" transform="translate(63.623047 0)"/>
      </g>
     </g>
    </g>
    <g id="xtick_13">
     <g id="line2d_25">
      <path d="M 361.137273 458.44 
L 361.137273 45.024 
" clip-path="url(#p08b024fef2)" style="fill: none; stroke-dasharray: 2.96,1.28; stroke-dashoffset: 0; stroke: #b0b0b0; stroke-opacity: 0.7; stroke-width: 0.8"/>
     </g>
     <g id="line2d_26">
      <g>
       <use xlink:href="#m78c604ac0e" x="361.137273" y="458.44" style="stroke: #000000; stroke-width: 0.8"/>
      </g>
     </g>
     <g id="text_13">
      <!-- 12 -->
      <g transform="translate(354.774773 473.038437) scale(0.1 -0.1)">
       <use xlink:href="#DejaVuSans-31"/>
       <use xlink:href="#DejaVuSans-32" transform="translate(63.623047 0)"/>
      </g>
     </g>
    </g>
    <g id="xtick_14">
     <g id="line2d_27">
      <path d="M 383.917955 458.44 
L 383.917955 45.024 
" clip-path="url(#p08b024fef2)" style="fill: none; stroke-dasharray: 2.96,1.28; stroke-dashoffset: 0; stroke: #b0b0b0; stroke-opacity: 0.7; stroke-width: 0.8"/>
     </g>
     <g id="line2d_28">
      <g>
       <use xlink:href="#m78c604ac0e" x="383.917955" y="458.44" style="stroke: #000000; stroke-width: 0.8"/>
      </g>
     </g>
     <g id="text_14">
      <!-- 13 -->
      <g transform="translate(377.555455 473.038437) scale(0.1 -0.1)">
       <use xlink:href="#DejaVuSans-31"/>
       <use xlink:href="#DejaVuSans-33" transform="translate(63.623047 0)"/>
      </g>
     </g>
    </g>
    <g id="xtick_15">
     <g id="line2d_29">
      <path d="M 406.698636 458.44 
L 406.698636 45.024 
" clip-path="url(#p08b024fef2)" style="fill: none; stroke-dasharray: 2.96,1.28; stroke-dashoffset: 0; stroke: #b0b0b0; stroke-opacity: 0.7; stroke-width: 0.8"/>
     </g>
     <g id="line2d_30">
      <g>
       <use xlink:href="#m78c604ac0e" x="406.698636" y="458.44" style="stroke: #000000; stroke-width: 0.8"/>
      </g>
     </g>
     <g id="text_15">
      <!-- 14 -->
      <g transform="translate(400.336136 473.038437) scale(0.1 -0.1)">
       <use xlink:href="#DejaVuSans-31"/>
       <use xlink:href="#DejaVuSans-34" transform="translate(63.623047 0)"/>
      </g>
     </g>
    </g>
    <g id="xtick_16">
     <g id="line2d_31">
      <path d="M 429.479318 458.44 
L 429.479318 45.024 
" clip-path="url(#p08b024fef2)" style="fill: none; stroke-dasharray: 2.96,1.28; stroke-dashoffset: 0; stroke: #b0b0b0; stroke-opacity: 0.7; stroke-width: 0.8"/>
     </g>
     <g id="line2d_32">
      <g>
       <use xlink:href="#m78c604ac0e" x="429.479318" y="458.44" style="stroke: #000000; stroke-width: 0.8"/>
      </g>
     </g>
     <g id="text_16">
      <!-- 15 -->
      <g transform="translate(423.116818 473.038437) scale(0.1 -0.1)">
       <use xlink:href="#DejaVuSans-31"/>
       <use xlink:href="#DejaVuSans-35" transform="translate(63.623047 0)"/>
      </g>
     </g>
    </g>
    <g id="xtick_17">
     <g id="line2d_33">
      <path d="M 452.26 458.44 
L 452.26 45.024 
" clip-path="url(#p08b024fef2)" style="fill: none; stroke-dasharray: 2.96,1.28; stroke-dashoffset: 0; stroke: #b0b0b0; stroke-opacity: 0.7; stroke-width: 0.8"/>
     </g>
     <g id="line2d_34">
      <g>
       <use xlink:href="#m78c604ac0e" x="452.26" y="458.44" style="stroke: #000000; stroke-width: 0.8"/>
      </g>
     </g>
     <g id="text_17">
      <!-- 16 -->
      <g transform="translate(445.8975 473.038437) scale(0.1 -0.1)">
       <use xlink:href="#DejaVuSans-31"/>
       <use xlink:href="#DejaVuSans-36" transform="translate(63.623047 0)"/>
      </g>
     </g>
    </g>
    <g id="xtick_18">
     <g id="line2d_35">
      <path d="M 475.040682 458.44 
L 475.040682 45.024 
" clip-path="url(#p08b024fef2)" style="fill: none; stroke-dasharray: 2.96,1.28; stroke-dashoffset: 0; stroke: #b0b0b0; stroke-opacity: 0.7; stroke-width: 0.8"/>
     </g>
     <g id="line2d_36">
      <g>
       <use xlink:href="#m78c604ac0e" x="475.040682" y="458.44" style="stroke: #000000; stroke-width: 0.8"/>
      </g>
     </g>
     <g id="text_18">
      <!-- 17 -->
      <g transform="translate(468.678182 473.038437) scale(0.1 -0.1)">
       <use xlink:href="#DejaVuSans-31"/>
       <use xlink:href="#DejaVuSans-37" transform="translate(63.623047 0)"/>
      </g>
     </g>
    </g>
    <g id="xtick_19">
     <g id="line2d_37">
      <path d="M 497.821364 458.44 
L 497.821364 45.024 
" clip-path="url(#p08b024fef2)" style="fill: none; stroke-dasharray: 2.96,1.28; stroke-dashoffset: 0; stroke: #b0b0b0; stroke-opacity: 0.7; stroke-width: 0.8"/>
     </g>
     <g id="line2d_38">
      <g>
       <use xlink:href="#m78c604ac0e" x="497.821364" y="458.44" style="stroke: #000000; stroke-width: 0.8"/>
      </g>
     </g>
     <g id="text_19">
      <!-- 18 -->
      <g transform="translate(491.458864 473.038437) scale(0.1 -0.1)">
       <use xlink:href="#DejaVuSans-31"/>
       <use xlink:href="#DejaVuSans-38" transform="translate(63.623047 0)"/>
      </g>
     </g>
    </g>
    <g id="xtick_20">
     <g id="line2d_39">
      <path d="M 520.602045 458.44 
L 520.602045 45.024 
" clip-path="url(#p08b024fef2)" style="fill: none; stroke-dasharray: 2.96,1.28; stroke-dashoffset: 0; stroke: #b0b0b0; stroke-opacity: 0.7; stroke-width: 0.8"/>
     </g>
     <g id="line2d_40">
      <g>
       <use xlink:href="#m78c604ac0e" x="520.602045" y="458.44" style="stroke: #000000; stroke-width: 0.8"/>
      </g>
     </g>
     <g id="text_20">
      <!-- 19 -->
      <g transform="translate(514.239545 473.038437) scale(0.1 -0.1)">
       <use xlink:href="#DejaVuSans-31"/>
       <use xlink:href="#DejaVuSans-39" transform="translate(63.623047 0)"/>
      </g>
     </g>
    </g>
    <g id="xtick_21">
     <g id="line2d_41">
      <path d="M 543.382727 458.44 
L 543.382727 45.024 
" clip-path="url(#p08b024fef2)" style="fill: none; stroke-dasharray: 2.96,1.28; stroke-dashoffset: 0; stroke: #b0b0b0; stroke-opacity: 0.7; stroke-width: 0.8"/>
     </g>
     <g id="line2d_42">
      <g>
       <use xlink:href="#m78c604ac0e" x="543.382727" y="458.44" style="stroke: #000000; stroke-width: 0.8"/>
      </g>
     </g>
     <g id="text_21">
      <!-- 20 -->
      <g transform="translate(537.020227 473.038437) scale(0.1 -0.1)">
       <use xlink:href="#DejaVuSans-32"/>
       <use xlink:href="#DejaVuSans-30" transform="translate(63.623047 0)"/>
      </g>
     </g>
    </g>
    <g id="xtick_22">
     <g id="line2d_43">
      <path d="M 566.163409 458.44 
L 566.163409 45.024 
" clip-path="url(#p08b024fef2)" style="fill: none; stroke-dasharray: 2.96,1.28; stroke-dashoffset: 0; stroke: #b0b0b0; stroke-opacity: 0.7; stroke-width: 0.8"/>
     </g>
     <g id="line2d_44">
      <g>
       <use xlink:href="#m78c604ac0e" x="566.163409" y="458.44" style="stroke: #000000; stroke-width: 0.8"/>
      </g>
     </g>
     <g id="text_22">
      <!-- 21 -->
      <g transform="translate(559.800909 473.038437) scale(0.1 -0.1)">
       <use xlink:href="#DejaVuSans-32"/>
       <use xlink:href="#DejaVuSans-31" transform="translate(63.623047 0)"/>
      </g>
     </g>
    </g>
    <g id="xtick_23">
     <g id="line2d_45">
      <path d="M 588.944091 458.44 
L 588.944091 45.024 
" clip-path="url(#p08b024fef2)" style="fill: none; stroke-dasharray: 2.96,1.28; stroke-dashoffset: 0; stroke: #b0b0b0; stroke-opacity: 0.7; stroke-width: 0.8"/>
     </g>
     <g id="line2d_46">
      <g>
       <use xlink:href="#m78c604ac0e" x="588.944091" y="458.44" style="stroke: #000000; stroke-width: 0.8"/>
      </g>
     </g>
     <g id="text_23">
      <!-- 22 -->
      <g transform="translate(582.581591 473.038437) scale(0.1 -0.1)">
       <use xlink:href="#DejaVuSans-32"/>
       <use xlink:href="#DejaVuSans-32" transform="translate(63.623047 0)"/>
      </g>
     </g>
    </g>
    <g id="xtick_24">
     <g id="line2d_47">
      <path d="M 611.724773 458.44 
L 611.724773 45.024 
" clip-path="url(#p08b024fef2)" style="fill: none; stroke-dasharray: 2.96,1.28; stroke-dashoffset: 0; stroke: #b0b0b0; stroke-opacity: 0.7; stroke-width: 0.8"/>
     </g>
     <g id="line2d_48">
      <g>
       <use xlink:href="#m78c604ac0e" x="611.724773" y="458.44" style="stroke: #000000; stroke-width: 0.8"/>
      </g>
     </g>
     <g id="text_24">
      <!-- 23 -->
      <g transform="translate(605.362273 473.038437) scale(0.1 -0.1)">
       <use xlink:href="#DejaVuSans-32"/>
       <use xlink:href="#DejaVuSans-33" transform="translate(63.623047 0)"/>
      </g>
     </g>
    </g>
    <g id="xtick_25">
     <g id="line2d_49">
      <path d="M 634.505455 458.44 
L 634.505455 45.024 
" clip-path="url(#p08b024fef2)" style="fill: none; stroke-dasharray: 2.96,1.28; stroke-dashoffset: 0; stroke: #b0b0b0; stroke-opacity: 0.7; stroke-width: 0.8"/>
     </g>
     <g id="line2d_50">
      <g>
       <use xlink:href="#m78c604ac0e" x="634.505455" y="458.44" style="stroke: #000000; stroke-width: 0.8"/>
      </g>
     </g>
     <g id="text_25">
      <!-- 24 -->
      <g transform="translate(628.142955 473.038437) scale(0.1 -0.1)">
       <use xlink:href="#DejaVuSans-32"/>
       <use xlink:href="#DejaVuSans-34" transform="translate(63.623047 0)"/>
      </g>
     </g>
    </g>
    <g id="xtick_26">
     <g id="line2d_51">
      <path d="M 657.286136 458.44 
L 657.286136 45.024 
" clip-path="url(#p08b024fef2)" style="fill: none; stroke-dasharray: 2.96,1.28; stroke-dashoffset: 0; stroke: #b0b0b0; stroke-opacity: 0.7; stroke-width: 0.8"/>
     </g>
     <g id="line2d_52">
      <g>
       <use xlink:href="#m78c604ac0e" x="657.286136" y="458.44" style="stroke: #000000; stroke-width: 0.8"/>
      </g>
     </g>
     <g id="text_26">
      <!-- 25 -->
      <g transform="translate(650.923636 473.038437) scale(0.1 -0.1)">
       <use xlink:href="#DejaVuSans-32"/>
       <use xlink:href="#DejaVuSans-35" transform="translate(63.623047 0)"/>
      </g>
     </g>
    </g>
    <g id="xtick_27">
     <g id="line2d_53">
      <path d="M 680.066818 458.44 
L 680.066818 45.024 
" clip-path="url(#p08b024fef2)" style="fill: none; stroke-dasharray: 2.96,1.28; stroke-dashoffset: 0; stroke: #b0b0b0; stroke-opacity: 0.7; stroke-width: 0.8"/>
     </g>
     <g id="line2d_54">
      <g>
       <use xlink:href="#m78c604ac0e" x="680.066818" y="458.44" style="stroke: #000000; stroke-width: 0.8"/>
      </g>
     </g>
     <g id="text_27">
      <!-- 26 -->
      <g transform="translate(673.704318 473.038437) scale(0.1 -0.1)">
       <use xlink:href="#DejaVuSans-32"/>
       <use xlink:href="#DejaVuSans-36" transform="translate(63.623047 0)"/>
      </g>
     </g>
    </g>
    <g id="xtick_28">
     <g id="line2d_55">
      <path d="M 702.8475 458.44 
L 702.8475 45.024 
" clip-path="url(#p08b024fef2)" style="fill: none; stroke-dasharray: 2.96,1.28; stroke-dashoffset: 0; stroke: #b0b0b0; stroke-opacity: 0.7; stroke-width: 0.8"/>
     </g>
     <g id="line2d_56">
      <g>
       <use xlink:href="#m78c604ac0e" x="702.8475" y="458.44" style="stroke: #000000; stroke-width: 0.8"/>
      </g>
     </g>
     <g id="text_28">
      <!-- 27 -->
      <g transform="translate(696.485 473.038437) scale(0.1 -0.1)">
       <use xlink:href="#DejaVuSans-32"/>
       <use xlink:href="#DejaVuSans-37" transform="translate(63.623047 0)"/>
      </g>
     </g>
    </g>
    <g id="xtick_29">
     <g id="line2d_57">
      <path d="M 725.628182 458.44 
L 725.628182 45.024 
" clip-path="url(#p08b024fef2)" style="fill: none; stroke-dasharray: 2.96,1.28; stroke-dashoffset: 0; stroke: #b0b0b0; stroke-opacity: 0.7; stroke-width: 0.8"/>
     </g>
     <g id="line2d_58">
      <g>
       <use xlink:href="#m78c604ac0e" x="725.628182" y="458.44" style="stroke: #000000; stroke-width: 0.8"/>
      </g>
     </g>
     <g id="text_29">
      <!-- 28 -->
      <g transform="translate(719.265682 473.038437) scale(0.1 -0.1)">
       <use xlink:href="#DejaVuSans-32"/>
       <use xlink:href="#DejaVuSans-38" transform="translate(63.623047 0)"/>
      </g>
     </g>
    </g>
    <g id="xtick_30">
     <g id="line2d_59">
      <path d="M 748.408864 458.44 
L 748.408864 45.024 
" clip-path="url(#p08b024fef2)" style="fill: none; stroke-dasharray: 2.96,1.28; stroke-dashoffset: 0; stroke: #b0b0b0; stroke-opacity: 0.7; stroke-width: 0.8"/>
     </g>
     <g id="line2d_60">
      <g>
       <use xlink:href="#m78c604ac0e" x="748.408864" y="458.44" style="stroke: #000000; stroke-width: 0.8"/>
      </g>
     </g>
     <g id="text_30">
      <!-- 29 -->
      <g transform="translate(742.046364 473.038437) scale(0.1 -0.1)">
       <use xlink:href="#DejaVuSans-32"/>
       <use xlink:href="#DejaVuSans-39" transform="translate(63.623047 0)"/>
      </g>
     </g>
    </g>
    <g id="xtick_31">
     <g id="line2d_61">
      <path d="M 771.189545 458.44 
L 771.189545 45.024 
" clip-path="url(#p08b024fef2)" style="fill: none; stroke-dasharray: 2.96,1.28; stroke-dashoffset: 0; stroke: #b0b0b0; stroke-opacity: 0.7; stroke-width: 0.8"/>
     </g>
     <g id="line2d_62">
      <g>
       <use xlink:href="#m78c604ac0e" x="771.189545" y="458.44" style="stroke: #000000; stroke-width: 0.8"/>
      </g>
     </g>
     <g id="text_31">
      <!-- 30 -->
      <g transform="translate(764.827045 473.038437) scale(0.1 -0.1)">
       <use xlink:href="#DejaVuSans-33"/>
       <use xlink:href="#DejaVuSans-30" transform="translate(63.623047 0)"/>
      </g>
     </g>
    </g>
    <g id="xtick_32">
     <g id="line2d_63">
      <path d="M 793.970227 458.44 
L 793.970227 45.024 
" clip-path="url(#p08b024fef2)" style="fill: none; stroke-dasharray: 2.96,1.28; stroke-dashoffset: 0; stroke: #b0b0b0; stroke-opacity: 0.7; stroke-width: 0.8"/>
     </g>
     <g id="line2d_64">
      <g>
       <use xlink:href="#m78c604ac0e" x="793.970227" y="458.44" style="stroke: #000000; stroke-width: 0.8"/>
      </g>
     </g>
     <g id="text_32">
      <!-- 31 -->
      <g transform="translate(787.607727 473.038437) scale(0.1 -0.1)">
       <use xlink:href="#DejaVuSans-33"/>
       <use xlink:href="#DejaVuSans-31" transform="translate(63.623047 0)"/>
      </g>
     </g>
    </g>
    <g id="xtick_33">
     <g id="line2d_65">
      <path d="M 816.750909 458.44 
L 816.750909 45.024 
" clip-path="url(#p08b024fef2)" style="fill: none; stroke-dasharray: 2.96,1.28; stroke-dashoffset: 0; stroke: #b0b0b0; stroke-opacity: 0.7; stroke-width: 0.8"/>
     </g>
     <g id="line2d_66">
      <g>
       <use xlink:href="#m78c604ac0e" x="816.750909" y="458.44" style="stroke: #000000; stroke-width: 0.8"/>
      </g>
     </g>
     <g id="text_33">
      <!-- 32 -->
      <g transform="translate(810.388409 473.038437) scale(0.1 -0.1)">
       <use xlink:href="#DejaVuSans-33"/>
       <use xlink:href="#DejaVuSans-32" transform="translate(63.623047 0)"/>
      </g>
     </g>
    </g>
    <g id="text_34">
     <!-- Layer Index (0=Embeddings) -->
     <g transform="translate(349.886094 489.755937) scale(0.14 -0.14)">
      <defs>
       <path id="DejaVuSans-4c" d="M 628 4666 
L 1259 4666 
L 1259 531 
L 3531 531 
L 3531 0 
L 628 0 
L 628 4666 
z
" transform="scale(0.015625)"/>
       <path id="DejaVuSans-61" d="M 2194 1759 
Q 1497 1759 1228 1600 
Q 959 1441 959 1056 
Q 959 750 1161 570 
Q 1363 391 1709 391 
Q 2188 391 2477 730 
Q 2766 1069 2766 1631 
L 2766 1759 
L 2194 1759 
z
M 3341 1997 
L 3341 0 
L 2766 0 
L 2766 531 
Q 2569 213 2275 61 
Q 1981 -91 1556 -91 
Q 1019 -91 701 211 
Q 384 513 384 1019 
Q 384 1609 779 1909 
Q 1175 2209 1959 2209 
L 2766 2209 
L 2766 2266 
Q 2766 2663 2505 2880 
Q 2244 3097 1772 3097 
Q 1472 3097 1187 3025 
Q 903 2953 641 2809 
L 641 3341 
Q 956 3463 1253 3523 
Q 1550 3584 1831 3584 
Q 2591 3584 2966 3190 
Q 3341 2797 3341 1997 
z
" transform="scale(0.015625)"/>
       <path id="DejaVuSans-79" d="M 2059 -325 
Q 1816 -950 1584 -1140 
Q 1353 -1331 966 -1331 
L 506 -1331 
L 506 -850 
L 844 -850 
Q 1081 -850 1212 -737 
Q 1344 -625 1503 -206 
L 1606 56 
L 191 3500 
L 800 3500 
L 1894 763 
L 2988 3500 
L 3597 3500 
L 2059 -325 
z
" transform="scale(0.015625)"/>
       <path id="DejaVuSans-65" d="M 3597 1894 
L 3597 1613 
L 953 1613 
Q 991 1019 1311 708 
Q 1631 397 2203 397 
Q 2534 397 2845 478 
Q 3156 559 3463 722 
L 3463 178 
Q 3153 47 2828 -22 
Q 2503 -91 2169 -91 
Q 1331 -91 842 396 
Q 353 884 353 1716 
Q 353 2575 817 3079 
Q 1281 3584 2069 3584 
Q 2775 3584 3186 3129 
Q 3597 2675 3597 1894 
z
M 3022 2063 
Q 3016 2534 2758 2815 
Q 2500 3097 2075 3097 
Q 1594 3097 1305 2825 
Q 1016 2553 972 2059 
L 3022 2063 
z
" transform="scale(0.015625)"/>
       <path id="DejaVuSans-72" d="M 2631 2963 
Q 2534 3019 2420 3045 
Q 2306 3072 2169 3072 
Q 1681 3072 1420 2755 
Q 1159 2438 1159 1844 
L 1159 0 
L 581 0 
L 581 3500 
L 1159 3500 
L 1159 2956 
Q 1341 3275 1631 3429 
Q 1922 3584 2338 3584 
Q 2397 3584 2469 3576 
Q 2541 3569 2628 3553 
L 2631 2963 
z
" transform="scale(0.015625)"/>
       <path id="DejaVuSans-20" transform="scale(0.015625)"/>
       <path id="DejaVuSans-49" d="M 628 4666 
L 1259 4666 
L 1259 0 
L 628 0 
L 628 4666 
z
" transform="scale(0.015625)"/>
       <path id="DejaVuSans-6e" d="M 3513 2113 
L 3513 0 
L 2938 0 
L 2938 2094 
Q 2938 2591 2744 2837 
Q 2550 3084 2163 3084 
Q 1697 3084 1428 2787 
Q 1159 2491 1159 1978 
L 1159 0 
L 581 0 
L 581 3500 
L 1159 3500 
L 1159 2956 
Q 1366 3272 1645 3428 
Q 1925 3584 2291 3584 
Q 2894 3584 3203 3211 
Q 3513 2838 3513 2113 
z
" transform="scale(0.015625)"/>
       <path id="DejaVuSans-64" d="M 2906 2969 
L 2906 4863 
L 3481 4863 
L 3481 0 
L 2906 0 
L 2906 525 
Q 2725 213 2448 61 
Q 2172 -91 1784 -91 
Q 1150 -91 751 415 
Q 353 922 353 1747 
Q 353 2572 751 3078 
Q 1150 3584 1784 3584 
Q 2172 3584 2448 3432 
Q 2725 3281 2906 2969 
z
M 947 1747 
Q 947 1113 1208 752 
Q 1469 391 1925 391 
Q 2381 391 2643 752 
Q 2906 1113 2906 1747 
Q 2906 2381 2643 2742 
Q 2381 3103 1925 3103 
Q 1469 3103 1208 2742 
Q 947 2381 947 1747 
z
" transform="scale(0.015625)"/>
       <path id="DejaVuSans-78" d="M 3513 3500 
L 2247 1797 
L 3578 0 
L 2900 0 
L 1881 1375 
L 863 0 
L 184 0 
L 1544 1831 
L 300 3500 
L 978 3500 
L 1906 2253 
L 2834 3500 
L 3513 3500 
z
" transform="scale(0.015625)"/>
       <path id="DejaVuSans-28" d="M 1984 4856 
Q 1566 4138 1362 3434 
Q 1159 2731 1159 2009 
Q 1159 1288 1364 580 
Q 1569 -128 1984 -844 
L 1484 -844 
Q 1016 -109 783 600 
Q 550 1309 550 2009 
Q 550 2706 781 3412 
Q 1013 4119 1484 4856 
L 1984 4856 
z
" transform="scale(0.015625)"/>
       <path id="DejaVuSans-3d" d="M 678 2906 
L 4684 2906 
L 4684 2381 
L 678 2381 
L 678 2906 
z
M 678 1631 
L 4684 1631 
L 4684 1100 
L 678 1100 
L 678 1631 
z
" transform="scale(0.015625)"/>
       <path id="DejaVuSans-45" d="M 628 4666 
L 3578 4666 
L 3578 4134 
L 1259 4134 
L 1259 2753 
L 3481 2753 
L 3481 2222 
L 1259 2222 
L 1259 531 
L 3634 531 
L 3634 0 
L 628 0 
L 628 4666 
z
" transform="scale(0.015625)"/>
       <path id="DejaVuSans-6d" d="M 3328 2828 
Q 3544 3216 3844 3400 
Q 4144 3584 4550 3584 
Q 5097 3584 5394 3201 
Q 5691 2819 5691 2113 
L 5691 0 
L 5113 0 
L 5113 2094 
Q 5113 2597 4934 2840 
Q 4756 3084 4391 3084 
Q 3944 3084 3684 2787 
Q 3425 2491 3425 1978 
L 3425 0 
L 2847 0 
L 2847 2094 
Q 2847 2600 2669 2842 
Q 2491 3084 2119 3084 
Q 1678 3084 1418 2786 
Q 1159 2488 1159 1978 
L 1159 0 
L 581 0 
L 581 3500 
L 1159 3500 
L 1159 2956 
Q 1356 3278 1631 3431 
Q 1906 3584 2284 3584 
Q 2666 3584 2933 3390 
Q 3200 3197 3328 2828 
z
" transform="scale(0.015625)"/>
       <path id="DejaVuSans-62" d="M 3116 1747 
Q 3116 2381 2855 2742 
Q 2594 3103 2138 3103 
Q 1681 3103 1420 2742 
Q 1159 2381 1159 1747 
Q 1159 1113 1420 752 
Q 1681 391 2138 391 
Q 2594 391 2855 752 
Q 3116 1113 3116 1747 
z
M 1159 2969 
Q 1341 3281 1617 3432 
Q 1894 3584 2278 3584 
Q 2916 3584 3314 3078 
Q 3713 2572 3713 1747 
Q 3713 922 3314 415 
Q 2916 -91 2278 -91 
Q 1894 -91 1617 61 
Q 1341 213 1159 525 
L 1159 0 
L 581 0 
L 581 4863 
L 1159 4863 
L 1159 2969 
z
" transform="scale(0.015625)"/>
       <path id="DejaVuSans-69" d="M 603 3500 
L 1178 3500 
L 1178 0 
L 603 0 
L 603 3500 
z
M 603 4863 
L 1178 4863 
L 1178 4134 
L 603 4134 
L 603 4863 
z
" transform="scale(0.015625)"/>
       <path id="DejaVuSans-67" d="M 2906 1791 
Q 2906 2416 2648 2759 
Q 2391 3103 1925 3103 
Q 1463 3103 1205 2759 
Q 947 2416 947 1791 
Q 947 1169 1205 825 
Q 1463 481 1925 481 
Q 2391 481 2648 825 
Q 2906 1169 2906 1791 
z
M 3481 434 
Q 3481 -459 3084 -895 
Q 2688 -1331 1869 -1331 
Q 1566 -1331 1297 -1286 
Q 1028 -1241 775 -1147 
L 775 -588 
Q 1028 -725 1275 -790 
Q 1522 -856 1778 -856 
Q 2344 -856 2625 -561 
Q 2906 -266 2906 331 
L 2906 616 
Q 2728 306 2450 153 
Q 2172 0 1784 0 
Q 1141 0 747 490 
Q 353 981 353 1791 
Q 353 2603 747 3093 
Q 1141 3584 1784 3584 
Q 2172 3584 2450 3431 
Q 2728 3278 2906 2969 
L 2906 3500 
L 3481 3500 
L 3481 434 
z
" transform="scale(0.015625)"/>
       <path id="DejaVuSans-73" d="M 2834 3397 
L 2834 2853 
Q 2591 2978 2328 3040 
Q 2066 3103 1784 3103 
Q 1356 3103 1142 2972 
Q 928 2841 928 2578 
Q 928 2378 1081 2264 
Q 1234 2150 1697 2047 
L 1894 2003 
Q 2506 1872 2764 1633 
Q 3022 1394 3022 966 
Q 3022 478 2636 193 
Q 2250 -91 1575 -91 
Q 1294 -91 989 -36 
Q 684 19 347 128 
L 347 722 
Q 666 556 975 473 
Q 1284 391 1588 391 
Q 1994 391 2212 530 
Q 2431 669 2431 922 
Q 2431 1156 2273 1281 
Q 2116 1406 1581 1522 
L 1381 1569 
Q 847 1681 609 1914 
Q 372 2147 372 2553 
Q 372 3047 722 3315 
Q 1072 3584 1716 3584 
Q 2034 3584 2315 3537 
Q 2597 3491 2834 3397 
z
" transform="scale(0.015625)"/>
       <path id="DejaVuSans-29" d="M 513 4856 
L 1013 4856 
Q 1481 4119 1714 3412 
Q 1947 2706 1947 2009 
Q 1947 1309 1714 600 
Q 1481 -109 1013 -844 
L 513 -844 
Q 928 -128 1133 580 
Q 1338 1288 1338 2009 
Q 1338 2731 1133 3434 
Q 928 4138 513 4856 
z
" transform="scale(0.015625)"/>
      </defs>
      <use xlink:href="#DejaVuSans-4c"/>
      <use xlink:href="#DejaVuSans-61" transform="translate(55.712891 0)"/>
      <use xlink:href="#DejaVuSans-79" transform="translate(116.992188 0)"/>
      <use xlink:href="#DejaVuSans-65" transform="translate(176.171875 0)"/>
      <use xlink:href="#DejaVuSans-72" transform="translate(237.695312 0)"/>
      <use xlink:href="#DejaVuSans-20" transform="translate(278.808594 0)"/>
      <use xlink:href="#DejaVuSans-49" transform="translate(310.595703 0)"/>
      <use xlink:href="#DejaVuSans-6e" transform="translate(340.087891 0)"/>
      <use xlink:href="#DejaVuSans-64" transform="translate(403.466797 0)"/>
      <use xlink:href="#DejaVuSans-65" transform="translate(466.943359 0)"/>
      <use xlink:href="#DejaVuSans-78" transform="translate(526.716797 0)"/>
      <use xlink:href="#DejaVuSans-20" transform="translate(585.896484 0)"/>
      <use xlink:href="#DejaVuSans-28" transform="translate(617.683594 0)"/>
      <use xlink:href="#DejaVuSans-30" transform="translate(656.697266 0)"/>
      <use xlink:href="#DejaVuSans-3d" transform="translate(720.320312 0)"/>
      <use xlink:href="#DejaVuSans-45" transform="translate(804.109375 0)"/>
      <use xlink:href="#DejaVuSans-6d" transform="translate(867.292969 0)"/>
      <use xlink:href="#DejaVuSans-62" transform="translate(964.705078 0)"/>
      <use xlink:href="#DejaVuSans-65" transform="translate(1028.181641 0)"/>
      <use xlink:href="#DejaVuSans-64" transform="translate(1089.705078 0)"/>
      <use xlink:href="#DejaVuSans-64" transform="translate(1153.181641 0)"/>
      <use xlink:href="#DejaVuSans-69" transform="translate(1216.658203 0)"/>
      <use xlink:href="#DejaVuSans-6e" transform="translate(1244.441406 0)"/>
      <use xlink:href="#DejaVuSans-67" transform="translate(1307.820312 0)"/>
      <use xlink:href="#DejaVuSans-73" transform="translate(1371.296875 0)"/>
      <use xlink:href="#DejaVuSans-29" transform="translate(1423.396484 0)"/>
     </g>
    </g>
   </g>
   <g id="matplotlib.axis_2">
    <g id="ytick_1">
     <g id="line2d_67">
      <path d="M 51.32 458.44 
L 853.2 458.44 
" clip-path="url(#p08b024fef2)" style="fill: none; stroke-dasharray: 2.96,1.28; stroke-dashoffset: 0; stroke: #b0b0b0; stroke-opacity: 0.7; stroke-width: 0.8"/>
     </g>
     <g id="line2d_68">
      <defs>
       <path id="mc85ae1b0fd" d="M 0 0 
L -3.5 0 
" style="stroke: #000000; stroke-width: 0.8"/>
      </defs>
      <g>
       <use xlink:href="#mc85ae1b0fd" x="51.32" y="458.44" style="stroke: #000000; stroke-width: 0.8"/>
      </g>
     </g>
     <g id="text_35">
      <!-- 0.0 -->
      <g transform="translate(28.416875 462.239219) scale(0.1 -0.1)">
       <defs>
        <path id="DejaVuSans-2e" d="M 684 794 
L 1344 794 
L 1344 0 
L 684 0 
L 684 794 
z
" transform="scale(0.015625)"/>
       </defs>
       <use xlink:href="#DejaVuSans-30"/>
       <use xlink:href="#DejaVuSans-2e" transform="translate(63.623047 0)"/>
       <use xlink:href="#DejaVuSans-30" transform="translate(95.410156 0)"/>
      </g>
     </g>
    </g>
    <g id="ytick_2">
     <g id="line2d_69">
      <path d="M 51.32 379.694095 
L 853.2 379.694095 
" clip-path="url(#p08b024fef2)" style="fill: none; stroke-dasharray: 2.96,1.28; stroke-dashoffset: 0; stroke: #b0b0b0; stroke-opacity: 0.7; stroke-width: 0.8"/>
     </g>
     <g id="line2d_70">
      <g>
       <use xlink:href="#mc85ae1b0fd" x="51.32" y="379.694095" style="stroke: #000000; stroke-width: 0.8"/>
      </g>
     </g>
     <g id="text_36">
      <!-- 0.2 -->
      <g transform="translate(28.416875 383.493314) scale(0.1 -0.1)">
       <use xlink:href="#DejaVuSans-30"/>
       <use xlink:href="#DejaVuSans-2e" transform="translate(63.623047 0)"/>
       <use xlink:href="#DejaVuSans-32" transform="translate(95.410156 0)"/>
      </g>
     </g>
    </g>
    <g id="ytick_3">
     <g id="line2d_71">
      <path d="M 51.32 300.94819 
L 853.2 300.94819 
" clip-path="url(#p08b024fef2)" style="fill: none; stroke-dasharray: 2.96,1.28; stroke-dashoffset: 0; stroke: #b0b0b0; stroke-opacity: 0.7; stroke-width: 0.8"/>
     </g>
     <g id="line2d_72">
      <g>
       <use xlink:href="#mc85ae1b0fd" x="51.32" y="300.94819" style="stroke: #000000; stroke-width: 0.8"/>
      </g>
     </g>
     <g id="text_37">
      <!-- 0.4 -->
      <g transform="translate(28.416875 304.747409) scale(0.1 -0.1)">
       <use xlink:href="#DejaVuSans-30"/>
       <use xlink:href="#DejaVuSans-2e" transform="translate(63.623047 0)"/>
       <use xlink:href="#DejaVuSans-34" transform="translate(95.410156 0)"/>
      </g>
     </g>
    </g>
    <g id="ytick_4">
     <g id="line2d_73">
      <path d="M 51.32 222.202286 
L 853.2 222.202286 
" clip-path="url(#p08b024fef2)" style="fill: none; stroke-dasharray: 2.96,1.28; stroke-dashoffset: 0; stroke: #b0b0b0; stroke-opacity: 0.7; stroke-width: 0.8"/>
     </g>
     <g id="line2d_74">
      <g>
       <use xlink:href="#mc85ae1b0fd" x="51.32" y="222.202286" style="stroke: #000000; stroke-width: 0.8"/>
      </g>
     </g>
     <g id="text_38">
      <!-- 0.6 -->
      <g transform="translate(28.416875 226.001504) scale(0.1 -0.1)">
       <use xlink:href="#DejaVuSans-30"/>
       <use xlink:href="#DejaVuSans-2e" transform="translate(63.623047 0)"/>
       <use xlink:href="#DejaVuSans-36" transform="translate(95.410156 0)"/>
      </g>
     </g>
    </g>
    <g id="ytick_5">
     <g id="line2d_75">
      <path d="M 51.32 143.456381 
L 853.2 143.456381 
" clip-path="url(#p08b024fef2)" style="fill: none; stroke-dasharray: 2.96,1.28; stroke-dashoffset: 0; stroke: #b0b0b0; stroke-opacity: 0.7; stroke-width: 0.8"/>
     </g>
     <g id="line2d_76">
      <g>
       <use xlink:href="#mc85ae1b0fd" x="51.32" y="143.456381" style="stroke: #000000; stroke-width: 0.8"/>
      </g>
     </g>
     <g id="text_39">
      <!-- 0.8 -->
      <g transform="translate(28.416875 147.2556) scale(0.1 -0.1)">
       <use xlink:href="#DejaVuSans-30"/>
       <use xlink:href="#DejaVuSans-2e" transform="translate(63.623047 0)"/>
       <use xlink:href="#DejaVuSans-38" transform="translate(95.410156 0)"/>
      </g>
     </g>
    </g>
    <g id="ytick_6">
     <g id="line2d_77">
      <path d="M 51.32 64.710476 
L 853.2 64.710476 
" clip-path="url(#p08b024fef2)" style="fill: none; stroke-dasharray: 2.96,1.28; stroke-dashoffset: 0; stroke: #b0b0b0; stroke-opacity: 0.7; stroke-width: 0.8"/>
     </g>
     <g id="line2d_78">
      <g>
       <use xlink:href="#mc85ae1b0fd" x="51.32" y="64.710476" style="stroke: #000000; stroke-width: 0.8"/>
      </g>
     </g>
     <g id="text_40">
      <!-- 1.0 -->
      <g transform="translate(28.416875 68.509695) scale(0.1 -0.1)">
       <use xlink:href="#DejaVuSans-31"/>
       <use xlink:href="#DejaVuSans-2e" transform="translate(63.623047 0)"/>
       <use xlink:href="#DejaVuSans-30" transform="translate(95.410156 0)"/>
      </g>
     </g>
    </g>
    <g id="text_41">
     <!-- Average Digit Prediction Accuracy -->
     <g transform="translate(21.505313 370.350281) rotate(-90) scale(0.14 -0.14)">
      <defs>
       <path id="DejaVuSans-41" d="M 2188 4044 
L 1331 1722 
L 3047 1722 
L 2188 4044 
z
M 1831 4666 
L 2547 4666 
L 4325 0 
L 3669 0 
L 3244 1197 
L 1141 1197 
L 716 0 
L 50 0 
L 1831 4666 
z
" transform="scale(0.015625)"/>
       <path id="DejaVuSans-76" d="M 191 3500 
L 800 3500 
L 1894 563 
L 2988 3500 
L 3597 3500 
L 2284 0 
L 1503 0 
L 191 3500 
z
" transform="scale(0.015625)"/>
       <path id="DejaVuSans-44" d="M 1259 4147 
L 1259 519 
L 2022 519 
Q 2988 519 3436 956 
Q 3884 1394 3884 2338 
Q 3884 3275 3436 3711 
Q 2988 4147 2022 4147 
L 1259 4147 
z
M 628 4666 
L 1925 4666 
Q 3281 4666 3915 4102 
Q 4550 3538 4550 2338 
Q 4550 1131 3912 565 
Q 3275 0 1925 0 
L 628 0 
L 628 4666 
z
" transform="scale(0.015625)"/>
       <path id="DejaVuSans-74" d="M 1172 4494 
L 1172 3500 
L 2356 3500 
L 2356 3053 
L 1172 3053 
L 1172 1153 
Q 1172 725 1289 603 
Q 1406 481 1766 481 
L 2356 481 
L 2356 0 
L 1766 0 
Q 1100 0 847 248 
Q 594 497 594 1153 
L 594 3053 
L 172 3053 
L 172 3500 
L 594 3500 
L 594 4494 
L 1172 4494 
z
" transform="scale(0.015625)"/>
       <path id="DejaVuSans-50" d="M 1259 4147 
L 1259 2394 
L 2053 2394 
Q 2494 2394 2734 2622 
Q 2975 2850 2975 3272 
Q 2975 3691 2734 3919 
Q 2494 4147 2053 4147 
L 1259 4147 
z
M 628 4666 
L 2053 4666 
Q 2838 4666 3239 4311 
Q 3641 3956 3641 3272 
Q 3641 2581 3239 2228 
Q 2838 1875 2053 1875 
L 1259 1875 
L 1259 0 
L 628 0 
L 628 4666 
z
" transform="scale(0.015625)"/>
       <path id="DejaVuSans-63" d="M 3122 3366 
L 3122 2828 
Q 2878 2963 2633 3030 
Q 2388 3097 2138 3097 
Q 1578 3097 1268 2742 
Q 959 2388 959 1747 
Q 959 1106 1268 751 
Q 1578 397 2138 397 
Q 2388 397 2633 464 
Q 2878 531 3122 666 
L 3122 134 
Q 2881 22 2623 -34 
Q 2366 -91 2075 -91 
Q 1284 -91 818 406 
Q 353 903 353 1747 
Q 353 2603 823 3093 
Q 1294 3584 2113 3584 
Q 2378 3584 2631 3529 
Q 2884 3475 3122 3366 
z
" transform="scale(0.015625)"/>
       <path id="DejaVuSans-6f" d="M 1959 3097 
Q 1497 3097 1228 2736 
Q 959 2375 959 1747 
Q 959 1119 1226 758 
Q 1494 397 1959 397 
Q 2419 397 2687 759 
Q 2956 1122 2956 1747 
Q 2956 2369 2687 2733 
Q 2419 3097 1959 3097 
z
M 1959 3584 
Q 2709 3584 3137 3096 
Q 3566 2609 3566 1747 
Q 3566 888 3137 398 
Q 2709 -91 1959 -91 
Q 1206 -91 779 398 
Q 353 888 353 1747 
Q 353 2609 779 3096 
Q 1206 3584 1959 3584 
z
" transform="scale(0.015625)"/>
       <path id="DejaVuSans-75" d="M 544 1381 
L 544 3500 
L 1119 3500 
L 1119 1403 
Q 1119 906 1312 657 
Q 1506 409 1894 409 
Q 2359 409 2629 706 
Q 2900 1003 2900 1516 
L 2900 3500 
L 3475 3500 
L 3475 0 
L 2900 0 
L 2900 538 
Q 2691 219 2414 64 
Q 2138 -91 1772 -91 
Q 1169 -91 856 284 
Q 544 659 544 1381 
z
M 1991 3584 
L 1991 3584 
z
" transform="scale(0.015625)"/>
      </defs>
      <use xlink:href="#DejaVuSans-41"/>
      <use xlink:href="#DejaVuSans-76" transform="translate(62.533203 0)"/>
      <use xlink:href="#DejaVuSans-65" transform="translate(121.712891 0)"/>
      <use xlink:href="#DejaVuSans-72" transform="translate(183.236328 0)"/>
      <use xlink:href="#DejaVuSans-61" transform="translate(224.349609 0)"/>
      <use xlink:href="#DejaVuSans-67" transform="translate(285.628906 0)"/>
      <use xlink:href="#DejaVuSans-65" transform="translate(349.105469 0)"/>
      <use xlink:href="#DejaVuSans-20" transform="translate(410.628906 0)"/>
      <use xlink:href="#DejaVuSans-44" transform="translate(442.416016 0)"/>
      <use xlink:href="#DejaVuSans-69" transform="translate(519.417969 0)"/>
      <use xlink:href="#DejaVuSans-67" transform="translate(547.201172 0)"/>
      <use xlink:href="#DejaVuSans-69" transform="translate(610.677734 0)"/>
      <use xlink:href="#DejaVuSans-74" transform="translate(638.460938 0)"/>
      <use xlink:href="#DejaVuSans-20" transform="translate(677.669922 0)"/>
      <use xlink:href="#DejaVuSans-50" transform="translate(709.457031 0)"/>
      <use xlink:href="#DejaVuSans-72" transform="translate(768.009766 0)"/>
      <use xlink:href="#DejaVuSans-65" transform="translate(806.873047 0)"/>
      <use xlink:href="#DejaVuSans-64" transform="translate(868.396484 0)"/>
      <use xlink:href="#DejaVuSans-69" transform="translate(931.873047 0)"/>
      <use xlink:href="#DejaVuSans-63" transform="translate(959.65625 0)"/>
      <use xlink:href="#DejaVuSans-74" transform="translate(1014.636719 0)"/>
      <use xlink:href="#DejaVuSans-69" transform="translate(1053.845703 0)"/>
      <use xlink:href="#DejaVuSans-6f" transform="translate(1081.628906 0)"/>
      <use xlink:href="#DejaVuSans-6e" transform="translate(1142.810547 0)"/>
      <use xlink:href="#DejaVuSans-20" transform="translate(1206.189453 0)"/>
      <use xlink:href="#DejaVuSans-41" transform="translate(1237.976562 0)"/>
      <use xlink:href="#DejaVuSans-63" transform="translate(1304.634766 0)"/>
      <use xlink:href="#DejaVuSans-63" transform="translate(1359.615234 0)"/>
      <use xlink:href="#DejaVuSans-75" transform="translate(1414.595703 0)"/>
      <use xlink:href="#DejaVuSans-72" transform="translate(1477.974609 0)"/>
      <use xlink:href="#DejaVuSans-61" transform="translate(1519.087891 0)"/>
      <use xlink:href="#DejaVuSans-63" transform="translate(1580.367188 0)"/>
      <use xlink:href="#DejaVuSans-79" transform="translate(1635.347656 0)"/>
     </g>
    </g>
   </g>
   <g id="line2d_79">
    <path d="M 87.769091 378.906636 
L 110.549773 370.244587 
L 133.330455 364.732373 
L 156.111136 366.307291 
L 178.891818 366.307291 
L 201.6725 366.307291 
L 224.453182 366.307291 
L 247.233864 370.244587 
L 270.014545 366.307291 
L 292.795227 366.307291 
L 315.575909 361.582537 
L 338.356591 366.307291 
L 361.137273 366.307291 
L 383.917955 360.007619 
L 406.698636 363.944914 
L 429.479318 363.944914 
L 452.26 356.070324 
L 475.040682 341.896061 
L 497.821364 223.777204 
L 520.602045 197.003596 
L 543.382727 195.428678 
L 566.163409 152.90589 
L 588.944091 134.006872 
L 611.724773 104.870888 
L 634.505455 96.208838 
L 657.286136 93.846461 
L 680.066818 91.484084 
L 702.8475 94.63392 
L 725.628182 85.97187 
L 748.408864 80.459657 
L 771.189545 82.034575 
L 793.970227 85.184411 
L 816.750909 84.396952 
" clip-path="url(#p08b024fef2)" style="fill: none; stroke: #0000ff; stroke-width: 2.5; stroke-linecap: square"/>
   </g>
   <g id="line2d_80">
    <path d="M 87.769091 408.83008 
L 110.549773 404.105326 
L 133.330455 408.83008 
L 156.111136 408.042621 
L 178.891818 408.83008 
L 201.6725 413.554834 
L 224.453182 417.49213 
L 247.233864 408.83008 
L 270.014545 419.854507 
L 292.795227 427.729097 
L 315.575909 421.429425 
L 338.356591 417.49213 
L 361.137273 404.892785 
L 383.917955 410.404998 
L 406.698636 419.854507 
L 429.479318 414.342293 
L 452.26 404.892785 
L 475.040682 419.854507 
L 497.821364 413.554834 
L 520.602045 401.742949 
L 543.382727 408.042621 
L 566.163409 379.694095 
L 588.944091 371.032046 
L 611.724773 365.519832 
L 634.505455 360.795078 
L 657.286136 364.732373 
L 680.066818 357.645242 
L 702.8475 352.133029 
L 725.628182 365.519832 
L 748.408864 336.383848 
L 771.189545 335.596389 
L 793.970227 333.234011 
L 816.750909 334.02147 
" clip-path="url(#p08b024fef2)" style="fill: none; stroke: #008000; stroke-width: 2.5; stroke-linecap: square"/>
   </g>
   <g id="line2d_81">
    <path d="M 87.769091 425.36672 
L 110.549773 425.36672 
L 133.330455 425.36672 
L 156.111136 419.854507 
L 178.891818 425.36672 
L 201.6725 425.36672 
L 224.453182 425.36672 
L 247.233864 429.304015 
L 270.014545 411.979916 
L 292.795227 419.854507 
L 315.575909 421.429425 
L 338.356591 412.767375 
L 361.137273 419.067048 
L 383.917955 421.429425 
L 406.698636 426.154179 
L 429.479318 411.979916 
L 452.26 418.279589 
L 475.040682 409.617539 
L 497.821364 416.70467 
L 520.602045 415.917211 
L 543.382727 415.129752 
L 566.163409 413.554834 
L 588.944091 415.917211 
L 611.724773 422.216884 
L 634.505455 414.342293 
L 657.286136 419.067048 
L 680.066818 420.641966 
L 702.8475 419.854507 
L 725.628182 420.641966 
L 748.408864 420.641966 
L 771.189545 419.854507 
L 793.970227 415.917211 
L 816.750909 415.917211 
" clip-path="url(#p08b024fef2)" style="fill: none; stroke: #ff0000; stroke-width: 2.5; stroke-linecap: square"/>
   </g>
   <g id="patch_3">
    <path d="M 51.32 458.44 
L 51.32 45.024 
" style="fill: none; stroke: #000000; stroke-width: 0.8; stroke-linejoin: miter; stroke-linecap: square"/>
   </g>
   <g id="patch_4">
    <path d="M 853.2 458.44 
L 853.2 45.024 
" style="fill: none; stroke: #000000; stroke-width: 0.8; stroke-linejoin: miter; stroke-linecap: square"/>
   </g>
   <g id="patch_5">
    <path d="M 51.32 458.44 
L 853.2 458.44 
" style="fill: none; stroke: #000000; stroke-width: 0.8; stroke-linejoin: miter; stroke-linecap: square"/>
   </g>
   <g id="patch_6">
    <path d="M 51.32 45.024 
L 853.2 45.024 
" style="fill: none; stroke: #000000; stroke-width: 0.8; stroke-linejoin: miter; stroke-linecap: square"/>
   </g>
   <g id="text_42">
    <!-- mistralaiMistral-7B-Instruct-v0.2: Aggregated 3-Digit Addition Accuracy (Linear Probe) -->
    <g transform="translate(108.565 21.1075) scale(0.16 -0.16)">
     <defs>
      <path id="DejaVuSans-6c" d="M 603 4863 
L 1178 4863 
L 1178 0 
L 603 0 
L 603 4863 
z
" transform="scale(0.015625)"/>
      <path id="DejaVuSans-4d" d="M 628 4666 
L 1569 4666 
L 2759 1491 
L 3956 4666 
L 4897 4666 
L 4897 0 
L 4281 0 
L 4281 4097 
L 3078 897 
L 2444 897 
L 1241 4097 
L 1241 0 
L 628 0 
L 628 4666 
z
" transform="scale(0.015625)"/>
      <path id="DejaVuSans-2d" d="M 313 2009 
L 1997 2009 
L 1997 1497 
L 313 1497 
L 313 2009 
z
" transform="scale(0.015625)"/>
      <path id="DejaVuSans-42" d="M 1259 2228 
L 1259 519 
L 2272 519 
Q 2781 519 3026 730 
Q 3272 941 3272 1375 
Q 3272 1813 3026 2020 
Q 2781 2228 2272 2228 
L 1259 2228 
z
M 1259 4147 
L 1259 2741 
L 2194 2741 
Q 2656 2741 2882 2914 
Q 3109 3088 3109 3444 
Q 3109 3797 2882 3972 
Q 2656 4147 2194 4147 
L 1259 4147 
z
M 628 4666 
L 2241 4666 
Q 2963 4666 3353 4366 
Q 3744 4066 3744 3513 
Q 3744 3084 3544 2831 
Q 3344 2578 2956 2516 
Q 3422 2416 3680 2098 
Q 3938 1781 3938 1306 
Q 3938 681 3513 340 
Q 3088 0 2303 0 
L 628 0 
L 628 4666 
z
" transform="scale(0.015625)"/>
      <path id="DejaVuSans-3a" d="M 750 794 
L 1409 794 
L 1409 0 
L 750 0 
L 750 794 
z
M 750 3309 
L 1409 3309 
L 1409 2516 
L 750 2516 
L 750 3309 
z
" transform="scale(0.015625)"/>
     </defs>
     <use xlink:href="#DejaVuSans-6d"/>
     <use xlink:href="#DejaVuSans-69" transform="translate(97.412109 0)"/>
     <use xlink:href="#DejaVuSans-73" transform="translate(125.195312 0)"/>
     <use xlink:href="#DejaVuSans-74" transform="translate(177.294922 0)"/>
     <use xlink:href="#DejaVuSans-72" transform="translate(216.503906 0)"/>
     <use xlink:href="#DejaVuSans-61" transform="translate(257.617188 0)"/>
     <use xlink:href="#DejaVuSans-6c" transform="translate(318.896484 0)"/>
     <use xlink:href="#DejaVuSans-61" transform="translate(346.679688 0)"/>
     <use xlink:href="#DejaVuSans-69" transform="translate(407.958984 0)"/>
     <use xlink:href="#DejaVuSans-4d" transform="translate(435.742188 0)"/>
     <use xlink:href="#DejaVuSans-69" transform="translate(522.021484 0)"/>
     <use xlink:href="#DejaVuSans-73" transform="translate(549.804688 0)"/>
     <use xlink:href="#DejaVuSans-74" transform="translate(601.904297 0)"/>
     <use xlink:href="#DejaVuSans-72" transform="translate(641.113281 0)"/>
     <use xlink:href="#DejaVuSans-61" transform="translate(682.226562 0)"/>
     <use xlink:href="#DejaVuSans-6c" transform="translate(743.505859 0)"/>
     <use xlink:href="#DejaVuSans-2d" transform="translate(771.289062 0)"/>
     <use xlink:href="#DejaVuSans-37" transform="translate(807.373047 0)"/>
     <use xlink:href="#DejaVuSans-42" transform="translate(870.996094 0)"/>
     <use xlink:href="#DejaVuSans-2d" transform="translate(939.599609 0)"/>
     <use xlink:href="#DejaVuSans-49" transform="translate(975.683594 0)"/>
     <use xlink:href="#DejaVuSans-6e" transform="translate(1005.175781 0)"/>
     <use xlink:href="#DejaVuSans-73" transform="translate(1068.554688 0)"/>
     <use xlink:href="#DejaVuSans-74" transform="translate(1120.654297 0)"/>
     <use xlink:href="#DejaVuSans-72" transform="translate(1159.863281 0)"/>
     <use xlink:href="#DejaVuSans-75" transform="translate(1200.976562 0)"/>
     <use xlink:href="#DejaVuSans-63" transform="translate(1264.355469 0)"/>
     <use xlink:href="#DejaVuSans-74" transform="translate(1319.335938 0)"/>
     <use xlink:href="#DejaVuSans-2d" transform="translate(1358.544922 0)"/>
     <use xlink:href="#DejaVuSans-76" transform="translate(1392.003906 0)"/>
     <use xlink:href="#DejaVuSans-30" transform="translate(1451.183594 0)"/>
     <use xlink:href="#DejaVuSans-2e" transform="translate(1514.806641 0)"/>
     <use xlink:href="#DejaVuSans-32" transform="translate(1546.59375 0)"/>
     <use xlink:href="#DejaVuSans-3a" transform="translate(1610.216797 0)"/>
     <use xlink:href="#DejaVuSans-20" transform="translate(1643.908203 0)"/>
     <use xlink:href="#DejaVuSans-41" transform="translate(1675.695312 0)"/>
     <use xlink:href="#DejaVuSans-67" transform="translate(1744.103516 0)"/>
     <use xlink:href="#DejaVuSans-67" transform="translate(1807.580078 0)"/>
     <use xlink:href="#DejaVuSans-72" transform="translate(1871.056641 0)"/>
     <use xlink:href="#DejaVuSans-65" transform="translate(1909.919922 0)"/>
     <use xlink:href="#DejaVuSans-67" transform="translate(1971.443359 0)"/>
     <use xlink:href="#DejaVuSans-61" transform="translate(2034.919922 0)"/>
     <use xlink:href="#DejaVuSans-74" transform="translate(2096.199219 0)"/>
     <use xlink:href="#DejaVuSans-65" transform="translate(2135.408203 0)"/>
     <use xlink:href="#DejaVuSans-64" transform="translate(2196.931641 0)"/>
     <use xlink:href="#DejaVuSans-20" transform="translate(2260.408203 0)"/>
     <use xlink:href="#DejaVuSans-33" transform="translate(2292.195312 0)"/>
     <use xlink:href="#DejaVuSans-2d" transform="translate(2355.818359 0)"/>
     <use xlink:href="#DejaVuSans-44" transform="translate(2391.902344 0)"/>
     <use xlink:href="#DejaVuSans-69" transform="translate(2468.904297 0)"/>
     <use xlink:href="#DejaVuSans-67" transform="translate(2496.6875 0)"/>
     <use xlink:href="#DejaVuSans-69" transform="translate(2560.164062 0)"/>
     <use xlink:href="#DejaVuSans-74" transform="translate(2587.947266 0)"/>
     <use xlink:href="#DejaVuSans-20" transform="translate(2627.15625 0)"/>
     <use xlink:href="#DejaVuSans-41" transform="translate(2658.943359 0)"/>
     <use xlink:href="#DejaVuSans-64" transform="translate(2725.601562 0)"/>
     <use xlink:href="#DejaVuSans-64" transform="translate(2789.078125 0)"/>
     <use xlink:href="#DejaVuSans-69" transform="translate(2852.554688 0)"/>
     <use xlink:href="#DejaVuSans-74" transform="translate(2880.337891 0)"/>
     <use xlink:href="#DejaVuSans-69" transform="translate(2919.546875 0)"/>
     <use xlink:href="#DejaVuSans-6f" transform="translate(2947.330078 0)"/>
     <use xlink:href="#DejaVuSans-6e" transform="translate(3008.511719 0)"/>
     <use xlink:href="#DejaVuSans-20" transform="translate(3071.890625 0)"/>
     <use xlink:href="#DejaVuSans-41" transform="translate(3103.677734 0)"/>
     <use xlink:href="#DejaVuSans-63" transform="translate(3170.335938 0)"/>
     <use xlink:href="#DejaVuSans-63" transform="translate(3225.316406 0)"/>
     <use xlink:href="#DejaVuSans-75" transform="translate(3280.296875 0)"/>
     <use xlink:href="#DejaVuSans-72" transform="translate(3343.675781 0)"/>
     <use xlink:href="#DejaVuSans-61" transform="translate(3384.789062 0)"/>
     <use xlink:href="#DejaVuSans-63" transform="translate(3446.068359 0)"/>
     <use xlink:href="#DejaVuSans-79" transform="translate(3501.048828 0)"/>
     <use xlink:href="#DejaVuSans-20" transform="translate(3560.228516 0)"/>
     <use xlink:href="#DejaVuSans-28" transform="translate(3592.015625 0)"/>
     <use xlink:href="#DejaVuSans-4c" transform="translate(3631.029297 0)"/>
     <use xlink:href="#DejaVuSans-69" transform="translate(3686.742188 0)"/>
     <use xlink:href="#DejaVuSans-6e" transform="translate(3714.525391 0)"/>
     <use xlink:href="#DejaVuSans-65" transform="translate(3777.904297 0)"/>
     <use xlink:href="#DejaVuSans-61" transform="translate(3839.427734 0)"/>
     <use xlink:href="#DejaVuSans-72" transform="translate(3900.707031 0)"/>
     <use xlink:href="#DejaVuSans-20" transform="translate(3941.820312 0)"/>
     <use xlink:href="#DejaVuSans-50" transform="translate(3973.607422 0)"/>
     <use xlink:href="#DejaVuSans-72" transform="translate(4032.160156 0)"/>
     <use xlink:href="#DejaVuSans-6f" transform="translate(4071.023438 0)"/>
     <use xlink:href="#DejaVuSans-62" transform="translate(4132.205078 0)"/>
     <use xlink:href="#DejaVuSans-65" transform="translate(4195.681641 0)"/>
     <use xlink:href="#DejaVuSans-29" transform="translate(4257.205078 0)"/>
    </g>
    <!-- Mean  Std. Dev. across 5 seeds -->
    <g transform="translate(320.93875 39.024) scale(0.16 -0.16)">
     <defs>
      <path id="DejaVuSans-b1" d="M 2944 4013 
L 2944 2803 
L 4684 2803 
L 4684 2272 
L 2944 2272 
L 2944 1063 
L 2419 1063 
L 2419 2272 
L 678 2272 
L 678 2803 
L 2419 2803 
L 2419 4013 
L 2944 4013 
z
M 678 531 
L 4684 531 
L 4684 0 
L 678 0 
L 678 531 
z
" transform="scale(0.015625)"/>
      <path id="DejaVuSans-53" d="M 3425 4513 
L 3425 3897 
Q 3066 4069 2747 4153 
Q 2428 4238 2131 4238 
Q 1616 4238 1336 4038 
Q 1056 3838 1056 3469 
Q 1056 3159 1242 3001 
Q 1428 2844 1947 2747 
L 2328 2669 
Q 3034 2534 3370 2195 
Q 3706 1856 3706 1288 
Q 3706 609 3251 259 
Q 2797 -91 1919 -91 
Q 1588 -91 1214 -16 
Q 841 59 441 206 
L 441 856 
Q 825 641 1194 531 
Q 1563 422 1919 422 
Q 2459 422 2753 634 
Q 3047 847 3047 1241 
Q 3047 1584 2836 1778 
Q 2625 1972 2144 2069 
L 1759 2144 
Q 1053 2284 737 2584 
Q 422 2884 422 3419 
Q 422 4038 858 4394 
Q 1294 4750 2059 4750 
Q 2388 4750 2728 4690 
Q 3069 4631 3425 4513 
z
" transform="scale(0.015625)"/>
     </defs>
     <use xlink:href="#DejaVuSans-4d"/>
     <use xlink:href="#DejaVuSans-65" transform="translate(86.279297 0)"/>
     <use xlink:href="#DejaVuSans-61" transform="translate(147.802734 0)"/>
     <use xlink:href="#DejaVuSans-6e" transform="translate(209.082031 0)"/>
     <use xlink:href="#DejaVuSans-20" transform="translate(272.460938 0)"/>
     <use xlink:href="#DejaVuSans-b1" transform="translate(304.248047 0)"/>
     <use xlink:href="#DejaVuSans-20" transform="translate(388.037109 0)"/>
     <use xlink:href="#DejaVuSans-53" transform="translate(419.824219 0)"/>
     <use xlink:href="#DejaVuSans-74" transform="translate(483.300781 0)"/>
     <use xlink:href="#DejaVuSans-64" transform="translate(522.509766 0)"/>
     <use xlink:href="#DejaVuSans-2e" transform="translate(585.986328 0)"/>
     <use xlink:href="#DejaVuSans-20" transform="translate(617.773438 0)"/>
     <use xlink:href="#DejaVuSans-44" transform="translate(649.560547 0)"/>
     <use xlink:href="#DejaVuSans-65" transform="translate(726.5625 0)"/>
     <use xlink:href="#DejaVuSans-76" transform="translate(788.085938 0)"/>
     <use xlink:href="#DejaVuSans-2e" transform="translate(839.515625 0)"/>
     <use xlink:href="#DejaVuSans-20" transform="translate(871.302734 0)"/>
     <use xlink:href="#DejaVuSans-61" transform="translate(903.089844 0)"/>
     <use xlink:href="#DejaVuSans-63" transform="translate(964.369141 0)"/>
     <use xlink:href="#DejaVuSans-72" transform="translate(1019.349609 0)"/>
     <use xlink:href="#DejaVuSans-6f" transform="translate(1058.212891 0)"/>
     <use xlink:href="#DejaVuSans-73" transform="translate(1119.394531 0)"/>
     <use xlink:href="#DejaVuSans-73" transform="translate(1171.494141 0)"/>
     <use xlink:href="#DejaVuSans-20" transform="translate(1223.59375 0)"/>
     <use xlink:href="#DejaVuSans-35" transform="translate(1255.380859 0)"/>
     <use xlink:href="#DejaVuSans-20" transform="translate(1319.003906 0)"/>
     <use xlink:href="#DejaVuSans-73" transform="translate(1350.791016 0)"/>
     <use xlink:href="#DejaVuSans-65" transform="translate(1402.890625 0)"/>
     <use xlink:href="#DejaVuSans-65" transform="translate(1464.414062 0)"/>
     <use xlink:href="#DejaVuSans-64" transform="translate(1525.9375 0)"/>
     <use xlink:href="#DejaVuSans-73" transform="translate(1589.414062 0)"/>
    </g>
   </g>
   <g id="legend_1">
    <g id="patch_7">
     <path d="M 689.956875 452.44 
L 844.8 452.44 
Q 847.2 452.44 847.2 450.04 
L 847.2 398.39875 
Q 847.2 395.99875 844.8 395.99875 
L 689.956875 395.99875 
Q 687.556875 395.99875 687.556875 398.39875 
L 687.556875 450.04 
Q 687.556875 452.44 689.956875 452.44 
z
" style="fill: #ffffff; opacity: 0.8; stroke: #cccccc; stroke-linejoin: miter"/>
    </g>
    <g id="line2d_82">
     <path d="M 692.356875 405.716875 
L 704.356875 405.716875 
L 716.356875 405.716875 
" style="fill: none; stroke: #0000ff; stroke-width: 2.5; stroke-linecap: square"/>
    </g>
    <g id="text_43">
     <!-- Avg. Hundreds Acc. -->
     <g transform="translate(725.956875 409.916875) scale(0.12 -0.12)">
      <defs>
       <path id="DejaVuSans-48" d="M 628 4666 
L 1259 4666 
L 1259 2753 
L 3553 2753 
L 3553 4666 
L 4184 4666 
L 4184 0 
L 3553 0 
L 3553 2222 
L 1259 2222 
L 1259 0 
L 628 0 
L 628 4666 
z
" transform="scale(0.015625)"/>
      </defs>
      <use xlink:href="#DejaVuSans-41"/>
      <use xlink:href="#DejaVuSans-76" transform="translate(62.533203 0)"/>
      <use xlink:href="#DejaVuSans-67" transform="translate(121.712891 0)"/>
      <use xlink:href="#DejaVuSans-2e" transform="translate(185.189453 0)"/>
      <use xlink:href="#DejaVuSans-20" transform="translate(216.976562 0)"/>
      <use xlink:href="#DejaVuSans-48" transform="translate(248.763672 0)"/>
      <use xlink:href="#DejaVuSans-75" transform="translate(323.958984 0)"/>
      <use xlink:href="#DejaVuSans-6e" transform="translate(387.337891 0)"/>
      <use xlink:href="#DejaVuSans-64" transform="translate(450.716797 0)"/>
      <use xlink:href="#DejaVuSans-72" transform="translate(514.193359 0)"/>
      <use xlink:href="#DejaVuSans-65" transform="translate(553.056641 0)"/>
      <use xlink:href="#DejaVuSans-64" transform="translate(614.580078 0)"/>
      <use xlink:href="#DejaVuSans-73" transform="translate(678.056641 0)"/>
      <use xlink:href="#DejaVuSans-20" transform="translate(730.15625 0)"/>
      <use xlink:href="#DejaVuSans-41" transform="translate(761.943359 0)"/>
      <use xlink:href="#DejaVuSans-63" transform="translate(828.601562 0)"/>
      <use xlink:href="#DejaVuSans-63" transform="translate(883.582031 0)"/>
      <use xlink:href="#DejaVuSans-2e" transform="translate(938.5625 0)"/>
     </g>
    </g>
    <g id="line2d_83">
     <path d="M 692.356875 423.330625 
L 704.356875 423.330625 
L 716.356875 423.330625 
" style="fill: none; stroke: #008000; stroke-width: 2.5; stroke-linecap: square"/>
    </g>
    <g id="text_44">
     <!-- Avg. Tens Acc. -->
     <g transform="translate(725.956875 427.530625) scale(0.12 -0.12)">
      <defs>
       <path id="DejaVuSans-54" d="M -19 4666 
L 3928 4666 
L 3928 4134 
L 2272 4134 
L 2272 0 
L 1638 0 
L 1638 4134 
L -19 4134 
L -19 4666 
z
" transform="scale(0.015625)"/>
      </defs>
      <use xlink:href="#DejaVuSans-41"/>
      <use xlink:href="#DejaVuSans-76" transform="translate(62.533203 0)"/>
      <use xlink:href="#DejaVuSans-67" transform="translate(121.712891 0)"/>
      <use xlink:href="#DejaVuSans-2e" transform="translate(185.189453 0)"/>
      <use xlink:href="#DejaVuSans-20" transform="translate(216.976562 0)"/>
      <use xlink:href="#DejaVuSans-54" transform="translate(248.763672 0)"/>
      <use xlink:href="#DejaVuSans-65" transform="translate(292.847656 0)"/>
      <use xlink:href="#DejaVuSans-6e" transform="translate(354.371094 0)"/>
      <use xlink:href="#DejaVuSans-73" transform="translate(417.75 0)"/>
      <use xlink:href="#DejaVuSans-20" transform="translate(469.849609 0)"/>
      <use xlink:href="#DejaVuSans-41" transform="translate(501.636719 0)"/>
      <use xlink:href="#DejaVuSans-63" transform="translate(568.294922 0)"/>
      <use xlink:href="#DejaVuSans-63" transform="translate(623.275391 0)"/>
      <use xlink:href="#DejaVuSans-2e" transform="translate(678.255859 0)"/>
     </g>
    </g>
    <g id="line2d_84">
     <path d="M 692.356875 440.944375 
L 704.356875 440.944375 
L 716.356875 440.944375 
" style="fill: none; stroke: #ff0000; stroke-width: 2.5; stroke-linecap: square"/>
    </g>
    <g id="text_45">
     <!-- Avg. Ones Acc. -->
     <g transform="translate(725.956875 445.144375) scale(0.12 -0.12)">
      <defs>
       <path id="DejaVuSans-4f" d="M 2522 4238 
Q 1834 4238 1429 3725 
Q 1025 3213 1025 2328 
Q 1025 1447 1429 934 
Q 1834 422 2522 422 
Q 3209 422 3611 934 
Q 4013 1447 4013 2328 
Q 4013 3213 3611 3725 
Q 3209 4238 2522 4238 
z
M 2522 4750 
Q 3503 4750 4090 4092 
Q 4678 3434 4678 2328 
Q 4678 1225 4090 567 
Q 3503 -91 2522 -91 
Q 1538 -91 948 565 
Q 359 1222 359 2328 
Q 359 3434 948 4092 
Q 1538 4750 2522 4750 
z
" transform="scale(0.015625)"/>
      </defs>
      <use xlink:href="#DejaVuSans-41"/>
      <use xlink:href="#DejaVuSans-76" transform="translate(62.533203 0)"/>
      <use xlink:href="#DejaVuSans-67" transform="translate(121.712891 0)"/>
      <use xlink:href="#DejaVuSans-2e" transform="translate(185.189453 0)"/>
      <use xlink:href="#DejaVuSans-20" transform="translate(216.976562 0)"/>
      <use xlink:href="#DejaVuSans-4f" transform="translate(248.763672 0)"/>
      <use xlink:href="#DejaVuSans-6e" transform="translate(327.474609 0)"/>
      <use xlink:href="#DejaVuSans-65" transform="translate(390.853516 0)"/>
      <use xlink:href="#DejaVuSans-73" transform="translate(452.376953 0)"/>
      <use xlink:href="#DejaVuSans-20" transform="translate(504.476562 0)"/>
      <use xlink:href="#DejaVuSans-41" transform="translate(536.263672 0)"/>
      <use xlink:href="#DejaVuSans-63" transform="translate(602.921875 0)"/>
      <use xlink:href="#DejaVuSans-63" transform="translate(657.902344 0)"/>
      <use xlink:href="#DejaVuSans-2e" transform="translate(712.882812 0)"/>
     </g>
    </g>
   </g>
  </g>
 </g>
 <defs>
  <clipPath id="p08b024fef2">
   <rect x="51.32" y="45.024" width="801.88" height="413.416"/>
  </clipPath>
 </defs>
</svg>
