<?xml version="1.0" encoding="utf-8" standalone="no"?>
<!DOCTYPE svg PUBLIC "-//W3C//DTD SVG 1.1//EN"
  "http://www.w3.org/Graphics/SVG/1.1/DTD/svg11.dtd">
<svg xmlns:xlink="http://www.w3.org/1999/xlink" width="864pt" height="504pt" viewBox="0 0 864 504" xmlns="http://www.w3.org/2000/svg" version="1.1">
 <metadata>
  <rdf:RDF xmlns:dc="http://purl.org/dc/elements/1.1/" xmlns:cc="http://creativecommons.org/ns#" xmlns:rdf="http://www.w3.org/1999/02/22-rdf-syntax-ns#">
   <cc:Work>
    <dc:type rdf:resource="http://purl.org/dc/dcmitype/StillImage"/>
    <dc:date>2025-09-09T20:19:58.627385</dc:date>
    <dc:format>image/svg+xml</dc:format>
    <dc:creator>
     <cc:Agent>
      <dc:title>Matplotlib v3.8.4, https://matplotlib.org/</dc:title>
     </cc:Agent>
    </dc:creator>
   </cc:Work>
  </rdf:RDF>
 </metadata>
 <defs>
  <style type="text/css">*{stroke-linejoin: round; stroke-linecap: butt}</style>
 </defs>
 <g id="figure_1">
  <g id="patch_1">
   <path d="M 0 504 
L 864 504 
L 864 0 
L 0 0 
z
" style="fill: #ffffff"/>
  </g>
  <g id="axes_1">
   <g id="patch_2">
    <path d="M 51.32 458.44 
L 853.2 458.44 
L 853.2 28.32 
L 51.32 28.32 
z
" style="fill: #ffffff"/>
   </g>
   <g id="PolyCollection_1">
    <path d="M 87.769091 351.190462 
L 87.769091 382.171671 
L 113.804156 389.233906 
L 139.839221 370.383542 
L 165.874286 375.535588 
L 191.909351 364.966871 
L 217.944416 351.258654 
L 243.979481 390.15549 
L 270.014545 378.886869 
L 296.04961 370.415006 
L 322.084675 363.438039 
L 348.11974 383.143308 
L 374.154805 367.454051 
L 400.18987 360.272048 
L 426.224935 346.283245 
L 452.26 352.443479 
L 478.295065 352.126283 
L 504.33013 372.469038 
L 530.365195 360.770964 
L 556.40026 354.652307 
L 582.435325 374.69866 
L 608.47039 326.156007 
L 634.505455 389.638866 
L 660.540519 323.736965 
L 686.575584 256.229566 
L 712.610649 91.791076 
L 738.645714 75.444113 
L 764.680779 60.026707 
L 790.715844 59.020029 
L 816.750909 59.207431 
L 816.750909 49.866245 
L 816.750909 49.866245 
L 790.715844 51.6922 
L 764.680779 50.685521 
L 738.645714 64.762058 
L 712.610649 84.463247 
L 686.575584 218.241291 
L 660.540519 311.312026 
L 634.505455 333.891953 
L 608.47039 320.36285 
L 582.435325 330.808083 
L 556.40026 331.191807 
L 530.365195 316.880388 
L 504.33013 328.122048 
L 478.295065 322.247965 
L 452.26 317.015112 
L 426.224935 318.259688 
L 400.18987 297.716676 
L 374.154805 316.751511 
L 348.11974 317.447778 
L 322.084675 343.707256 
L 296.04961 338.368842 
L 270.014545 326.619874 
L 243.979481 335.013881 
L 217.944416 323.115593 
L 191.909351 333.985662 
L 165.874286 347.995231 
L 139.839221 359.701487 
L 113.804156 352.32099 
L 87.769091 351.190462 
z
" clip-path="url(#pb0510aba2c)" style="fill: #1f77b4; fill-opacity: 0.2"/>
   </g>
   <g id="PolyCollection_2">
    <path d="M 87.769091 392.754069 
L 87.769091 420.897131 
L 113.804156 425.812788 
L 139.839221 435.529502 
L 165.874286 419.649301 
L 191.909351 433.515472 
L 217.944416 439.390703 
L 243.979481 430.056526 
L 270.014545 421.203816 
L 296.04961 434.367775 
L 322.084675 416.343698 
L 348.11974 421.872918 
L 374.154805 423.979061 
L 400.18987 416.139313 
L 426.224935 417.767384 
L 452.26 432.016335 
L 478.295065 420.235693 
L 504.33013 433.327205 
L 530.365195 437.742168 
L 556.40026 426.086174 
L 582.435325 419.405936 
L 608.47039 427.170192 
L 634.505455 421.572571 
L 660.540519 406.037788 
L 686.575584 421.44267 
L 712.610649 290.397068 
L 738.645714 276.819754 
L 764.680779 250.50922 
L 790.715844 258.156201 
L 816.750909 281.373719 
L 816.750909 232.422395 
L 816.750909 232.422395 
L 790.715844 229.423075 
L 764.680779 223.961637 
L 738.645714 215.675179 
L 712.610649 261.085751 
L 686.575584 390.569978 
L 660.540519 384.673679 
L 634.505455 413.37981 
L 608.47039 402.866532 
L 582.435325 392.606712 
L 556.40026 403.95055 
L 530.365195 403.764423 
L 504.33013 391.793862 
L 478.295065 403.246821 
L 452.26 411.128808 
L 426.224935 390.968159 
L 400.18987 399.15044 
L 374.154805 404.41911 
L 348.11974 408.163806 
L 322.084675 400.584606 
L 296.04961 418.608682 
L 270.014545 400.640146 
L 243.979481 403.257302 
L 217.944416 402.115887 
L 191.909351 409.629671 
L 165.874286 394.001899 
L 139.839221 401.061432 
L 113.804156 397.669726 
L 87.769091 392.754069 
z
" clip-path="url(#pb0510aba2c)" style="fill: #ff7f0e; fill-opacity: 0.2"/>
   </g>
   <g id="PolyCollection_3">
    <path d="M 87.769091 417.175844 
L 87.769091 430.884956 
L 113.804156 440.209097 
L 139.839221 429.634038 
L 165.874286 439.560456 
L 191.909351 423.720507 
L 217.944416 432.291317 
L 243.979481 430.215854 
L 270.014545 436.845324 
L 296.04961 429.236198 
L 322.084675 427.989468 
L 348.11974 401.282855 
L 374.154805 414.881049 
L 400.18987 413.222292 
L 426.224935 413.248514 
L 452.26 424.692159 
L 478.295065 427.100059 
L 504.33013 415.57356 
L 530.365195 387.017352 
L 556.40026 408.765933 
L 582.435325 342.051442 
L 608.47039 365.80102 
L 634.505455 381.656717 
L 660.540519 387.442609 
L 686.575584 377.117888 
L 712.610649 389.545157 
L 738.645714 404.928992 
L 764.680779 411.638386 
L 790.715844 407.02874 
L 816.750909 404.054556 
L 816.750909 388.295463 
L 816.750909 388.295463 
L 790.715844 382.044174 
L 764.680779 388.904395 
L 738.645714 372.674056 
L 712.610649 358.563948 
L 686.575584 334.943065 
L 660.540519 347.558077 
L 634.505455 327.127131 
L 608.47039 321.681647 
L 582.435325 322.491491 
L 556.40026 360.644353 
L 530.365195 347.983334 
L 504.33013 386.607773 
L 478.295065 411.129426 
L 452.26 397.151803 
L 426.224935 395.487029 
L 400.18987 385.681936 
L 374.154805 390.577389 
L 348.11974 371.404536 
L 322.084675 403.685808 
L 296.04961 413.908944 
L 270.014545 394.829952 
L 243.979481 409.652184 
L 217.944416 392.82975 
L 191.909351 388.29214 
L 165.874286 411.777449 
L 139.839221 411.872553 
L 113.804156 419.32157 
L 87.769091 417.175844 
z
" clip-path="url(#pb0510aba2c)" style="fill: #2ca02c; fill-opacity: 0.2"/>
   </g>
   <g id="matplotlib.axis_1">
    <g id="xtick_1">
     <g id="line2d_1">
      <path d="M 87.769091 458.44 
L 87.769091 28.32 
" clip-path="url(#pb0510aba2c)" style="fill: none; stroke-dasharray: 2.96,1.28; stroke-dashoffset: 0; stroke: #b0b0b0; stroke-opacity: 0.7; stroke-width: 0.8"/>
     </g>
     <g id="line2d_2">
      <defs>
       <path id="md92ebcf808" d="M 0 0 
L 0 3.5 
" style="stroke: #000000; stroke-width: 0.8"/>
      </defs>
      <g>
       <use xlink:href="#md92ebcf808" x="87.769091" y="458.44" style="stroke: #000000; stroke-width: 0.8"/>
      </g>
     </g>
     <g id="text_1">
      <!-- 0 -->
      <g transform="translate(84.587841 473.038437) scale(0.1 -0.1)">
       <defs>
        <path id="DejaVuSans-30" d="M 2034 4250 
Q 1547 4250 1301 3770 
Q 1056 3291 1056 2328 
Q 1056 1369 1301 889 
Q 1547 409 2034 409 
Q 2525 409 2770 889 
Q 3016 1369 3016 2328 
Q 3016 3291 2770 3770 
Q 2525 4250 2034 4250 
z
M 2034 4750 
Q 2819 4750 3233 4129 
Q 3647 3509 3647 2328 
Q 3647 1150 3233 529 
Q 2819 -91 2034 -91 
Q 1250 -91 836 529 
Q 422 1150 422 2328 
Q 422 3509 836 4129 
Q 1250 4750 2034 4750 
z
" transform="scale(0.015625)"/>
       </defs>
       <use xlink:href="#DejaVuSans-30"/>
      </g>
     </g>
    </g>
    <g id="xtick_2">
     <g id="line2d_3">
      <path d="M 113.804156 458.44 
L 113.804156 28.32 
" clip-path="url(#pb0510aba2c)" style="fill: none; stroke-dasharray: 2.96,1.28; stroke-dashoffset: 0; stroke: #b0b0b0; stroke-opacity: 0.7; stroke-width: 0.8"/>
     </g>
     <g id="line2d_4">
      <g>
       <use xlink:href="#md92ebcf808" x="113.804156" y="458.44" style="stroke: #000000; stroke-width: 0.8"/>
      </g>
     </g>
     <g id="text_2">
      <!-- 1 -->
      <g transform="translate(110.622906 473.038437) scale(0.1 -0.1)">
       <defs>
        <path id="DejaVuSans-31" d="M 794 531 
L 1825 531 
L 1825 4091 
L 703 3866 
L 703 4441 
L 1819 4666 
L 2450 4666 
L 2450 531 
L 3481 531 
L 3481 0 
L 794 0 
L 794 531 
z
" transform="scale(0.015625)"/>
       </defs>
       <use xlink:href="#DejaVuSans-31"/>
      </g>
     </g>
    </g>
    <g id="xtick_3">
     <g id="line2d_5">
      <path d="M 139.839221 458.44 
L 139.839221 28.32 
" clip-path="url(#pb0510aba2c)" style="fill: none; stroke-dasharray: 2.96,1.28; stroke-dashoffset: 0; stroke: #b0b0b0; stroke-opacity: 0.7; stroke-width: 0.8"/>
     </g>
     <g id="line2d_6">
      <g>
       <use xlink:href="#md92ebcf808" x="139.839221" y="458.44" style="stroke: #000000; stroke-width: 0.8"/>
      </g>
     </g>
     <g id="text_3">
      <!-- 2 -->
      <g transform="translate(136.657971 473.038437) scale(0.1 -0.1)">
       <defs>
        <path id="DejaVuSans-32" d="M 1228 531 
L 3431 531 
L 3431 0 
L 469 0 
L 469 531 
Q 828 903 1448 1529 
Q 2069 2156 2228 2338 
Q 2531 2678 2651 2914 
Q 2772 3150 2772 3378 
Q 2772 3750 2511 3984 
Q 2250 4219 1831 4219 
Q 1534 4219 1204 4116 
Q 875 4013 500 3803 
L 500 4441 
Q 881 4594 1212 4672 
Q 1544 4750 1819 4750 
Q 2544 4750 2975 4387 
Q 3406 4025 3406 3419 
Q 3406 3131 3298 2873 
Q 3191 2616 2906 2266 
Q 2828 2175 2409 1742 
Q 1991 1309 1228 531 
z
" transform="scale(0.015625)"/>
       </defs>
       <use xlink:href="#DejaVuSans-32"/>
      </g>
     </g>
    </g>
    <g id="xtick_4">
     <g id="line2d_7">
      <path d="M 165.874286 458.44 
L 165.874286 28.32 
" clip-path="url(#pb0510aba2c)" style="fill: none; stroke-dasharray: 2.96,1.28; stroke-dashoffset: 0; stroke: #b0b0b0; stroke-opacity: 0.7; stroke-width: 0.8"/>
     </g>
     <g id="line2d_8">
      <g>
       <use xlink:href="#md92ebcf808" x="165.874286" y="458.44" style="stroke: #000000; stroke-width: 0.8"/>
      </g>
     </g>
     <g id="text_4">
      <!-- 3 -->
      <g transform="translate(162.693036 473.038437) scale(0.1 -0.1)">
       <defs>
        <path id="DejaVuSans-33" d="M 2597 2516 
Q 3050 2419 3304 2112 
Q 3559 1806 3559 1356 
Q 3559 666 3084 287 
Q 2609 -91 1734 -91 
Q 1441 -91 1130 -33 
Q 819 25 488 141 
L 488 750 
Q 750 597 1062 519 
Q 1375 441 1716 441 
Q 2309 441 2620 675 
Q 2931 909 2931 1356 
Q 2931 1769 2642 2001 
Q 2353 2234 1838 2234 
L 1294 2234 
L 1294 2753 
L 1863 2753 
Q 2328 2753 2575 2939 
Q 2822 3125 2822 3475 
Q 2822 3834 2567 4026 
Q 2313 4219 1838 4219 
Q 1578 4219 1281 4162 
Q 984 4106 628 3988 
L 628 4550 
Q 988 4650 1302 4700 
Q 1616 4750 1894 4750 
Q 2613 4750 3031 4423 
Q 3450 4097 3450 3541 
Q 3450 3153 3228 2886 
Q 3006 2619 2597 2516 
z
" transform="scale(0.015625)"/>
       </defs>
       <use xlink:href="#DejaVuSans-33"/>
      </g>
     </g>
    </g>
    <g id="xtick_5">
     <g id="line2d_9">
      <path d="M 191.909351 458.44 
L 191.909351 28.32 
" clip-path="url(#pb0510aba2c)" style="fill: none; stroke-dasharray: 2.96,1.28; stroke-dashoffset: 0; stroke: #b0b0b0; stroke-opacity: 0.7; stroke-width: 0.8"/>
     </g>
     <g id="line2d_10">
      <g>
       <use xlink:href="#md92ebcf808" x="191.909351" y="458.44" style="stroke: #000000; stroke-width: 0.8"/>
      </g>
     </g>
     <g id="text_5">
      <!-- 4 -->
      <g transform="translate(188.728101 473.038437) scale(0.1 -0.1)">
       <defs>
        <path id="DejaVuSans-34" d="M 2419 4116 
L 825 1625 
L 2419 1625 
L 2419 4116 
z
M 2253 4666 
L 3047 4666 
L 3047 1625 
L 3713 1625 
L 3713 1100 
L 3047 1100 
L 3047 0 
L 2419 0 
L 2419 1100 
L 313 1100 
L 313 1709 
L 2253 4666 
z
" transform="scale(0.015625)"/>
       </defs>
       <use xlink:href="#DejaVuSans-34"/>
      </g>
     </g>
    </g>
    <g id="xtick_6">
     <g id="line2d_11">
      <path d="M 217.944416 458.44 
L 217.944416 28.32 
" clip-path="url(#pb0510aba2c)" style="fill: none; stroke-dasharray: 2.96,1.28; stroke-dashoffset: 0; stroke: #b0b0b0; stroke-opacity: 0.7; stroke-width: 0.8"/>
     </g>
     <g id="line2d_12">
      <g>
       <use xlink:href="#md92ebcf808" x="217.944416" y="458.44" style="stroke: #000000; stroke-width: 0.8"/>
      </g>
     </g>
     <g id="text_6">
      <!-- 5 -->
      <g transform="translate(214.763166 473.038437) scale(0.1 -0.1)">
       <defs>
        <path id="DejaVuSans-35" d="M 691 4666 
L 3169 4666 
L 3169 4134 
L 1269 4134 
L 1269 2991 
Q 1406 3038 1543 3061 
Q 1681 3084 1819 3084 
Q 2600 3084 3056 2656 
Q 3513 2228 3513 1497 
Q 3513 744 3044 326 
Q 2575 -91 1722 -91 
Q 1428 -91 1123 -41 
Q 819 9 494 109 
L 494 744 
Q 775 591 1075 516 
Q 1375 441 1709 441 
Q 2250 441 2565 725 
Q 2881 1009 2881 1497 
Q 2881 1984 2565 2268 
Q 2250 2553 1709 2553 
Q 1456 2553 1204 2497 
Q 953 2441 691 2322 
L 691 4666 
z
" transform="scale(0.015625)"/>
       </defs>
       <use xlink:href="#DejaVuSans-35"/>
      </g>
     </g>
    </g>
    <g id="xtick_7">
     <g id="line2d_13">
      <path d="M 243.979481 458.44 
L 243.979481 28.32 
" clip-path="url(#pb0510aba2c)" style="fill: none; stroke-dasharray: 2.96,1.28; stroke-dashoffset: 0; stroke: #b0b0b0; stroke-opacity: 0.7; stroke-width: 0.8"/>
     </g>
     <g id="line2d_14">
      <g>
       <use xlink:href="#md92ebcf808" x="243.979481" y="458.44" style="stroke: #000000; stroke-width: 0.8"/>
      </g>
     </g>
     <g id="text_7">
      <!-- 6 -->
      <g transform="translate(240.798231 473.038437) scale(0.1 -0.1)">
       <defs>
        <path id="DejaVuSans-36" d="M 2113 2584 
Q 1688 2584 1439 2293 
Q 1191 2003 1191 1497 
Q 1191 994 1439 701 
Q 1688 409 2113 409 
Q 2538 409 2786 701 
Q 3034 994 3034 1497 
Q 3034 2003 2786 2293 
Q 2538 2584 2113 2584 
z
M 3366 4563 
L 3366 3988 
Q 3128 4100 2886 4159 
Q 2644 4219 2406 4219 
Q 1781 4219 1451 3797 
Q 1122 3375 1075 2522 
Q 1259 2794 1537 2939 
Q 1816 3084 2150 3084 
Q 2853 3084 3261 2657 
Q 3669 2231 3669 1497 
Q 3669 778 3244 343 
Q 2819 -91 2113 -91 
Q 1303 -91 875 529 
Q 447 1150 447 2328 
Q 447 3434 972 4092 
Q 1497 4750 2381 4750 
Q 2619 4750 2861 4703 
Q 3103 4656 3366 4563 
z
" transform="scale(0.015625)"/>
       </defs>
       <use xlink:href="#DejaVuSans-36"/>
      </g>
     </g>
    </g>
    <g id="xtick_8">
     <g id="line2d_15">
      <path d="M 270.014545 458.44 
L 270.014545 28.32 
" clip-path="url(#pb0510aba2c)" style="fill: none; stroke-dasharray: 2.96,1.28; stroke-dashoffset: 0; stroke: #b0b0b0; stroke-opacity: 0.7; stroke-width: 0.8"/>
     </g>
     <g id="line2d_16">
      <g>
       <use xlink:href="#md92ebcf808" x="270.014545" y="458.44" style="stroke: #000000; stroke-width: 0.8"/>
      </g>
     </g>
     <g id="text_8">
      <!-- 7 -->
      <g transform="translate(266.833295 473.038437) scale(0.1 -0.1)">
       <defs>
        <path id="DejaVuSans-37" d="M 525 4666 
L 3525 4666 
L 3525 4397 
L 1831 0 
L 1172 0 
L 2766 4134 
L 525 4134 
L 525 4666 
z
" transform="scale(0.015625)"/>
       </defs>
       <use xlink:href="#DejaVuSans-37"/>
      </g>
     </g>
    </g>
    <g id="xtick_9">
     <g id="line2d_17">
      <path d="M 296.04961 458.44 
L 296.04961 28.32 
" clip-path="url(#pb0510aba2c)" style="fill: none; stroke-dasharray: 2.96,1.28; stroke-dashoffset: 0; stroke: #b0b0b0; stroke-opacity: 0.7; stroke-width: 0.8"/>
     </g>
     <g id="line2d_18">
      <g>
       <use xlink:href="#md92ebcf808" x="296.04961" y="458.44" style="stroke: #000000; stroke-width: 0.8"/>
      </g>
     </g>
     <g id="text_9">
      <!-- 8 -->
      <g transform="translate(292.86836 473.038437) scale(0.1 -0.1)">
       <defs>
        <path id="DejaVuSans-38" d="M 2034 2216 
Q 1584 2216 1326 1975 
Q 1069 1734 1069 1313 
Q 1069 891 1326 650 
Q 1584 409 2034 409 
Q 2484 409 2743 651 
Q 3003 894 3003 1313 
Q 3003 1734 2745 1975 
Q 2488 2216 2034 2216 
z
M 1403 2484 
Q 997 2584 770 2862 
Q 544 3141 544 3541 
Q 544 4100 942 4425 
Q 1341 4750 2034 4750 
Q 2731 4750 3128 4425 
Q 3525 4100 3525 3541 
Q 3525 3141 3298 2862 
Q 3072 2584 2669 2484 
Q 3125 2378 3379 2068 
Q 3634 1759 3634 1313 
Q 3634 634 3220 271 
Q 2806 -91 2034 -91 
Q 1263 -91 848 271 
Q 434 634 434 1313 
Q 434 1759 690 2068 
Q 947 2378 1403 2484 
z
M 1172 3481 
Q 1172 3119 1398 2916 
Q 1625 2713 2034 2713 
Q 2441 2713 2670 2916 
Q 2900 3119 2900 3481 
Q 2900 3844 2670 4047 
Q 2441 4250 2034 4250 
Q 1625 4250 1398 4047 
Q 1172 3844 1172 3481 
z
" transform="scale(0.015625)"/>
       </defs>
       <use xlink:href="#DejaVuSans-38"/>
      </g>
     </g>
    </g>
    <g id="xtick_10">
     <g id="line2d_19">
      <path d="M 322.084675 458.44 
L 322.084675 28.32 
" clip-path="url(#pb0510aba2c)" style="fill: none; stroke-dasharray: 2.96,1.28; stroke-dashoffset: 0; stroke: #b0b0b0; stroke-opacity: 0.7; stroke-width: 0.8"/>
     </g>
     <g id="line2d_20">
      <g>
       <use xlink:href="#md92ebcf808" x="322.084675" y="458.44" style="stroke: #000000; stroke-width: 0.8"/>
      </g>
     </g>
     <g id="text_10">
      <!-- 9 -->
      <g transform="translate(318.903425 473.038437) scale(0.1 -0.1)">
       <defs>
        <path id="DejaVuSans-39" d="M 703 97 
L 703 672 
Q 941 559 1184 500 
Q 1428 441 1663 441 
Q 2288 441 2617 861 
Q 2947 1281 2994 2138 
Q 2813 1869 2534 1725 
Q 2256 1581 1919 1581 
Q 1219 1581 811 2004 
Q 403 2428 403 3163 
Q 403 3881 828 4315 
Q 1253 4750 1959 4750 
Q 2769 4750 3195 4129 
Q 3622 3509 3622 2328 
Q 3622 1225 3098 567 
Q 2575 -91 1691 -91 
Q 1453 -91 1209 -44 
Q 966 3 703 97 
z
M 1959 2075 
Q 2384 2075 2632 2365 
Q 2881 2656 2881 3163 
Q 2881 3666 2632 3958 
Q 2384 4250 1959 4250 
Q 1534 4250 1286 3958 
Q 1038 3666 1038 3163 
Q 1038 2656 1286 2365 
Q 1534 2075 1959 2075 
z
" transform="scale(0.015625)"/>
       </defs>
       <use xlink:href="#DejaVuSans-39"/>
      </g>
     </g>
    </g>
    <g id="xtick_11">
     <g id="line2d_21">
      <path d="M 348.11974 458.44 
L 348.11974 28.32 
" clip-path="url(#pb0510aba2c)" style="fill: none; stroke-dasharray: 2.96,1.28; stroke-dashoffset: 0; stroke: #b0b0b0; stroke-opacity: 0.7; stroke-width: 0.8"/>
     </g>
     <g id="line2d_22">
      <g>
       <use xlink:href="#md92ebcf808" x="348.11974" y="458.44" style="stroke: #000000; stroke-width: 0.8"/>
      </g>
     </g>
     <g id="text_11">
      <!-- 10 -->
      <g transform="translate(341.75724 473.038437) scale(0.1 -0.1)">
       <use xlink:href="#DejaVuSans-31"/>
       <use xlink:href="#DejaVuSans-30" x="63.623047"/>
      </g>
     </g>
    </g>
    <g id="xtick_12">
     <g id="line2d_23">
      <path d="M 374.154805 458.44 
L 374.154805 28.32 
" clip-path="url(#pb0510aba2c)" style="fill: none; stroke-dasharray: 2.96,1.28; stroke-dashoffset: 0; stroke: #b0b0b0; stroke-opacity: 0.7; stroke-width: 0.8"/>
     </g>
     <g id="line2d_24">
      <g>
       <use xlink:href="#md92ebcf808" x="374.154805" y="458.44" style="stroke: #000000; stroke-width: 0.8"/>
      </g>
     </g>
     <g id="text_12">
      <!-- 11 -->
      <g transform="translate(367.792305 473.038437) scale(0.1 -0.1)">
       <use xlink:href="#DejaVuSans-31"/>
       <use xlink:href="#DejaVuSans-31" x="63.623047"/>
      </g>
     </g>
    </g>
    <g id="xtick_13">
     <g id="line2d_25">
      <path d="M 400.18987 458.44 
L 400.18987 28.32 
" clip-path="url(#pb0510aba2c)" style="fill: none; stroke-dasharray: 2.96,1.28; stroke-dashoffset: 0; stroke: #b0b0b0; stroke-opacity: 0.7; stroke-width: 0.8"/>
     </g>
     <g id="line2d_26">
      <g>
       <use xlink:href="#md92ebcf808" x="400.18987" y="458.44" style="stroke: #000000; stroke-width: 0.8"/>
      </g>
     </g>
     <g id="text_13">
      <!-- 12 -->
      <g transform="translate(393.82737 473.038437) scale(0.1 -0.1)">
       <use xlink:href="#DejaVuSans-31"/>
       <use xlink:href="#DejaVuSans-32" x="63.623047"/>
      </g>
     </g>
    </g>
    <g id="xtick_14">
     <g id="line2d_27">
      <path d="M 426.224935 458.44 
L 426.224935 28.32 
" clip-path="url(#pb0510aba2c)" style="fill: none; stroke-dasharray: 2.96,1.28; stroke-dashoffset: 0; stroke: #b0b0b0; stroke-opacity: 0.7; stroke-width: 0.8"/>
     </g>
     <g id="line2d_28">
      <g>
       <use xlink:href="#md92ebcf808" x="426.224935" y="458.44" style="stroke: #000000; stroke-width: 0.8"/>
      </g>
     </g>
     <g id="text_14">
      <!-- 13 -->
      <g transform="translate(419.862435 473.038437) scale(0.1 -0.1)">
       <use xlink:href="#DejaVuSans-31"/>
       <use xlink:href="#DejaVuSans-33" x="63.623047"/>
      </g>
     </g>
    </g>
    <g id="xtick_15">
     <g id="line2d_29">
      <path d="M 452.26 458.44 
L 452.26 28.32 
" clip-path="url(#pb0510aba2c)" style="fill: none; stroke-dasharray: 2.96,1.28; stroke-dashoffset: 0; stroke: #b0b0b0; stroke-opacity: 0.7; stroke-width: 0.8"/>
     </g>
     <g id="line2d_30">
      <g>
       <use xlink:href="#md92ebcf808" x="452.26" y="458.44" style="stroke: #000000; stroke-width: 0.8"/>
      </g>
     </g>
     <g id="text_15">
      <!-- 14 -->
      <g transform="translate(445.8975 473.038437) scale(0.1 -0.1)">
       <use xlink:href="#DejaVuSans-31"/>
       <use xlink:href="#DejaVuSans-34" x="63.623047"/>
      </g>
     </g>
    </g>
    <g id="xtick_16">
     <g id="line2d_31">
      <path d="M 478.295065 458.44 
L 478.295065 28.32 
" clip-path="url(#pb0510aba2c)" style="fill: none; stroke-dasharray: 2.96,1.28; stroke-dashoffset: 0; stroke: #b0b0b0; stroke-opacity: 0.7; stroke-width: 0.8"/>
     </g>
     <g id="line2d_32">
      <g>
       <use xlink:href="#md92ebcf808" x="478.295065" y="458.44" style="stroke: #000000; stroke-width: 0.8"/>
      </g>
     </g>
     <g id="text_16">
      <!-- 15 -->
      <g transform="translate(471.932565 473.038437) scale(0.1 -0.1)">
       <use xlink:href="#DejaVuSans-31"/>
       <use xlink:href="#DejaVuSans-35" x="63.623047"/>
      </g>
     </g>
    </g>
    <g id="xtick_17">
     <g id="line2d_33">
      <path d="M 504.33013 458.44 
L 504.33013 28.32 
" clip-path="url(#pb0510aba2c)" style="fill: none; stroke-dasharray: 2.96,1.28; stroke-dashoffset: 0; stroke: #b0b0b0; stroke-opacity: 0.7; stroke-width: 0.8"/>
     </g>
     <g id="line2d_34">
      <g>
       <use xlink:href="#md92ebcf808" x="504.33013" y="458.44" style="stroke: #000000; stroke-width: 0.8"/>
      </g>
     </g>
     <g id="text_17">
      <!-- 16 -->
      <g transform="translate(497.96763 473.038437) scale(0.1 -0.1)">
       <use xlink:href="#DejaVuSans-31"/>
       <use xlink:href="#DejaVuSans-36" x="63.623047"/>
      </g>
     </g>
    </g>
    <g id="xtick_18">
     <g id="line2d_35">
      <path d="M 530.365195 458.44 
L 530.365195 28.32 
" clip-path="url(#pb0510aba2c)" style="fill: none; stroke-dasharray: 2.96,1.28; stroke-dashoffset: 0; stroke: #b0b0b0; stroke-opacity: 0.7; stroke-width: 0.8"/>
     </g>
     <g id="line2d_36">
      <g>
       <use xlink:href="#md92ebcf808" x="530.365195" y="458.44" style="stroke: #000000; stroke-width: 0.8"/>
      </g>
     </g>
     <g id="text_18">
      <!-- 17 -->
      <g transform="translate(524.002695 473.038437) scale(0.1 -0.1)">
       <use xlink:href="#DejaVuSans-31"/>
       <use xlink:href="#DejaVuSans-37" x="63.623047"/>
      </g>
     </g>
    </g>
    <g id="xtick_19">
     <g id="line2d_37">
      <path d="M 556.40026 458.44 
L 556.40026 28.32 
" clip-path="url(#pb0510aba2c)" style="fill: none; stroke-dasharray: 2.96,1.28; stroke-dashoffset: 0; stroke: #b0b0b0; stroke-opacity: 0.7; stroke-width: 0.8"/>
     </g>
     <g id="line2d_38">
      <g>
       <use xlink:href="#md92ebcf808" x="556.40026" y="458.44" style="stroke: #000000; stroke-width: 0.8"/>
      </g>
     </g>
     <g id="text_19">
      <!-- 18 -->
      <g transform="translate(550.03776 473.038437) scale(0.1 -0.1)">
       <use xlink:href="#DejaVuSans-31"/>
       <use xlink:href="#DejaVuSans-38" x="63.623047"/>
      </g>
     </g>
    </g>
    <g id="xtick_20">
     <g id="line2d_39">
      <path d="M 582.435325 458.44 
L 582.435325 28.32 
" clip-path="url(#pb0510aba2c)" style="fill: none; stroke-dasharray: 2.96,1.28; stroke-dashoffset: 0; stroke: #b0b0b0; stroke-opacity: 0.7; stroke-width: 0.8"/>
     </g>
     <g id="line2d_40">
      <g>
       <use xlink:href="#md92ebcf808" x="582.435325" y="458.44" style="stroke: #000000; stroke-width: 0.8"/>
      </g>
     </g>
     <g id="text_20">
      <!-- 19 -->
      <g transform="translate(576.072825 473.038437) scale(0.1 -0.1)">
       <use xlink:href="#DejaVuSans-31"/>
       <use xlink:href="#DejaVuSans-39" x="63.623047"/>
      </g>
     </g>
    </g>
    <g id="xtick_21">
     <g id="line2d_41">
      <path d="M 608.47039 458.44 
L 608.47039 28.32 
" clip-path="url(#pb0510aba2c)" style="fill: none; stroke-dasharray: 2.96,1.28; stroke-dashoffset: 0; stroke: #b0b0b0; stroke-opacity: 0.7; stroke-width: 0.8"/>
     </g>
     <g id="line2d_42">
      <g>
       <use xlink:href="#md92ebcf808" x="608.47039" y="458.44" style="stroke: #000000; stroke-width: 0.8"/>
      </g>
     </g>
     <g id="text_21">
      <!-- 20 -->
      <g transform="translate(602.10789 473.038437) scale(0.1 -0.1)">
       <use xlink:href="#DejaVuSans-32"/>
       <use xlink:href="#DejaVuSans-30" x="63.623047"/>
      </g>
     </g>
    </g>
    <g id="xtick_22">
     <g id="line2d_43">
      <path d="M 634.505455 458.44 
L 634.505455 28.32 
" clip-path="url(#pb0510aba2c)" style="fill: none; stroke-dasharray: 2.96,1.28; stroke-dashoffset: 0; stroke: #b0b0b0; stroke-opacity: 0.7; stroke-width: 0.8"/>
     </g>
     <g id="line2d_44">
      <g>
       <use xlink:href="#md92ebcf808" x="634.505455" y="458.44" style="stroke: #000000; stroke-width: 0.8"/>
      </g>
     </g>
     <g id="text_22">
      <!-- 21 -->
      <g transform="translate(628.142955 473.038437) scale(0.1 -0.1)">
       <use xlink:href="#DejaVuSans-32"/>
       <use xlink:href="#DejaVuSans-31" x="63.623047"/>
      </g>
     </g>
    </g>
    <g id="xtick_23">
     <g id="line2d_45">
      <path d="M 660.540519 458.44 
L 660.540519 28.32 
" clip-path="url(#pb0510aba2c)" style="fill: none; stroke-dasharray: 2.96,1.28; stroke-dashoffset: 0; stroke: #b0b0b0; stroke-opacity: 0.7; stroke-width: 0.8"/>
     </g>
     <g id="line2d_46">
      <g>
       <use xlink:href="#md92ebcf808" x="660.540519" y="458.44" style="stroke: #000000; stroke-width: 0.8"/>
      </g>
     </g>
     <g id="text_23">
      <!-- 22 -->
      <g transform="translate(654.178019 473.038437) scale(0.1 -0.1)">
       <use xlink:href="#DejaVuSans-32"/>
       <use xlink:href="#DejaVuSans-32" x="63.623047"/>
      </g>
     </g>
    </g>
    <g id="xtick_24">
     <g id="line2d_47">
      <path d="M 686.575584 458.44 
L 686.575584 28.32 
" clip-path="url(#pb0510aba2c)" style="fill: none; stroke-dasharray: 2.96,1.28; stroke-dashoffset: 0; stroke: #b0b0b0; stroke-opacity: 0.7; stroke-width: 0.8"/>
     </g>
     <g id="line2d_48">
      <g>
       <use xlink:href="#md92ebcf808" x="686.575584" y="458.44" style="stroke: #000000; stroke-width: 0.8"/>
      </g>
     </g>
     <g id="text_24">
      <!-- 23 -->
      <g transform="translate(680.213084 473.038437) scale(0.1 -0.1)">
       <use xlink:href="#DejaVuSans-32"/>
       <use xlink:href="#DejaVuSans-33" x="63.623047"/>
      </g>
     </g>
    </g>
    <g id="xtick_25">
     <g id="line2d_49">
      <path d="M 712.610649 458.44 
L 712.610649 28.32 
" clip-path="url(#pb0510aba2c)" style="fill: none; stroke-dasharray: 2.96,1.28; stroke-dashoffset: 0; stroke: #b0b0b0; stroke-opacity: 0.7; stroke-width: 0.8"/>
     </g>
     <g id="line2d_50">
      <g>
       <use xlink:href="#md92ebcf808" x="712.610649" y="458.44" style="stroke: #000000; stroke-width: 0.8"/>
      </g>
     </g>
     <g id="text_25">
      <!-- 24 -->
      <g transform="translate(706.248149 473.038437) scale(0.1 -0.1)">
       <use xlink:href="#DejaVuSans-32"/>
       <use xlink:href="#DejaVuSans-34" x="63.623047"/>
      </g>
     </g>
    </g>
    <g id="xtick_26">
     <g id="line2d_51">
      <path d="M 738.645714 458.44 
L 738.645714 28.32 
" clip-path="url(#pb0510aba2c)" style="fill: none; stroke-dasharray: 2.96,1.28; stroke-dashoffset: 0; stroke: #b0b0b0; stroke-opacity: 0.7; stroke-width: 0.8"/>
     </g>
     <g id="line2d_52">
      <g>
       <use xlink:href="#md92ebcf808" x="738.645714" y="458.44" style="stroke: #000000; stroke-width: 0.8"/>
      </g>
     </g>
     <g id="text_26">
      <!-- 25 -->
      <g transform="translate(732.283214 473.038437) scale(0.1 -0.1)">
       <use xlink:href="#DejaVuSans-32"/>
       <use xlink:href="#DejaVuSans-35" x="63.623047"/>
      </g>
     </g>
    </g>
    <g id="xtick_27">
     <g id="line2d_53">
      <path d="M 764.680779 458.44 
L 764.680779 28.32 
" clip-path="url(#pb0510aba2c)" style="fill: none; stroke-dasharray: 2.96,1.28; stroke-dashoffset: 0; stroke: #b0b0b0; stroke-opacity: 0.7; stroke-width: 0.8"/>
     </g>
     <g id="line2d_54">
      <g>
       <use xlink:href="#md92ebcf808" x="764.680779" y="458.44" style="stroke: #000000; stroke-width: 0.8"/>
      </g>
     </g>
     <g id="text_27">
      <!-- 26 -->
      <g transform="translate(758.318279 473.038437) scale(0.1 -0.1)">
       <use xlink:href="#DejaVuSans-32"/>
       <use xlink:href="#DejaVuSans-36" x="63.623047"/>
      </g>
     </g>
    </g>
    <g id="xtick_28">
     <g id="line2d_55">
      <path d="M 790.715844 458.44 
L 790.715844 28.32 
" clip-path="url(#pb0510aba2c)" style="fill: none; stroke-dasharray: 2.96,1.28; stroke-dashoffset: 0; stroke: #b0b0b0; stroke-opacity: 0.7; stroke-width: 0.8"/>
     </g>
     <g id="line2d_56">
      <g>
       <use xlink:href="#md92ebcf808" x="790.715844" y="458.44" style="stroke: #000000; stroke-width: 0.8"/>
      </g>
     </g>
     <g id="text_28">
      <!-- 27 -->
      <g transform="translate(784.353344 473.038437) scale(0.1 -0.1)">
       <use xlink:href="#DejaVuSans-32"/>
       <use xlink:href="#DejaVuSans-37" x="63.623047"/>
      </g>
     </g>
    </g>
    <g id="xtick_29">
     <g id="line2d_57">
      <path d="M 816.750909 458.44 
L 816.750909 28.32 
" clip-path="url(#pb0510aba2c)" style="fill: none; stroke-dasharray: 2.96,1.28; stroke-dashoffset: 0; stroke: #b0b0b0; stroke-opacity: 0.7; stroke-width: 0.8"/>
     </g>
     <g id="line2d_58">
      <g>
       <use xlink:href="#md92ebcf808" x="816.750909" y="458.44" style="stroke: #000000; stroke-width: 0.8"/>
      </g>
     </g>
     <g id="text_29">
      <!-- 28 -->
      <g transform="translate(810.388409 473.038437) scale(0.1 -0.1)">
       <use xlink:href="#DejaVuSans-32"/>
       <use xlink:href="#DejaVuSans-38" x="63.623047"/>
      </g>
     </g>
    </g>
    <g id="text_30">
     <!-- Layer Index (0=Embeddings) -->
     <g transform="translate(349.886094 489.755937) scale(0.14 -0.14)">
      <defs>
       <path id="DejaVuSans-4c" d="M 628 4666 
L 1259 4666 
L 1259 531 
L 3531 531 
L 3531 0 
L 628 0 
L 628 4666 
z
" transform="scale(0.015625)"/>
       <path id="DejaVuSans-61" d="M 2194 1759 
Q 1497 1759 1228 1600 
Q 959 1441 959 1056 
Q 959 750 1161 570 
Q 1363 391 1709 391 
Q 2188 391 2477 730 
Q 2766 1069 2766 1631 
L 2766 1759 
L 2194 1759 
z
M 3341 1997 
L 3341 0 
L 2766 0 
L 2766 531 
Q 2569 213 2275 61 
Q 1981 -91 1556 -91 
Q 1019 -91 701 211 
Q 384 513 384 1019 
Q 384 1609 779 1909 
Q 1175 2209 1959 2209 
L 2766 2209 
L 2766 2266 
Q 2766 2663 2505 2880 
Q 2244 3097 1772 3097 
Q 1472 3097 1187 3025 
Q 903 2953 641 2809 
L 641 3341 
Q 956 3463 1253 3523 
Q 1550 3584 1831 3584 
Q 2591 3584 2966 3190 
Q 3341 2797 3341 1997 
z
" transform="scale(0.015625)"/>
       <path id="DejaVuSans-79" d="M 2059 -325 
Q 1816 -950 1584 -1140 
Q 1353 -1331 966 -1331 
L 506 -1331 
L 506 -850 
L 844 -850 
Q 1081 -850 1212 -737 
Q 1344 -625 1503 -206 
L 1606 56 
L 191 3500 
L 800 3500 
L 1894 763 
L 2988 3500 
L 3597 3500 
L 2059 -325 
z
" transform="scale(0.015625)"/>
       <path id="DejaVuSans-65" d="M 3597 1894 
L 3597 1613 
L 953 1613 
Q 991 1019 1311 708 
Q 1631 397 2203 397 
Q 2534 397 2845 478 
Q 3156 559 3463 722 
L 3463 178 
Q 3153 47 2828 -22 
Q 2503 -91 2169 -91 
Q 1331 -91 842 396 
Q 353 884 353 1716 
Q 353 2575 817 3079 
Q 1281 3584 2069 3584 
Q 2775 3584 3186 3129 
Q 3597 2675 3597 1894 
z
M 3022 2063 
Q 3016 2534 2758 2815 
Q 2500 3097 2075 3097 
Q 1594 3097 1305 2825 
Q 1016 2553 972 2059 
L 3022 2063 
z
" transform="scale(0.015625)"/>
       <path id="DejaVuSans-72" d="M 2631 2963 
Q 2534 3019 2420 3045 
Q 2306 3072 2169 3072 
Q 1681 3072 1420 2755 
Q 1159 2438 1159 1844 
L 1159 0 
L 581 0 
L 581 3500 
L 1159 3500 
L 1159 2956 
Q 1341 3275 1631 3429 
Q 1922 3584 2338 3584 
Q 2397 3584 2469 3576 
Q 2541 3569 2628 3553 
L 2631 2963 
z
" transform="scale(0.015625)"/>
       <path id="DejaVuSans-20" transform="scale(0.015625)"/>
       <path id="DejaVuSans-49" d="M 628 4666 
L 1259 4666 
L 1259 0 
L 628 0 
L 628 4666 
z
" transform="scale(0.015625)"/>
       <path id="DejaVuSans-6e" d="M 3513 2113 
L 3513 0 
L 2938 0 
L 2938 2094 
Q 2938 2591 2744 2837 
Q 2550 3084 2163 3084 
Q 1697 3084 1428 2787 
Q 1159 2491 1159 1978 
L 1159 0 
L 581 0 
L 581 3500 
L 1159 3500 
L 1159 2956 
Q 1366 3272 1645 3428 
Q 1925 3584 2291 3584 
Q 2894 3584 3203 3211 
Q 3513 2838 3513 2113 
z
" transform="scale(0.015625)"/>
       <path id="DejaVuSans-64" d="M 2906 2969 
L 2906 4863 
L 3481 4863 
L 3481 0 
L 2906 0 
L 2906 525 
Q 2725 213 2448 61 
Q 2172 -91 1784 -91 
Q 1150 -91 751 415 
Q 353 922 353 1747 
Q 353 2572 751 3078 
Q 1150 3584 1784 3584 
Q 2172 3584 2448 3432 
Q 2725 3281 2906 2969 
z
M 947 1747 
Q 947 1113 1208 752 
Q 1469 391 1925 391 
Q 2381 391 2643 752 
Q 2906 1113 2906 1747 
Q 2906 2381 2643 2742 
Q 2381 3103 1925 3103 
Q 1469 3103 1208 2742 
Q 947 2381 947 1747 
z
" transform="scale(0.015625)"/>
       <path id="DejaVuSans-78" d="M 3513 3500 
L 2247 1797 
L 3578 0 
L 2900 0 
L 1881 1375 
L 863 0 
L 184 0 
L 1544 1831 
L 300 3500 
L 978 3500 
L 1906 2253 
L 2834 3500 
L 3513 3500 
z
" transform="scale(0.015625)"/>
       <path id="DejaVuSans-28" d="M 1984 4856 
Q 1566 4138 1362 3434 
Q 1159 2731 1159 2009 
Q 1159 1288 1364 580 
Q 1569 -128 1984 -844 
L 1484 -844 
Q 1016 -109 783 600 
Q 550 1309 550 2009 
Q 550 2706 781 3412 
Q 1013 4119 1484 4856 
L 1984 4856 
z
" transform="scale(0.015625)"/>
       <path id="DejaVuSans-3d" d="M 678 2906 
L 4684 2906 
L 4684 2381 
L 678 2381 
L 678 2906 
z
M 678 1631 
L 4684 1631 
L 4684 1100 
L 678 1100 
L 678 1631 
z
" transform="scale(0.015625)"/>
       <path id="DejaVuSans-45" d="M 628 4666 
L 3578 4666 
L 3578 4134 
L 1259 4134 
L 1259 2753 
L 3481 2753 
L 3481 2222 
L 1259 2222 
L 1259 531 
L 3634 531 
L 3634 0 
L 628 0 
L 628 4666 
z
" transform="scale(0.015625)"/>
       <path id="DejaVuSans-6d" d="M 3328 2828 
Q 3544 3216 3844 3400 
Q 4144 3584 4550 3584 
Q 5097 3584 5394 3201 
Q 5691 2819 5691 2113 
L 5691 0 
L 5113 0 
L 5113 2094 
Q 5113 2597 4934 2840 
Q 4756 3084 4391 3084 
Q 3944 3084 3684 2787 
Q 3425 2491 3425 1978 
L 3425 0 
L 2847 0 
L 2847 2094 
Q 2847 2600 2669 2842 
Q 2491 3084 2119 3084 
Q 1678 3084 1418 2786 
Q 1159 2488 1159 1978 
L 1159 0 
L 581 0 
L 581 3500 
L 1159 3500 
L 1159 2956 
Q 1356 3278 1631 3431 
Q 1906 3584 2284 3584 
Q 2666 3584 2933 3390 
Q 3200 3197 3328 2828 
z
" transform="scale(0.015625)"/>
       <path id="DejaVuSans-62" d="M 3116 1747 
Q 3116 2381 2855 2742 
Q 2594 3103 2138 3103 
Q 1681 3103 1420 2742 
Q 1159 2381 1159 1747 
Q 1159 1113 1420 752 
Q 1681 391 2138 391 
Q 2594 391 2855 752 
Q 3116 1113 3116 1747 
z
M 1159 2969 
Q 1341 3281 1617 3432 
Q 1894 3584 2278 3584 
Q 2916 3584 3314 3078 
Q 3713 2572 3713 1747 
Q 3713 922 3314 415 
Q 2916 -91 2278 -91 
Q 1894 -91 1617 61 
Q 1341 213 1159 525 
L 1159 0 
L 581 0 
L 581 4863 
L 1159 4863 
L 1159 2969 
z
" transform="scale(0.015625)"/>
       <path id="DejaVuSans-69" d="M 603 3500 
L 1178 3500 
L 1178 0 
L 603 0 
L 603 3500 
z
M 603 4863 
L 1178 4863 
L 1178 4134 
L 603 4134 
L 603 4863 
z
" transform="scale(0.015625)"/>
       <path id="DejaVuSans-67" d="M 2906 1791 
Q 2906 2416 2648 2759 
Q 2391 3103 1925 3103 
Q 1463 3103 1205 2759 
Q 947 2416 947 1791 
Q 947 1169 1205 825 
Q 1463 481 1925 481 
Q 2391 481 2648 825 
Q 2906 1169 2906 1791 
z
M 3481 434 
Q 3481 -459 3084 -895 
Q 2688 -1331 1869 -1331 
Q 1566 -1331 1297 -1286 
Q 1028 -1241 775 -1147 
L 775 -588 
Q 1028 -725 1275 -790 
Q 1522 -856 1778 -856 
Q 2344 -856 2625 -561 
Q 2906 -266 2906 331 
L 2906 616 
Q 2728 306 2450 153 
Q 2172 0 1784 0 
Q 1141 0 747 490 
Q 353 981 353 1791 
Q 353 2603 747 3093 
Q 1141 3584 1784 3584 
Q 2172 3584 2450 3431 
Q 2728 3278 2906 2969 
L 2906 3500 
L 3481 3500 
L 3481 434 
z
" transform="scale(0.015625)"/>
       <path id="DejaVuSans-73" d="M 2834 3397 
L 2834 2853 
Q 2591 2978 2328 3040 
Q 2066 3103 1784 3103 
Q 1356 3103 1142 2972 
Q 928 2841 928 2578 
Q 928 2378 1081 2264 
Q 1234 2150 1697 2047 
L 1894 2003 
Q 2506 1872 2764 1633 
Q 3022 1394 3022 966 
Q 3022 478 2636 193 
Q 2250 -91 1575 -91 
Q 1294 -91 989 -36 
Q 684 19 347 128 
L 347 722 
Q 666 556 975 473 
Q 1284 391 1588 391 
Q 1994 391 2212 530 
Q 2431 669 2431 922 
Q 2431 1156 2273 1281 
Q 2116 1406 1581 1522 
L 1381 1569 
Q 847 1681 609 1914 
Q 372 2147 372 2553 
Q 372 3047 722 3315 
Q 1072 3584 1716 3584 
Q 2034 3584 2315 3537 
Q 2597 3491 2834 3397 
z
" transform="scale(0.015625)"/>
       <path id="DejaVuSans-29" d="M 513 4856 
L 1013 4856 
Q 1481 4119 1714 3412 
Q 1947 2706 1947 2009 
Q 1947 1309 1714 600 
Q 1481 -109 1013 -844 
L 513 -844 
Q 928 -128 1133 580 
Q 1338 1288 1338 2009 
Q 1338 2731 1133 3434 
Q 928 4138 513 4856 
z
" transform="scale(0.015625)"/>
      </defs>
      <use xlink:href="#DejaVuSans-4c"/>
      <use xlink:href="#DejaVuSans-61" x="55.712891"/>
      <use xlink:href="#DejaVuSans-79" x="116.992188"/>
      <use xlink:href="#DejaVuSans-65" x="176.171875"/>
      <use xlink:href="#DejaVuSans-72" x="237.695312"/>
      <use xlink:href="#DejaVuSans-20" x="278.808594"/>
      <use xlink:href="#DejaVuSans-49" x="310.595703"/>
      <use xlink:href="#DejaVuSans-6e" x="340.087891"/>
      <use xlink:href="#DejaVuSans-64" x="403.466797"/>
      <use xlink:href="#DejaVuSans-65" x="466.943359"/>
      <use xlink:href="#DejaVuSans-78" x="526.716797"/>
      <use xlink:href="#DejaVuSans-20" x="585.896484"/>
      <use xlink:href="#DejaVuSans-28" x="617.683594"/>
      <use xlink:href="#DejaVuSans-30" x="656.697266"/>
      <use xlink:href="#DejaVuSans-3d" x="720.320312"/>
      <use xlink:href="#DejaVuSans-45" x="804.109375"/>
      <use xlink:href="#DejaVuSans-6d" x="867.292969"/>
      <use xlink:href="#DejaVuSans-62" x="964.705078"/>
      <use xlink:href="#DejaVuSans-65" x="1028.181641"/>
      <use xlink:href="#DejaVuSans-64" x="1089.705078"/>
      <use xlink:href="#DejaVuSans-64" x="1153.181641"/>
      <use xlink:href="#DejaVuSans-69" x="1216.658203"/>
      <use xlink:href="#DejaVuSans-6e" x="1244.441406"/>
      <use xlink:href="#DejaVuSans-67" x="1307.820312"/>
      <use xlink:href="#DejaVuSans-73" x="1371.296875"/>
      <use xlink:href="#DejaVuSans-29" x="1423.396484"/>
     </g>
    </g>
   </g>
   <g id="matplotlib.axis_2">
    <g id="ytick_1">
     <g id="line2d_59">
      <path d="M 51.32 458.44 
L 853.2 458.44 
" clip-path="url(#pb0510aba2c)" style="fill: none; stroke-dasharray: 2.96,1.28; stroke-dashoffset: 0; stroke: #b0b0b0; stroke-opacity: 0.7; stroke-width: 0.8"/>
     </g>
     <g id="line2d_60">
      <defs>
       <path id="m6d5ca79e7e" d="M 0 0 
L -3.5 0 
" style="stroke: #000000; stroke-width: 0.8"/>
      </defs>
      <g>
       <use xlink:href="#m6d5ca79e7e" x="51.32" y="458.44" style="stroke: #000000; stroke-width: 0.8"/>
      </g>
     </g>
     <g id="text_31">
      <!-- 0.0 -->
      <g transform="translate(28.416875 462.239219) scale(0.1 -0.1)">
       <defs>
        <path id="DejaVuSans-2e" d="M 684 794 
L 1344 794 
L 1344 0 
L 684 0 
L 684 794 
z
" transform="scale(0.015625)"/>
       </defs>
       <use xlink:href="#DejaVuSans-30"/>
       <use xlink:href="#DejaVuSans-2e" x="63.623047"/>
       <use xlink:href="#DejaVuSans-30" x="95.410156"/>
      </g>
     </g>
    </g>
    <g id="ytick_2">
     <g id="line2d_61">
      <path d="M 51.32 376.512381 
L 853.2 376.512381 
" clip-path="url(#pb0510aba2c)" style="fill: none; stroke-dasharray: 2.96,1.28; stroke-dashoffset: 0; stroke: #b0b0b0; stroke-opacity: 0.7; stroke-width: 0.8"/>
     </g>
     <g id="line2d_62">
      <g>
       <use xlink:href="#m6d5ca79e7e" x="51.32" y="376.512381" style="stroke: #000000; stroke-width: 0.8"/>
      </g>
     </g>
     <g id="text_32">
      <!-- 0.2 -->
      <g transform="translate(28.416875 380.3116) scale(0.1 -0.1)">
       <use xlink:href="#DejaVuSans-30"/>
       <use xlink:href="#DejaVuSans-2e" x="63.623047"/>
       <use xlink:href="#DejaVuSans-32" x="95.410156"/>
      </g>
     </g>
    </g>
    <g id="ytick_3">
     <g id="line2d_63">
      <path d="M 51.32 294.584762 
L 853.2 294.584762 
" clip-path="url(#pb0510aba2c)" style="fill: none; stroke-dasharray: 2.96,1.28; stroke-dashoffset: 0; stroke: #b0b0b0; stroke-opacity: 0.7; stroke-width: 0.8"/>
     </g>
     <g id="line2d_64">
      <g>
       <use xlink:href="#m6d5ca79e7e" x="51.32" y="294.584762" style="stroke: #000000; stroke-width: 0.8"/>
      </g>
     </g>
     <g id="text_33">
      <!-- 0.4 -->
      <g transform="translate(28.416875 298.383981) scale(0.1 -0.1)">
       <use xlink:href="#DejaVuSans-30"/>
       <use xlink:href="#DejaVuSans-2e" x="63.623047"/>
       <use xlink:href="#DejaVuSans-34" x="95.410156"/>
      </g>
     </g>
    </g>
    <g id="ytick_4">
     <g id="line2d_65">
      <path d="M 51.32 212.657143 
L 853.2 212.657143 
" clip-path="url(#pb0510aba2c)" style="fill: none; stroke-dasharray: 2.96,1.28; stroke-dashoffset: 0; stroke: #b0b0b0; stroke-opacity: 0.7; stroke-width: 0.8"/>
     </g>
     <g id="line2d_66">
      <g>
       <use xlink:href="#m6d5ca79e7e" x="51.32" y="212.657143" style="stroke: #000000; stroke-width: 0.8"/>
      </g>
     </g>
     <g id="text_34">
      <!-- 0.6 -->
      <g transform="translate(28.416875 216.456362) scale(0.1 -0.1)">
       <use xlink:href="#DejaVuSans-30"/>
       <use xlink:href="#DejaVuSans-2e" x="63.623047"/>
       <use xlink:href="#DejaVuSans-36" x="95.410156"/>
      </g>
     </g>
    </g>
    <g id="ytick_5">
     <g id="line2d_67">
      <path d="M 51.32 130.729524 
L 853.2 130.729524 
" clip-path="url(#pb0510aba2c)" style="fill: none; stroke-dasharray: 2.96,1.28; stroke-dashoffset: 0; stroke: #b0b0b0; stroke-opacity: 0.7; stroke-width: 0.8"/>
     </g>
     <g id="line2d_68">
      <g>
       <use xlink:href="#m6d5ca79e7e" x="51.32" y="130.729524" style="stroke: #000000; stroke-width: 0.8"/>
      </g>
     </g>
     <g id="text_35">
      <!-- 0.8 -->
      <g transform="translate(28.416875 134.528743) scale(0.1 -0.1)">
       <use xlink:href="#DejaVuSans-30"/>
       <use xlink:href="#DejaVuSans-2e" x="63.623047"/>
       <use xlink:href="#DejaVuSans-38" x="95.410156"/>
      </g>
     </g>
    </g>
    <g id="ytick_6">
     <g id="line2d_69">
      <path d="M 51.32 48.801905 
L 853.2 48.801905 
" clip-path="url(#pb0510aba2c)" style="fill: none; stroke-dasharray: 2.96,1.28; stroke-dashoffset: 0; stroke: #b0b0b0; stroke-opacity: 0.7; stroke-width: 0.8"/>
     </g>
     <g id="line2d_70">
      <g>
       <use xlink:href="#m6d5ca79e7e" x="51.32" y="48.801905" style="stroke: #000000; stroke-width: 0.8"/>
      </g>
     </g>
     <g id="text_36">
      <!-- 1.0 -->
      <g transform="translate(28.416875 52.601124) scale(0.1 -0.1)">
       <use xlink:href="#DejaVuSans-31"/>
       <use xlink:href="#DejaVuSans-2e" x="63.623047"/>
       <use xlink:href="#DejaVuSans-30" x="95.410156"/>
      </g>
     </g>
    </g>
    <g id="text_37">
     <!-- Average Digit Prediction Accuracy -->
     <g transform="translate(21.505313 361.998281) rotate(-90) scale(0.14 -0.14)">
      <defs>
       <path id="DejaVuSans-41" d="M 2188 4044 
L 1331 1722 
L 3047 1722 
L 2188 4044 
z
M 1831 4666 
L 2547 4666 
L 4325 0 
L 3669 0 
L 3244 1197 
L 1141 1197 
L 716 0 
L 50 0 
L 1831 4666 
z
" transform="scale(0.015625)"/>
       <path id="DejaVuSans-76" d="M 191 3500 
L 800 3500 
L 1894 563 
L 2988 3500 
L 3597 3500 
L 2284 0 
L 1503 0 
L 191 3500 
z
" transform="scale(0.015625)"/>
       <path id="DejaVuSans-44" d="M 1259 4147 
L 1259 519 
L 2022 519 
Q 2988 519 3436 956 
Q 3884 1394 3884 2338 
Q 3884 3275 3436 3711 
Q 2988 4147 2022 4147 
L 1259 4147 
z
M 628 4666 
L 1925 4666 
Q 3281 4666 3915 4102 
Q 4550 3538 4550 2338 
Q 4550 1131 3912 565 
Q 3275 0 1925 0 
L 628 0 
L 628 4666 
z
" transform="scale(0.015625)"/>
       <path id="DejaVuSans-74" d="M 1172 4494 
L 1172 3500 
L 2356 3500 
L 2356 3053 
L 1172 3053 
L 1172 1153 
Q 1172 725 1289 603 
Q 1406 481 1766 481 
L 2356 481 
L 2356 0 
L 1766 0 
Q 1100 0 847 248 
Q 594 497 594 1153 
L 594 3053 
L 172 3053 
L 172 3500 
L 594 3500 
L 594 4494 
L 1172 4494 
z
" transform="scale(0.015625)"/>
       <path id="DejaVuSans-50" d="M 1259 4147 
L 1259 2394 
L 2053 2394 
Q 2494 2394 2734 2622 
Q 2975 2850 2975 3272 
Q 2975 3691 2734 3919 
Q 2494 4147 2053 4147 
L 1259 4147 
z
M 628 4666 
L 2053 4666 
Q 2838 4666 3239 4311 
Q 3641 3956 3641 3272 
Q 3641 2581 3239 2228 
Q 2838 1875 2053 1875 
L 1259 1875 
L 1259 0 
L 628 0 
L 628 4666 
z
" transform="scale(0.015625)"/>
       <path id="DejaVuSans-63" d="M 3122 3366 
L 3122 2828 
Q 2878 2963 2633 3030 
Q 2388 3097 2138 3097 
Q 1578 3097 1268 2742 
Q 959 2388 959 1747 
Q 959 1106 1268 751 
Q 1578 397 2138 397 
Q 2388 397 2633 464 
Q 2878 531 3122 666 
L 3122 134 
Q 2881 22 2623 -34 
Q 2366 -91 2075 -91 
Q 1284 -91 818 406 
Q 353 903 353 1747 
Q 353 2603 823 3093 
Q 1294 3584 2113 3584 
Q 2378 3584 2631 3529 
Q 2884 3475 3122 3366 
z
" transform="scale(0.015625)"/>
       <path id="DejaVuSans-6f" d="M 1959 3097 
Q 1497 3097 1228 2736 
Q 959 2375 959 1747 
Q 959 1119 1226 758 
Q 1494 397 1959 397 
Q 2419 397 2687 759 
Q 2956 1122 2956 1747 
Q 2956 2369 2687 2733 
Q 2419 3097 1959 3097 
z
M 1959 3584 
Q 2709 3584 3137 3096 
Q 3566 2609 3566 1747 
Q 3566 888 3137 398 
Q 2709 -91 1959 -91 
Q 1206 -91 779 398 
Q 353 888 353 1747 
Q 353 2609 779 3096 
Q 1206 3584 1959 3584 
z
" transform="scale(0.015625)"/>
       <path id="DejaVuSans-75" d="M 544 1381 
L 544 3500 
L 1119 3500 
L 1119 1403 
Q 1119 906 1312 657 
Q 1506 409 1894 409 
Q 2359 409 2629 706 
Q 2900 1003 2900 1516 
L 2900 3500 
L 3475 3500 
L 3475 0 
L 2900 0 
L 2900 538 
Q 2691 219 2414 64 
Q 2138 -91 1772 -91 
Q 1169 -91 856 284 
Q 544 659 544 1381 
z
M 1991 3584 
L 1991 3584 
z
" transform="scale(0.015625)"/>
      </defs>
      <use xlink:href="#DejaVuSans-41"/>
      <use xlink:href="#DejaVuSans-76" x="62.533203"/>
      <use xlink:href="#DejaVuSans-65" x="121.712891"/>
      <use xlink:href="#DejaVuSans-72" x="183.236328"/>
      <use xlink:href="#DejaVuSans-61" x="224.349609"/>
      <use xlink:href="#DejaVuSans-67" x="285.628906"/>
      <use xlink:href="#DejaVuSans-65" x="349.105469"/>
      <use xlink:href="#DejaVuSans-20" x="410.628906"/>
      <use xlink:href="#DejaVuSans-44" x="442.416016"/>
      <use xlink:href="#DejaVuSans-69" x="519.417969"/>
      <use xlink:href="#DejaVuSans-67" x="547.201172"/>
      <use xlink:href="#DejaVuSans-69" x="610.677734"/>
      <use xlink:href="#DejaVuSans-74" x="638.460938"/>
      <use xlink:href="#DejaVuSans-20" x="677.669922"/>
      <use xlink:href="#DejaVuSans-50" x="709.457031"/>
      <use xlink:href="#DejaVuSans-72" x="768.009766"/>
      <use xlink:href="#DejaVuSans-65" x="806.873047"/>
      <use xlink:href="#DejaVuSans-64" x="868.396484"/>
      <use xlink:href="#DejaVuSans-69" x="931.873047"/>
      <use xlink:href="#DejaVuSans-63" x="959.65625"/>
      <use xlink:href="#DejaVuSans-74" x="1014.636719"/>
      <use xlink:href="#DejaVuSans-69" x="1053.845703"/>
      <use xlink:href="#DejaVuSans-6f" x="1081.628906"/>
      <use xlink:href="#DejaVuSans-6e" x="1142.810547"/>
      <use xlink:href="#DejaVuSans-20" x="1206.189453"/>
      <use xlink:href="#DejaVuSans-41" x="1237.976562"/>
      <use xlink:href="#DejaVuSans-63" x="1304.634766"/>
      <use xlink:href="#DejaVuSans-63" x="1359.615234"/>
      <use xlink:href="#DejaVuSans-75" x="1414.595703"/>
      <use xlink:href="#DejaVuSans-72" x="1477.974609"/>
      <use xlink:href="#DejaVuSans-61" x="1519.087891"/>
      <use xlink:href="#DejaVuSans-63" x="1580.367188"/>
      <use xlink:href="#DejaVuSans-79" x="1635.347656"/>
     </g>
    </g>
   </g>
   <g id="line2d_71">
    <path d="M 87.769091 366.681067 
L 113.804156 370.777448 
L 139.839221 365.042514 
L 165.874286 361.76541 
L 191.909351 349.476267 
L 217.944416 337.187124 
L 243.979481 362.584686 
L 270.014545 352.753371 
L 296.04961 354.391924 
L 322.084675 353.572648 
L 348.11974 350.295543 
L 374.154805 342.102781 
L 400.18987 328.994362 
L 426.224935 332.271467 
L 452.26 334.729295 
L 478.295065 337.187124 
L 504.33013 350.295543 
L 530.365195 338.825676 
L 556.40026 342.922057 
L 582.435325 352.753371 
L 608.47039 323.259429 
L 634.505455 361.76541 
L 660.540519 317.524495 
L 686.575584 237.235429 
L 712.610649 88.127162 
L 738.645714 70.103086 
L 764.680779 55.356114 
L 790.715844 55.356114 
L 816.750909 54.536838 
" clip-path="url(#pb0510aba2c)" style="fill: none; stroke: #1f77b4; stroke-width: 2.5; stroke-linecap: square"/>
    <defs>
     <path id="meaa9e93a20" d="M 0 3 
C 0.795609 3 1.55874 2.683901 2.12132 2.12132 
C 2.683901 1.55874 3 0.795609 3 0 
C 3 -0.795609 2.683901 -1.55874 2.12132 -2.12132 
C 1.55874 -2.683901 0.795609 -3 0 -3 
C -0.795609 -3 -1.55874 -2.683901 -2.12132 -2.12132 
C -2.683901 -1.55874 -3 -0.795609 -3 0 
C -3 0.795609 -2.683901 1.55874 -2.12132 2.12132 
C -1.55874 2.683901 -0.795609 3 0 3 
z
" style="stroke: #1f77b4"/>
    </defs>
    <g clip-path="url(#pb0510aba2c)">
     <use xlink:href="#meaa9e93a20" x="87.769091" y="366.681067" style="fill: #1f77b4; stroke: #1f77b4"/>
     <use xlink:href="#meaa9e93a20" x="113.804156" y="370.777448" style="fill: #1f77b4; stroke: #1f77b4"/>
     <use xlink:href="#meaa9e93a20" x="139.839221" y="365.042514" style="fill: #1f77b4; stroke: #1f77b4"/>
     <use xlink:href="#meaa9e93a20" x="165.874286" y="361.76541" style="fill: #1f77b4; stroke: #1f77b4"/>
     <use xlink:href="#meaa9e93a20" x="191.909351" y="349.476267" style="fill: #1f77b4; stroke: #1f77b4"/>
     <use xlink:href="#meaa9e93a20" x="217.944416" y="337.187124" style="fill: #1f77b4; stroke: #1f77b4"/>
     <use xlink:href="#meaa9e93a20" x="243.979481" y="362.584686" style="fill: #1f77b4; stroke: #1f77b4"/>
     <use xlink:href="#meaa9e93a20" x="270.014545" y="352.753371" style="fill: #1f77b4; stroke: #1f77b4"/>
     <use xlink:href="#meaa9e93a20" x="296.04961" y="354.391924" style="fill: #1f77b4; stroke: #1f77b4"/>
     <use xlink:href="#meaa9e93a20" x="322.084675" y="353.572648" style="fill: #1f77b4; stroke: #1f77b4"/>
     <use xlink:href="#meaa9e93a20" x="348.11974" y="350.295543" style="fill: #1f77b4; stroke: #1f77b4"/>
     <use xlink:href="#meaa9e93a20" x="374.154805" y="342.102781" style="fill: #1f77b4; stroke: #1f77b4"/>
     <use xlink:href="#meaa9e93a20" x="400.18987" y="328.994362" style="fill: #1f77b4; stroke: #1f77b4"/>
     <use xlink:href="#meaa9e93a20" x="426.224935" y="332.271467" style="fill: #1f77b4; stroke: #1f77b4"/>
     <use xlink:href="#meaa9e93a20" x="452.26" y="334.729295" style="fill: #1f77b4; stroke: #1f77b4"/>
     <use xlink:href="#meaa9e93a20" x="478.295065" y="337.187124" style="fill: #1f77b4; stroke: #1f77b4"/>
     <use xlink:href="#meaa9e93a20" x="504.33013" y="350.295543" style="fill: #1f77b4; stroke: #1f77b4"/>
     <use xlink:href="#meaa9e93a20" x="530.365195" y="338.825676" style="fill: #1f77b4; stroke: #1f77b4"/>
     <use xlink:href="#meaa9e93a20" x="556.40026" y="342.922057" style="fill: #1f77b4; stroke: #1f77b4"/>
     <use xlink:href="#meaa9e93a20" x="582.435325" y="352.753371" style="fill: #1f77b4; stroke: #1f77b4"/>
     <use xlink:href="#meaa9e93a20" x="608.47039" y="323.259429" style="fill: #1f77b4; stroke: #1f77b4"/>
     <use xlink:href="#meaa9e93a20" x="634.505455" y="361.76541" style="fill: #1f77b4; stroke: #1f77b4"/>
     <use xlink:href="#meaa9e93a20" x="660.540519" y="317.524495" style="fill: #1f77b4; stroke: #1f77b4"/>
     <use xlink:href="#meaa9e93a20" x="686.575584" y="237.235429" style="fill: #1f77b4; stroke: #1f77b4"/>
     <use xlink:href="#meaa9e93a20" x="712.610649" y="88.127162" style="fill: #1f77b4; stroke: #1f77b4"/>
     <use xlink:href="#meaa9e93a20" x="738.645714" y="70.103086" style="fill: #1f77b4; stroke: #1f77b4"/>
     <use xlink:href="#meaa9e93a20" x="764.680779" y="55.356114" style="fill: #1f77b4; stroke: #1f77b4"/>
     <use xlink:href="#meaa9e93a20" x="790.715844" y="55.356114" style="fill: #1f77b4; stroke: #1f77b4"/>
     <use xlink:href="#meaa9e93a20" x="816.750909" y="54.536838" style="fill: #1f77b4; stroke: #1f77b4"/>
    </g>
   </g>
   <g id="line2d_72">
    <path d="M 87.769091 406.8256 
L 113.804156 411.741257 
L 139.839221 418.295467 
L 165.874286 406.8256 
L 191.909351 421.572571 
L 217.944416 420.753295 
L 243.979481 416.656914 
L 270.014545 410.921981 
L 296.04961 426.488229 
L 322.084675 408.464152 
L 348.11974 415.018362 
L 374.154805 414.199086 
L 400.18987 407.644876 
L 426.224935 404.367771 
L 452.26 421.572571 
L 478.295065 411.741257 
L 504.33013 412.560533 
L 530.365195 420.753295 
L 556.40026 415.018362 
L 582.435325 406.006324 
L 608.47039 415.018362 
L 634.505455 417.47619 
L 660.540519 395.355733 
L 686.575584 406.006324 
L 712.610649 275.74141 
L 738.645714 246.247467 
L 764.680779 237.235429 
L 790.715844 243.789638 
L 816.750909 256.898057 
" clip-path="url(#pb0510aba2c)" style="fill: none; stroke: #ff7f0e; stroke-width: 2.5; stroke-linecap: square"/>
    <defs>
     <path id="mb982377202" d="M 0 3 
C 0.795609 3 1.55874 2.683901 2.12132 2.12132 
C 2.683901 1.55874 3 0.795609 3 0 
C 3 -0.795609 2.683901 -1.55874 2.12132 -2.12132 
C 1.55874 -2.683901 0.795609 -3 0 -3 
C -0.795609 -3 -1.55874 -2.683901 -2.12132 -2.12132 
C -2.683901 -1.55874 -3 -0.795609 -3 0 
C -3 0.795609 -2.683901 1.55874 -2.12132 2.12132 
C -1.55874 2.683901 -0.795609 3 0 3 
z
" style="stroke: #ff7f0e"/>
    </defs>
    <g clip-path="url(#pb0510aba2c)">
     <use xlink:href="#mb982377202" x="87.769091" y="406.8256" style="fill: #ff7f0e; stroke: #ff7f0e"/>
     <use xlink:href="#mb982377202" x="113.804156" y="411.741257" style="fill: #ff7f0e; stroke: #ff7f0e"/>
     <use xlink:href="#mb982377202" x="139.839221" y="418.295467" style="fill: #ff7f0e; stroke: #ff7f0e"/>
     <use xlink:href="#mb982377202" x="165.874286" y="406.8256" style="fill: #ff7f0e; stroke: #ff7f0e"/>
     <use xlink:href="#mb982377202" x="191.909351" y="421.572571" style="fill: #ff7f0e; stroke: #ff7f0e"/>
     <use xlink:href="#mb982377202" x="217.944416" y="420.753295" style="fill: #ff7f0e; stroke: #ff7f0e"/>
     <use xlink:href="#mb982377202" x="243.979481" y="416.656914" style="fill: #ff7f0e; stroke: #ff7f0e"/>
     <use xlink:href="#mb982377202" x="270.014545" y="410.921981" style="fill: #ff7f0e; stroke: #ff7f0e"/>
     <use xlink:href="#mb982377202" x="296.04961" y="426.488229" style="fill: #ff7f0e; stroke: #ff7f0e"/>
     <use xlink:href="#mb982377202" x="322.084675" y="408.464152" style="fill: #ff7f0e; stroke: #ff7f0e"/>
     <use xlink:href="#mb982377202" x="348.11974" y="415.018362" style="fill: #ff7f0e; stroke: #ff7f0e"/>
     <use xlink:href="#mb982377202" x="374.154805" y="414.199086" style="fill: #ff7f0e; stroke: #ff7f0e"/>
     <use xlink:href="#mb982377202" x="400.18987" y="407.644876" style="fill: #ff7f0e; stroke: #ff7f0e"/>
     <use xlink:href="#mb982377202" x="426.224935" y="404.367771" style="fill: #ff7f0e; stroke: #ff7f0e"/>
     <use xlink:href="#mb982377202" x="452.26" y="421.572571" style="fill: #ff7f0e; stroke: #ff7f0e"/>
     <use xlink:href="#mb982377202" x="478.295065" y="411.741257" style="fill: #ff7f0e; stroke: #ff7f0e"/>
     <use xlink:href="#mb982377202" x="504.33013" y="412.560533" style="fill: #ff7f0e; stroke: #ff7f0e"/>
     <use xlink:href="#mb982377202" x="530.365195" y="420.753295" style="fill: #ff7f0e; stroke: #ff7f0e"/>
     <use xlink:href="#mb982377202" x="556.40026" y="415.018362" style="fill: #ff7f0e; stroke: #ff7f0e"/>
     <use xlink:href="#mb982377202" x="582.435325" y="406.006324" style="fill: #ff7f0e; stroke: #ff7f0e"/>
     <use xlink:href="#mb982377202" x="608.47039" y="415.018362" style="fill: #ff7f0e; stroke: #ff7f0e"/>
     <use xlink:href="#mb982377202" x="634.505455" y="417.47619" style="fill: #ff7f0e; stroke: #ff7f0e"/>
     <use xlink:href="#mb982377202" x="660.540519" y="395.355733" style="fill: #ff7f0e; stroke: #ff7f0e"/>
     <use xlink:href="#mb982377202" x="686.575584" y="406.006324" style="fill: #ff7f0e; stroke: #ff7f0e"/>
     <use xlink:href="#mb982377202" x="712.610649" y="275.74141" style="fill: #ff7f0e; stroke: #ff7f0e"/>
     <use xlink:href="#mb982377202" x="738.645714" y="246.247467" style="fill: #ff7f0e; stroke: #ff7f0e"/>
     <use xlink:href="#mb982377202" x="764.680779" y="237.235429" style="fill: #ff7f0e; stroke: #ff7f0e"/>
     <use xlink:href="#mb982377202" x="790.715844" y="243.789638" style="fill: #ff7f0e; stroke: #ff7f0e"/>
     <use xlink:href="#mb982377202" x="816.750909" y="256.898057" style="fill: #ff7f0e; stroke: #ff7f0e"/>
    </g>
   </g>
   <g id="line2d_73">
    <path d="M 87.769091 424.0304 
L 113.804156 429.765333 
L 139.839221 420.753295 
L 165.874286 425.668952 
L 191.909351 406.006324 
L 217.944416 412.560533 
L 243.979481 419.934019 
L 270.014545 415.837638 
L 296.04961 421.572571 
L 322.084675 415.837638 
L 348.11974 386.343695 
L 374.154805 402.729219 
L 400.18987 399.452114 
L 426.224935 404.367771 
L 452.26 410.921981 
L 478.295065 419.114743 
L 504.33013 401.090667 
L 530.365195 367.500343 
L 556.40026 384.705143 
L 582.435325 332.271467 
L 608.47039 343.741333 
L 634.505455 354.391924 
L 660.540519 367.500343 
L 686.575584 356.030476 
L 712.610649 374.054552 
L 738.645714 388.801524 
L 764.680779 400.27139 
L 790.715844 394.536457 
L 816.750909 396.17501 
" clip-path="url(#pb0510aba2c)" style="fill: none; stroke: #2ca02c; stroke-width: 2.5; stroke-linecap: square"/>
    <defs>
     <path id="ma8ac6d1bf8" d="M 0 3 
C 0.795609 3 1.55874 2.683901 2.12132 2.12132 
C 2.683901 1.55874 3 0.795609 3 0 
C 3 -0.795609 2.683901 -1.55874 2.12132 -2.12132 
C 1.55874 -2.683901 0.795609 -3 0 -3 
C -0.795609 -3 -1.55874 -2.683901 -2.12132 -2.12132 
C -2.683901 -1.55874 -3 -0.795609 -3 0 
C -3 0.795609 -2.683901 1.55874 -2.12132 2.12132 
C -1.55874 2.683901 -0.795609 3 0 3 
z
" style="stroke: #2ca02c"/>
    </defs>
    <g clip-path="url(#pb0510aba2c)">
     <use xlink:href="#ma8ac6d1bf8" x="87.769091" y="424.0304" style="fill: #2ca02c; stroke: #2ca02c"/>
     <use xlink:href="#ma8ac6d1bf8" x="113.804156" y="429.765333" style="fill: #2ca02c; stroke: #2ca02c"/>
     <use xlink:href="#ma8ac6d1bf8" x="139.839221" y="420.753295" style="fill: #2ca02c; stroke: #2ca02c"/>
     <use xlink:href="#ma8ac6d1bf8" x="165.874286" y="425.668952" style="fill: #2ca02c; stroke: #2ca02c"/>
     <use xlink:href="#ma8ac6d1bf8" x="191.909351" y="406.006324" style="fill: #2ca02c; stroke: #2ca02c"/>
     <use xlink:href="#ma8ac6d1bf8" x="217.944416" y="412.560533" style="fill: #2ca02c; stroke: #2ca02c"/>
     <use xlink:href="#ma8ac6d1bf8" x="243.979481" y="419.934019" style="fill: #2ca02c; stroke: #2ca02c"/>
     <use xlink:href="#ma8ac6d1bf8" x="270.014545" y="415.837638" style="fill: #2ca02c; stroke: #2ca02c"/>
     <use xlink:href="#ma8ac6d1bf8" x="296.04961" y="421.572571" style="fill: #2ca02c; stroke: #2ca02c"/>
     <use xlink:href="#ma8ac6d1bf8" x="322.084675" y="415.837638" style="fill: #2ca02c; stroke: #2ca02c"/>
     <use xlink:href="#ma8ac6d1bf8" x="348.11974" y="386.343695" style="fill: #2ca02c; stroke: #2ca02c"/>
     <use xlink:href="#ma8ac6d1bf8" x="374.154805" y="402.729219" style="fill: #2ca02c; stroke: #2ca02c"/>
     <use xlink:href="#ma8ac6d1bf8" x="400.18987" y="399.452114" style="fill: #2ca02c; stroke: #2ca02c"/>
     <use xlink:href="#ma8ac6d1bf8" x="426.224935" y="404.367771" style="fill: #2ca02c; stroke: #2ca02c"/>
     <use xlink:href="#ma8ac6d1bf8" x="452.26" y="410.921981" style="fill: #2ca02c; stroke: #2ca02c"/>
     <use xlink:href="#ma8ac6d1bf8" x="478.295065" y="419.114743" style="fill: #2ca02c; stroke: #2ca02c"/>
     <use xlink:href="#ma8ac6d1bf8" x="504.33013" y="401.090667" style="fill: #2ca02c; stroke: #2ca02c"/>
     <use xlink:href="#ma8ac6d1bf8" x="530.365195" y="367.500343" style="fill: #2ca02c; stroke: #2ca02c"/>
     <use xlink:href="#ma8ac6d1bf8" x="556.40026" y="384.705143" style="fill: #2ca02c; stroke: #2ca02c"/>
     <use xlink:href="#ma8ac6d1bf8" x="582.435325" y="332.271467" style="fill: #2ca02c; stroke: #2ca02c"/>
     <use xlink:href="#ma8ac6d1bf8" x="608.47039" y="343.741333" style="fill: #2ca02c; stroke: #2ca02c"/>
     <use xlink:href="#ma8ac6d1bf8" x="634.505455" y="354.391924" style="fill: #2ca02c; stroke: #2ca02c"/>
     <use xlink:href="#ma8ac6d1bf8" x="660.540519" y="367.500343" style="fill: #2ca02c; stroke: #2ca02c"/>
     <use xlink:href="#ma8ac6d1bf8" x="686.575584" y="356.030476" style="fill: #2ca02c; stroke: #2ca02c"/>
     <use xlink:href="#ma8ac6d1bf8" x="712.610649" y="374.054552" style="fill: #2ca02c; stroke: #2ca02c"/>
     <use xlink:href="#ma8ac6d1bf8" x="738.645714" y="388.801524" style="fill: #2ca02c; stroke: #2ca02c"/>
     <use xlink:href="#ma8ac6d1bf8" x="764.680779" y="400.27139" style="fill: #2ca02c; stroke: #2ca02c"/>
     <use xlink:href="#ma8ac6d1bf8" x="790.715844" y="394.536457" style="fill: #2ca02c; stroke: #2ca02c"/>
     <use xlink:href="#ma8ac6d1bf8" x="816.750909" y="396.17501" style="fill: #2ca02c; stroke: #2ca02c"/>
    </g>
   </g>
   <g id="patch_3">
    <path d="M 51.32 458.44 
L 51.32 28.32 
" style="fill: none; stroke: #000000; stroke-width: 0.8; stroke-linejoin: miter; stroke-linecap: square"/>
   </g>
   <g id="patch_4">
    <path d="M 853.2 458.44 
L 853.2 28.32 
" style="fill: none; stroke: #000000; stroke-width: 0.8; stroke-linejoin: miter; stroke-linecap: square"/>
   </g>
   <g id="patch_5">
    <path d="M 51.32 458.44 
L 853.2 458.44 
" style="fill: none; stroke: #000000; stroke-width: 0.8; stroke-linejoin: miter; stroke-linecap: square"/>
   </g>
   <g id="patch_6">
    <path d="M 51.32 28.32 
L 853.2 28.32 
" style="fill: none; stroke: #000000; stroke-width: 0.8; stroke-linejoin: miter; stroke-linecap: square"/>
   </g>
   <g id="text_38">
    <!-- AceMath: Aggregated 3-Digit Addition Accuracy (Linear Probe) -->
    <g transform="translate(202.7125 22.32) scale(0.16 -0.16)">
     <defs>
      <path id="DejaVuSans-4d" d="M 628 4666 
L 1569 4666 
L 2759 1491 
L 3956 4666 
L 4897 4666 
L 4897 0 
L 4281 0 
L 4281 4097 
L 3078 897 
L 2444 897 
L 1241 4097 
L 1241 0 
L 628 0 
L 628 4666 
z
" transform="scale(0.015625)"/>
      <path id="DejaVuSans-68" d="M 3513 2113 
L 3513 0 
L 2938 0 
L 2938 2094 
Q 2938 2591 2744 2837 
Q 2550 3084 2163 3084 
Q 1697 3084 1428 2787 
Q 1159 2491 1159 1978 
L 1159 0 
L 581 0 
L 581 4863 
L 1159 4863 
L 1159 2956 
Q 1366 3272 1645 3428 
Q 1925 3584 2291 3584 
Q 2894 3584 3203 3211 
Q 3513 2838 3513 2113 
z
" transform="scale(0.015625)"/>
      <path id="DejaVuSans-3a" d="M 750 794 
L 1409 794 
L 1409 0 
L 750 0 
L 750 794 
z
M 750 3309 
L 1409 3309 
L 1409 2516 
L 750 2516 
L 750 3309 
z
" transform="scale(0.015625)"/>
      <path id="DejaVuSans-2d" d="M 313 2009 
L 1997 2009 
L 1997 1497 
L 313 1497 
L 313 2009 
z
" transform="scale(0.015625)"/>
     </defs>
     <use xlink:href="#DejaVuSans-41"/>
     <use xlink:href="#DejaVuSans-63" x="66.658203"/>
     <use xlink:href="#DejaVuSans-65" x="121.638672"/>
     <use xlink:href="#DejaVuSans-4d" x="183.162109"/>
     <use xlink:href="#DejaVuSans-61" x="269.441406"/>
     <use xlink:href="#DejaVuSans-74" x="330.720703"/>
     <use xlink:href="#DejaVuSans-68" x="369.929688"/>
     <use xlink:href="#DejaVuSans-3a" x="433.308594"/>
     <use xlink:href="#DejaVuSans-20" x="467"/>
     <use xlink:href="#DejaVuSans-41" x="498.787109"/>
     <use xlink:href="#DejaVuSans-67" x="567.195312"/>
     <use xlink:href="#DejaVuSans-67" x="630.671875"/>
     <use xlink:href="#DejaVuSans-72" x="694.148438"/>
     <use xlink:href="#DejaVuSans-65" x="733.011719"/>
     <use xlink:href="#DejaVuSans-67" x="794.535156"/>
     <use xlink:href="#DejaVuSans-61" x="858.011719"/>
     <use xlink:href="#DejaVuSans-74" x="919.291016"/>
     <use xlink:href="#DejaVuSans-65" x="958.5"/>
     <use xlink:href="#DejaVuSans-64" x="1020.023438"/>
     <use xlink:href="#DejaVuSans-20" x="1083.5"/>
     <use xlink:href="#DejaVuSans-33" x="1115.287109"/>
     <use xlink:href="#DejaVuSans-2d" x="1178.910156"/>
     <use xlink:href="#DejaVuSans-44" x="1214.994141"/>
     <use xlink:href="#DejaVuSans-69" x="1291.996094"/>
     <use xlink:href="#DejaVuSans-67" x="1319.779297"/>
     <use xlink:href="#DejaVuSans-69" x="1383.255859"/>
     <use xlink:href="#DejaVuSans-74" x="1411.039062"/>
     <use xlink:href="#DejaVuSans-20" x="1450.248047"/>
     <use xlink:href="#DejaVuSans-41" x="1482.035156"/>
     <use xlink:href="#DejaVuSans-64" x="1548.693359"/>
     <use xlink:href="#DejaVuSans-64" x="1612.169922"/>
     <use xlink:href="#DejaVuSans-69" x="1675.646484"/>
     <use xlink:href="#DejaVuSans-74" x="1703.429688"/>
     <use xlink:href="#DejaVuSans-69" x="1742.638672"/>
     <use xlink:href="#DejaVuSans-6f" x="1770.421875"/>
     <use xlink:href="#DejaVuSans-6e" x="1831.603516"/>
     <use xlink:href="#DejaVuSans-20" x="1894.982422"/>
     <use xlink:href="#DejaVuSans-41" x="1926.769531"/>
     <use xlink:href="#DejaVuSans-63" x="1993.427734"/>
     <use xlink:href="#DejaVuSans-63" x="2048.408203"/>
     <use xlink:href="#DejaVuSans-75" x="2103.388672"/>
     <use xlink:href="#DejaVuSans-72" x="2166.767578"/>
     <use xlink:href="#DejaVuSans-61" x="2207.880859"/>
     <use xlink:href="#DejaVuSans-63" x="2269.160156"/>
     <use xlink:href="#DejaVuSans-79" x="2324.140625"/>
     <use xlink:href="#DejaVuSans-20" x="2383.320312"/>
     <use xlink:href="#DejaVuSans-28" x="2415.107422"/>
     <use xlink:href="#DejaVuSans-4c" x="2454.121094"/>
     <use xlink:href="#DejaVuSans-69" x="2509.833984"/>
     <use xlink:href="#DejaVuSans-6e" x="2537.617188"/>
     <use xlink:href="#DejaVuSans-65" x="2600.996094"/>
     <use xlink:href="#DejaVuSans-61" x="2662.519531"/>
     <use xlink:href="#DejaVuSans-72" x="2723.798828"/>
     <use xlink:href="#DejaVuSans-20" x="2764.912109"/>
     <use xlink:href="#DejaVuSans-50" x="2796.699219"/>
     <use xlink:href="#DejaVuSans-72" x="2855.251953"/>
     <use xlink:href="#DejaVuSans-6f" x="2894.115234"/>
     <use xlink:href="#DejaVuSans-62" x="2955.296875"/>
     <use xlink:href="#DejaVuSans-65" x="3018.773438"/>
     <use xlink:href="#DejaVuSans-29" x="3080.296875"/>
    </g>
   </g>
   <g id="legend_1">
    <g id="patch_7">
     <path d="M 689.956875 452.44 
L 844.8 452.44 
Q 847.2 452.44 847.2 450.04 
L 847.2 398.39875 
Q 847.2 395.99875 844.8 395.99875 
L 689.956875 395.99875 
Q 687.556875 395.99875 687.556875 398.39875 
L 687.556875 450.04 
Q 687.556875 452.44 689.956875 452.44 
z
" style="fill: #ffffff; opacity: 0.8; stroke: #cccccc; stroke-linejoin: miter"/>
    </g>
    <g id="line2d_74">
     <path d="M 692.356875 405.716875 
L 704.356875 405.716875 
L 716.356875 405.716875 
" style="fill: none; stroke: #1f77b4; stroke-width: 2.5; stroke-linecap: square"/>
     <g>
      <use xlink:href="#meaa9e93a20" x="704.356875" y="405.716875" style="fill: #1f77b4; stroke: #1f77b4"/>
     </g>
    </g>
    <g id="text_39">
     <!-- Avg. Hundreds Acc. -->
     <g transform="translate(725.956875 409.916875) scale(0.12 -0.12)">
      <defs>
       <path id="DejaVuSans-48" d="M 628 4666 
L 1259 4666 
L 1259 2753 
L 3553 2753 
L 3553 4666 
L 4184 4666 
L 4184 0 
L 3553 0 
L 3553 2222 
L 1259 2222 
L 1259 0 
L 628 0 
L 628 4666 
z
" transform="scale(0.015625)"/>
      </defs>
      <use xlink:href="#DejaVuSans-41"/>
      <use xlink:href="#DejaVuSans-76" x="62.533203"/>
      <use xlink:href="#DejaVuSans-67" x="121.712891"/>
      <use xlink:href="#DejaVuSans-2e" x="185.189453"/>
      <use xlink:href="#DejaVuSans-20" x="216.976562"/>
      <use xlink:href="#DejaVuSans-48" x="248.763672"/>
      <use xlink:href="#DejaVuSans-75" x="323.958984"/>
      <use xlink:href="#DejaVuSans-6e" x="387.337891"/>
      <use xlink:href="#DejaVuSans-64" x="450.716797"/>
      <use xlink:href="#DejaVuSans-72" x="514.193359"/>
      <use xlink:href="#DejaVuSans-65" x="553.056641"/>
      <use xlink:href="#DejaVuSans-64" x="614.580078"/>
      <use xlink:href="#DejaVuSans-73" x="678.056641"/>
      <use xlink:href="#DejaVuSans-20" x="730.15625"/>
      <use xlink:href="#DejaVuSans-41" x="761.943359"/>
      <use xlink:href="#DejaVuSans-63" x="828.601562"/>
      <use xlink:href="#DejaVuSans-63" x="883.582031"/>
      <use xlink:href="#DejaVuSans-2e" x="938.5625"/>
     </g>
    </g>
    <g id="line2d_75">
     <path d="M 692.356875 423.330625 
L 704.356875 423.330625 
L 716.356875 423.330625 
" style="fill: none; stroke: #ff7f0e; stroke-width: 2.5; stroke-linecap: square"/>
     <g>
      <use xlink:href="#mb982377202" x="704.356875" y="423.330625" style="fill: #ff7f0e; stroke: #ff7f0e"/>
     </g>
    </g>
    <g id="text_40">
     <!-- Avg. Tens Acc. -->
     <g transform="translate(725.956875 427.530625) scale(0.12 -0.12)">
      <defs>
       <path id="DejaVuSans-54" d="M -19 4666 
L 3928 4666 
L 3928 4134 
L 2272 4134 
L 2272 0 
L 1638 0 
L 1638 4134 
L -19 4134 
L -19 4666 
z
" transform="scale(0.015625)"/>
      </defs>
      <use xlink:href="#DejaVuSans-41"/>
      <use xlink:href="#DejaVuSans-76" x="62.533203"/>
      <use xlink:href="#DejaVuSans-67" x="121.712891"/>
      <use xlink:href="#DejaVuSans-2e" x="185.189453"/>
      <use xlink:href="#DejaVuSans-20" x="216.976562"/>
      <use xlink:href="#DejaVuSans-54" x="248.763672"/>
      <use xlink:href="#DejaVuSans-65" x="292.847656"/>
      <use xlink:href="#DejaVuSans-6e" x="354.371094"/>
      <use xlink:href="#DejaVuSans-73" x="417.75"/>
      <use xlink:href="#DejaVuSans-20" x="469.849609"/>
      <use xlink:href="#DejaVuSans-41" x="501.636719"/>
      <use xlink:href="#DejaVuSans-63" x="568.294922"/>
      <use xlink:href="#DejaVuSans-63" x="623.275391"/>
      <use xlink:href="#DejaVuSans-2e" x="678.255859"/>
     </g>
    </g>
    <g id="line2d_76">
     <path d="M 692.356875 440.944375 
L 704.356875 440.944375 
L 716.356875 440.944375 
" style="fill: none; stroke: #2ca02c; stroke-width: 2.5; stroke-linecap: square"/>
     <g>
      <use xlink:href="#ma8ac6d1bf8" x="704.356875" y="440.944375" style="fill: #2ca02c; stroke: #2ca02c"/>
     </g>
    </g>
    <g id="text_41">
     <!-- Avg. Ones Acc. -->
     <g transform="translate(725.956875 445.144375) scale(0.12 -0.12)">
      <defs>
       <path id="DejaVuSans-4f" d="M 2522 4238 
Q 1834 4238 1429 3725 
Q 1025 3213 1025 2328 
Q 1025 1447 1429 934 
Q 1834 422 2522 422 
Q 3209 422 3611 934 
Q 4013 1447 4013 2328 
Q 4013 3213 3611 3725 
Q 3209 4238 2522 4238 
z
M 2522 4750 
Q 3503 4750 4090 4092 
Q 4678 3434 4678 2328 
Q 4678 1225 4090 567 
Q 3503 -91 2522 -91 
Q 1538 -91 948 565 
Q 359 1222 359 2328 
Q 359 3434 948 4092 
Q 1538 4750 2522 4750 
z
" transform="scale(0.015625)"/>
      </defs>
      <use xlink:href="#DejaVuSans-41"/>
      <use xlink:href="#DejaVuSans-76" x="62.533203"/>
      <use xlink:href="#DejaVuSans-67" x="121.712891"/>
      <use xlink:href="#DejaVuSans-2e" x="185.189453"/>
      <use xlink:href="#DejaVuSans-20" x="216.976562"/>
      <use xlink:href="#DejaVuSans-4f" x="248.763672"/>
      <use xlink:href="#DejaVuSans-6e" x="327.474609"/>
      <use xlink:href="#DejaVuSans-65" x="390.853516"/>
      <use xlink:href="#DejaVuSans-73" x="452.376953"/>
      <use xlink:href="#DejaVuSans-20" x="504.476562"/>
      <use xlink:href="#DejaVuSans-41" x="536.263672"/>
      <use xlink:href="#DejaVuSans-63" x="602.921875"/>
      <use xlink:href="#DejaVuSans-63" x="657.902344"/>
      <use xlink:href="#DejaVuSans-2e" x="712.882812"/>
     </g>
    </g>
   </g>
  </g>
 </g>
 <defs>
  <clipPath id="pb0510aba2c">
   <rect x="51.32" y="28.32" width="801.88" height="430.12"/>
  </clipPath>
 </defs>
</svg>
